Glegoo-deva-regular-ufocentral.ufo
<glyph name="quotedbl" format="1">
  <advance width="400"/>
  <unicode hex="0022"/>
  <outline>
    <contour>
      <point x="240" y="730" type="line"/>
      <point x="240" y="650" type="line"/>
      <point x="258" y="491" type="line"/>
      <point x="302" y="491" type="line"/>
      <point x="320" y="650" type="line"/>
      <point x="320" y="730" type="line"/>
    </contour>
    <contour>
      <point x="80" y="730" type="line"/>
      <point x="80" y="650" type="line"/>
      <point x="98" y="491" type="line"/>
      <point x="142" y="491" type="line"/>
      <point x="160" y="650" type="line"/>
      <point x="160" y="730" type="line"/>
    </contour>
  </outline>
</glyph>
<glyph name="quotesingle" format="1">
  <advance width="240"/>
  <unicode hex="0027"/>
  <outline>
    <contour>
      <point x="80" y="730" type="line"/>
      <point x="80" y="650" type="line"/>
      <point x="98" y="491" type="line"/>
      <point x="142" y="491" type="line"/>
      <point x="160" y="650" type="line"/>
      <point x="160" y="730" type="line"/>
    </contour>
  </outline>
</glyph>
<glyph name="parenright" format="1">
  <advance width="294"/>
  <unicode hex="0029"/>
  <outline>
    <contour>
      <point x="5" y="735" type="line"/>
      <point x="206" y="735"/>
      <point x="229" y="585"/>
      <point x="229" y="334" type="curve" smooth="yes"/>
      <point x="229" y="86"/>
      <point x="206" y="-66"/>
      <point x="5" y="-66" type="curve"/>
      <point x="5" y="-4" type="line"/>
      <point x="138" y="-4"/>
      <point x="152" y="123"/>
      <point x="152" y="334" type="curve" smooth="yes"/>
      <point x="152" y="546"/>
      <point x="138" y="673"/>
      <point x="5" y="673" type="curve"/>
    </contour>
  </outline>
</glyph>
<glyph name="plus" format="1">
  <advance width="580"/>
  <unicode hex="002B"/>
  <outline>
    <contour>
      <point x="94" y="288" type="line"/>
      <point x="260" y="288" type="line"/>
      <point x="260" y="122" type="line"/>
      <point x="320" y="122" type="line"/>
      <point x="320" y="288" type="line"/>
      <point x="486" y="288" type="line"/>
      <point x="486" y="348" type="line"/>
      <point x="320" y="348" type="line"/>
      <point x="320" y="514" type="line"/>
      <point x="260" y="514" type="line"/>
      <point x="260" y="348" type="line"/>
      <point x="94" y="348" type="line"/>
    </contour>
  </outline>
</glyph>
<glyph name="hyphen" format="1">
  <advance width="492"/>
  <unicode hex="002D"/>
  <outline>
    <contour>
      <point x="70" y="288" type="line"/>
      <point x="422" y="288" type="line"/>
      <point x="422" y="348" type="line"/>
      <point x="70" y="348" type="line"/>
    </contour>
  </outline>
</glyph>
<glyph name="period" format="1">
  <advance width="226"/>
  <unicode hex="002E"/>
  <outline>
    <contour>
      <point x="112" y="-8" type="curve" smooth="yes"/>
      <point x="158" y="-8"/>
      <point x="161" y="23"/>
      <point x="161" y="50" type="curve" smooth="yes"/>
      <point x="161" y="78"/>
      <point x="158" y="109"/>
      <point x="112" y="109" type="curve" smooth="yes"/>
      <point x="68" y="109"/>
      <point x="65" y="78"/>
      <point x="65" y="50" type="curve" smooth="yes"/>
      <point x="65" y="23"/>
      <point x="68" y="-8"/>
    </contour>
  </outline>
</glyph>
<glyph name="slash" format="1">
  <advance width="308"/>
  <unicode hex="002F"/>
  <outline>
    <contour>
      <point x="0" y="-106" type="line"/>
      <point x="71" y="-106" type="line"/>
      <point x="308" y="775" type="line"/>
      <point x="237" y="775" type="line"/>
    </contour>
  </outline>
</glyph>
<glyph name="zero" format="1">
  <advance width="580"/>
  <unicode hex="0030"/>
  <outline>
    <contour>
      <point x="289" y="-14" type="curve" smooth="yes"/>
      <point x="497" y="-14"/>
      <point x="519" y="124"/>
      <point x="519" y="335" type="curve" smooth="yes"/>
      <point x="519" y="545"/>
      <point x="497" y="683"/>
      <point x="289" y="683" type="curve" smooth="yes"/>
      <point x="82" y="683"/>
      <point x="60" y="545"/>
      <point x="60" y="335" type="curve" smooth="yes"/>
      <point x="60" y="124"/>
      <point x="82" y="-14"/>
    </contour>
    <contour>
      <point x="289" y="45" type="curve" smooth="yes"/>
      <point x="147" y="45"/>
      <point x="130" y="147"/>
      <point x="130" y="335" type="curve" smooth="yes"/>
      <point x="130" y="522"/>
      <point x="147" y="624"/>
      <point x="289" y="624" type="curve" smooth="yes"/>
      <point x="432" y="624"/>
      <point x="449" y="522"/>
      <point x="449" y="335" type="curve" smooth="yes"/>
      <point x="449" y="147"/>
      <point x="432" y="45"/>
    </contour>
  </outline>
</glyph>
<glyph name="one" format="1">
  <advance width="580"/>
  <unicode hex="0031"/>
  <outline>
    <contour>
      <point x="133" y="0" type="line"/>
      <point x="485" y="0" type="line"/>
      <point x="485" y="59" type="line"/>
      <point x="133" y="59" type="line"/>
    </contour>
    <contour>
      <point x="345" y="30" type="line"/>
      <point x="345" y="670" type="line"/>
      <point x="293" y="670" type="line"/>
      <point x="273" y="607" type="line"/>
      <point x="273" y="30" type="line"/>
    </contour>
    <contour>
      <point x="138" y="575" type="line"/>
      <point x="293" y="575" type="line"/>
      <point x="293" y="670" type="line"/>
      <point x="258" y="645"/>
      <point x="205" y="627"/>
      <point x="138" y="620" type="curve"/>
    </contour>
  </outline>
</glyph>
<glyph name="two" format="1">
  <advance width="580"/>
  <unicode hex="0032"/>
  <outline>
    <contour>
      <point x="171" y="59" type="line"/>
      <point x="377" y="281" type="line" smooth="yes"/>
      <point x="438" y="347"/>
      <point x="498" y="420"/>
      <point x="498" y="506" type="curve" smooth="yes"/>
      <point x="498" y="613"/>
      <point x="445" y="684"/>
      <point x="292" y="684" type="curve" smooth="yes"/>
      <point x="140" y="684"/>
      <point x="90" y="608"/>
      <point x="90" y="490" type="curve"/>
      <point x="152" y="490" type="line"/>
      <point x="152" y="571"/>
      <point x="178" y="625"/>
      <point x="292" y="625" type="curve" smooth="yes"/>
      <point x="397" y="625"/>
      <point x="428" y="577"/>
      <point x="428" y="507" type="curve" smooth="yes"/>
      <point x="428" y="442"/>
      <point x="388" y="394"/>
      <point x="338" y="340" type="curve" smooth="yes"/>
      <point x="76" y="57" type="line"/>
      <point x="76" y="0" type="line"/>
      <point x="505" y="0" type="line"/>
      <point x="505" y="59" type="line"/>
    </contour>
  </outline>
</glyph>
<glyph name="three" format="1">
  <advance width="580"/>
  <unicode hex="0033"/>
  <outline>
    <contour>
      <point x="290" y="625" type="curve" smooth="yes"/>
      <point x="405" y="625"/>
      <point x="437" y="572"/>
      <point x="437" y="491" type="curve" smooth="yes"/>
      <point x="437" y="417"/>
      <point x="391" y="359"/>
      <point x="309" y="359" type="curve" smooth="yes"/>
      <point x="202" y="359" type="line"/>
      <point x="202" y="315" type="line"/>
      <point x="309" y="315" type="line" smooth="yes"/>
      <point x="414" y="315"/>
      <point x="507" y="383"/>
      <point x="507" y="490" type="curve" smooth="yes"/>
      <point x="507" y="608"/>
      <point x="452" y="684"/>
      <point x="290" y="684" type="curve" smooth="yes"/>
      <point x="143" y="684"/>
      <point x="88" y="608"/>
      <point x="88" y="490" type="curve"/>
      <point x="150" y="490" type="line"/>
      <point x="150" y="571"/>
      <point x="186" y="625"/>
    </contour>
    <contour>
      <point x="516" y="167" type="curve" smooth="yes"/>
      <point x="516" y="291"/>
      <point x="425" y="349"/>
      <point x="320" y="349" type="curve" smooth="yes"/>
      <point x="202" y="349" type="line"/>
      <point x="202" y="305" type="line"/>
      <point x="308" y="305" type="line" smooth="yes"/>
      <point x="410" y="305"/>
      <point x="446" y="244"/>
      <point x="446" y="166" type="curve" smooth="yes"/>
      <point x="446" y="90"/>
      <point x="403" y="45"/>
      <point x="290" y="45" type="curve" smooth="yes"/>
      <point x="175" y="45"/>
      <point x="137" y="98"/>
      <point x="137" y="179" type="curve"/>
      <point x="75" y="179" type="line"/>
      <point x="75" y="61"/>
      <point x="128" y="-14"/>
      <point x="290" y="-14" type="curve" smooth="yes"/>
      <point x="445" y="-14"/>
      <point x="516" y="51"/>
    </contour>
  </outline>
</glyph>
<glyph name="five" format="1">
  <advance width="580"/>
  <unicode hex="0035"/>
  <outline>
    <contour>
      <point x="97" y="341" type="line"/>
      <point x="206" y="341" type="line" smooth="yes"/>
      <point x="387" y="341"/>
      <point x="444" y="295"/>
      <point x="444" y="196" type="curve" smooth="yes"/>
      <point x="444" y="101"/>
      <point x="410" y="45"/>
      <point x="292" y="45" type="curve" smooth="yes"/>
      <point x="174" y="45"/>
      <point x="145" y="105"/>
      <point x="145" y="195" type="curve"/>
      <point x="83" y="195" type="line"/>
      <point x="83" y="64"/>
      <point x="135" y="-14"/>
      <point x="292" y="-14" type="curve" smooth="yes"/>
      <point x="458" y="-14"/>
      <point x="514" y="64"/>
      <point x="514" y="196" type="curve" smooth="yes"/>
      <point x="514" y="350"/>
      <point x="417" y="400"/>
      <point x="207" y="400" type="curve" smooth="yes"/>
      <point x="164" y="400" type="line"/>
      <point x="177" y="611" type="line"/>
      <point x="477" y="611" type="line"/>
      <point x="477" y="670" type="line"/>
      <point x="118" y="670" type="line"/>
    </contour>
  </outline>
</glyph>
<glyph name="nine" format="1">
  <advance width="580"/>
  <unicode hex="0039"/>
  <outline>
    <contour>
      <point x="63" y="473" type="curve" smooth="yes"/>
      <point x="63" y="368"/>
      <point x="112" y="278"/>
      <point x="288" y="278" type="curve" smooth="yes"/>
      <point x="349" y="278"/>
      <point x="408" y="289"/>
      <point x="467" y="309" type="curve"/>
      <point x="467" y="362" type="line"/>
      <point x="395" y="342"/>
      <point x="357" y="335"/>
      <point x="292" y="335" type="curve" smooth="yes"/>
      <point x="170" y="335"/>
      <point x="133" y="404"/>
      <point x="133" y="473" type="curve" smooth="yes"/>
      <point x="133" y="568"/>
      <point x="173" y="625"/>
      <point x="290" y="625" type="curve" smooth="yes"/>
      <point x="415" y="625"/>
      <point x="443" y="570"/>
      <point x="443" y="345" type="curve" smooth="yes"/>
      <point x="443" y="107"/>
      <point x="408" y="45"/>
      <point x="284" y="45" type="curve" smooth="yes"/>
      <point x="176" y="45"/>
      <point x="135" y="97"/>
      <point x="135" y="188" type="curve"/>
      <point x="73" y="188" type="line"/>
      <point x="74" y="64"/>
      <point x="127" y="-14"/>
      <point x="286" y="-14" type="curve" smooth="yes"/>
      <point x="486" y="-14"/>
      <point x="513" y="121"/>
      <point x="513" y="344" type="curve" smooth="yes"/>
      <point x="513" y="580"/>
      <point x="480" y="684"/>
      <point x="291" y="684" type="curve" smooth="yes"/>
      <point x="126" y="684"/>
      <point x="66" y="602"/>
    </contour>
  </outline>
</glyph>
<glyph name="equal" format="1">
  <advance width="580"/>
  <unicode hex="003D"/>
  <outline>
    <contour>
      <point x="94" y="388" type="line"/>
      <point x="486" y="388" type="line"/>
      <point x="486" y="448" type="line"/>
      <point x="94" y="448" type="line"/>
    </contour>
    <contour>
      <point x="94" y="188" type="line"/>
      <point x="486" y="188" type="line"/>
      <point x="486" y="248" type="line"/>
      <point x="94" y="248" type="line"/>
    </contour>
  </outline>
</glyph>
<glyph name="greater" format="1">
  <advance width="580"/>
  <unicode hex="003E"/>
  <outline>
    <contour>
      <point x="491" y="341" type="line"/>
      <point x="89" y="177" type="line"/>
      <point x="89" y="111" type="line"/>
      <point x="491" y="279" type="line"/>
    </contour>
    <contour>
      <point x="491" y="355" type="line"/>
      <point x="89" y="523" type="line"/>
      <point x="89" y="457" type="line"/>
      <point x="491" y="293" type="line"/>
    </contour>
  </outline>
</glyph>
<glyph name="question" format="1">
  <advance width="484"/>
  <unicode hex="003F"/>
  <outline>
    <contour>
      <point x="222" y="-8" type="curve" smooth="yes"/>
      <point x="178" y="-8"/>
      <point x="175" y="23"/>
      <point x="175" y="50" type="curve" smooth="yes"/>
      <point x="175" y="78"/>
      <point x="178" y="109"/>
      <point x="222" y="109" type="curve" smooth="yes"/>
      <point x="268" y="109"/>
      <point x="271" y="78"/>
      <point x="271" y="50" type="curve" smooth="yes"/>
      <point x="271" y="23"/>
      <point x="268" y="-8"/>
    </contour>
    <contour>
      <point x="273" y="333" type="line" smooth="yes"/>
      <point x="384" y="350"/>
      <point x="452" y="387"/>
      <point x="452" y="535" type="curve" smooth="yes"/>
      <point x="452" y="666"/>
      <point x="399" y="744"/>
      <point x="239" y="744" type="curve" smooth="yes"/>
      <point x="95" y="744"/>
      <point x="42" y="680"/>
      <point x="42" y="572" type="curve"/>
      <point x="102" y="572" type="line"/>
      <point x="102" y="640"/>
      <point x="137" y="685"/>
      <point x="238" y="685" type="curve" smooth="yes"/>
      <point x="354" y="685"/>
      <point x="384" y="625"/>
      <point x="384" y="533" type="curve" smooth="yes"/>
      <point x="384" y="418"/>
      <point x="323" y="390"/>
      <point x="244" y="381" type="curve" smooth="yes"/>
      <point x="193" y="375" type="line"/>
      <point x="200" y="185" type="line"/>
      <point x="246" y="185" type="line"/>
      <point x="257" y="331" type="line"/>
    </contour>
  </outline>
</glyph>
<glyph name="at" format="1">
  <advance width="980"/>
  <unicode hex="0040"/>
  <outline>
    <contour>
      <point x="584" y="-87" type="line"/>
      <point x="826" y="-61"/>
      <point x="890" y="81"/>
      <point x="890" y="328" type="curve" smooth="yes"/>
      <point x="890" y="604"/>
      <point x="810" y="745"/>
      <point x="490" y="745" type="curve" smooth="yes"/>
      <point x="169" y="745"/>
      <point x="90" y="604"/>
      <point x="90" y="328" type="curve" smooth="yes"/>
      <point x="90" y="52"/>
      <point x="169" y="-89"/>
      <point x="490" y="-89" type="curve"/>
      <point x="490" y="-34" type="line"/>
      <point x="213" y="-34"/>
      <point x="160" y="88"/>
      <point x="160" y="328" type="curve" smooth="yes"/>
      <point x="160" y="568"/>
      <point x="213" y="690"/>
      <point x="490" y="690" type="curve" smooth="yes"/>
      <point x="766" y="690"/>
      <point x="820" y="568"/>
      <point x="820" y="328" type="curve" smooth="yes"/>
      <point x="820" y="144"/>
      <point x="792" y="13"/>
      <point x="648" y="-20" type="curve"/>
      <point x="648" y="458" type="line" smooth="yes"/>
      <point x="648" y="557"/>
      <point x="578" y="586"/>
      <point x="490" y="586" type="curve" smooth="yes"/>
      <point x="359" y="586"/>
      <point x="329" y="528"/>
      <point x="323" y="442" type="curve"/>
      <point x="381" y="440" type="line"/>
      <point x="385" y="497"/>
      <point x="399" y="531"/>
      <point x="488" y="531" type="curve" smooth="yes"/>
      <point x="551" y="531"/>
      <point x="584" y="512"/>
      <point x="584" y="456" type="curve" smooth="yes"/>
      <point x="584" y="378" type="line"/>
      <point x="444" y="370" type="line" smooth="yes"/>
      <point x="330" y="363"/>
      <point x="303" y="321"/>
      <point x="303" y="233" type="curve" smooth="yes"/>
      <point x="303" y="154"/>
      <point x="335" y="106"/>
      <point x="438" y="106" type="curve" smooth="yes"/>
      <point x="498" y="106"/>
      <point x="551" y="132"/>
      <point x="584" y="159" type="curve"/>
    </contour>
    <contour>
      <point x="452" y="158" type="curve" smooth="yes"/>
      <point x="389" y="158"/>
      <point x="368" y="185"/>
      <point x="368" y="233" type="curve" smooth="yes"/>
      <point x="368" y="301"/>
      <point x="387" y="320"/>
      <point x="452" y="324" type="curve" smooth="yes"/>
      <point x="584" y="332" type="line"/>
      <point x="584" y="214" type="line"/>
      <point x="544" y="177"/>
      <point x="498" y="158"/>
    </contour>
  </outline>
</glyph>
<glyph name="C" format="1">
  <advance width="619"/>
  <unicode hex="0043"/>
  <outline>
    <contour>
      <point x="326" y="744" type="curve" smooth="yes"/>
      <point x="96" y="744"/>
      <point x="60" y="602"/>
      <point x="60" y="365" type="curve" smooth="yes"/>
      <point x="60" y="130"/>
      <point x="86" y="-14"/>
      <point x="336" y="-14" type="curve" smooth="yes"/>
      <point x="512" y="-14"/>
      <point x="553" y="77"/>
      <point x="562" y="209" type="curve"/>
      <point x="503" y="212" type="line"/>
      <point x="500" y="120"/>
      <point x="467" y="46"/>
      <point x="336" y="46" type="curve" smooth="yes"/>
      <point x="141" y="46"/>
      <point x="132" y="168"/>
      <point x="132" y="365" type="curve" smooth="yes"/>
      <point x="132" y="562"/>
      <point x="152" y="684"/>
      <point x="326" y="684" type="curve" smooth="yes"/>
      <point x="461" y="684"/>
      <point x="501" y="616"/>
      <point x="508" y="514" type="curve"/>
      <point x="539" y="514" type="line"/>
      <point x="539" y="644"/>
      <point x="488" y="744"/>
    </contour>
    <contour>
      <point x="508" y="730" type="line"/>
      <point x="508" y="514" type="line"/>
      <point x="562" y="514" type="line"/>
      <point x="562" y="730" type="line"/>
    </contour>
  </outline>
</glyph>
<glyph name="G" format="1">
  <advance width="672"/>
  <unicode hex="0047"/>
  <outline>
    <contour>
      <point x="531" y="0" type="line"/>
      <point x="572" y="0" type="line"/>
      <point x="572" y="365" type="line"/>
      <point x="508" y="365" type="line"/>
      <point x="508" y="177" type="line"/>
    </contour>
    <contour>
      <point x="327" y="-14" type="curve" smooth="yes"/>
      <point x="507" y="-14"/>
      <point x="549" y="108"/>
      <point x="558" y="240" type="curve"/>
      <point x="508" y="212" type="line"/>
      <point x="505" y="120"/>
      <point x="461" y="46"/>
      <point x="327" y="46" type="curve" smooth="yes"/>
      <point x="141" y="46"/>
      <point x="132" y="158"/>
      <point x="132" y="365" type="curve" smooth="yes"/>
      <point x="132" y="562"/>
      <point x="152" y="684"/>
      <point x="337" y="684" type="curve" smooth="yes"/>
      <point x="471" y="684"/>
      <point x="506" y="606"/>
      <point x="513" y="514" type="curve"/>
      <point x="543" y="514" type="line"/>
      <point x="543" y="644"/>
      <point x="489" y="744"/>
      <point x="337" y="744" type="curve" smooth="yes"/>
      <point x="96" y="744"/>
      <point x="60" y="602"/>
      <point x="60" y="365" type="curve" smooth="yes"/>
      <point x="60" y="130"/>
      <point x="76" y="-14"/>
    </contour>
    <contour>
      <point x="513" y="730" type="line"/>
      <point x="513" y="514" type="line"/>
      <point x="567" y="514" type="line"/>
      <point x="567" y="730" type="line"/>
    </contour>
    <contour>
      <point x="394" y="315" type="line"/>
      <point x="572" y="315" type="line"/>
      <point x="572" y="365" type="line"/>
      <point x="394" y="365" type="line"/>
    </contour>
  </outline>
</glyph>
<glyph name="J" format="1">
  <advance width="471"/>
  <unicode hex="004A"/>
  <outline>
    <contour>
      <point x="366" y="730" type="line"/>
      <point x="294" y="730" type="line"/>
      <point x="294" y="183" type="line" smooth="yes"/>
      <point x="294" y="80"/>
      <point x="276" y="46"/>
      <point x="190" y="46" type="curve" smooth="yes"/>
      <point x="104" y="46"/>
      <point x="82" y="83"/>
      <point x="82" y="183" type="curve"/>
      <point x="20" y="183" type="line"/>
      <point x="20" y="81"/>
      <point x="25" y="-14"/>
      <point x="188" y="-14" type="curve" smooth="yes"/>
      <point x="351" y="-14"/>
      <point x="366" y="73"/>
      <point x="366" y="183" type="curve" smooth="yes"/>
    </contour>
    <contour>
      <point x="214" y="680" type="line"/>
      <point x="426" y="680" type="line"/>
      <point x="426" y="730" type="line"/>
      <point x="214" y="730" type="line"/>
    </contour>
  </outline>
</glyph>
<glyph name="K" format="1">
  <advance width="629"/>
  <unicode hex="004B"/>
  <outline>
    <contour>
      <point x="130" y="730" type="line"/>
      <point x="130" y="0" type="line"/>
      <point x="202" y="0" type="line"/>
      <point x="202" y="730" type="line"/>
    </contour>
    <contour>
      <point x="576" y="21" type="line"/>
      <point x="336" y="378" type="line"/>
      <point x="260" y="378" type="line"/>
      <point x="498" y="21" type="line"/>
    </contour>
    <contour>
      <point x="161" y="340" type="line"/>
      <point x="326" y="340" type="line"/>
      <point x="326" y="399" type="line"/>
      <point x="161" y="399" type="line"/>
    </contour>
    <contour>
      <point x="486" y="705" type="line"/>
      <point x="260" y="353" type="line"/>
      <point x="333" y="353" type="line"/>
      <point x="562" y="705" type="line"/>
    </contour>
    <contour>
      <point x="70" y="0" type="line"/>
      <point x="262" y="0" type="line"/>
      <point x="262" y="50" type="line"/>
      <point x="70" y="50" type="line"/>
    </contour>
    <contour>
      <point x="70" y="680" type="line"/>
      <point x="262" y="680" type="line"/>
      <point x="262" y="730" type="line"/>
      <point x="70" y="730" type="line"/>
    </contour>
    <contour>
      <point x="427" y="0" type="line"/>
      <point x="609" y="0" type="line"/>
      <point x="609" y="50" type="line"/>
      <point x="427" y="50" type="line"/>
    </contour>
    <contour>
      <point x="417" y="680" type="line"/>
      <point x="599" y="680" type="line"/>
      <point x="599" y="730" type="line"/>
      <point x="417" y="730" type="line"/>
    </contour>
  </outline>
</glyph>
<glyph name="P" format="1">
  <advance width="599"/>
  <unicode hex="0050"/>
  <outline>
    <contour>
      <point x="130" y="671" type="line"/>
      <point x="130" y="0" type="line"/>
      <point x="202" y="0" type="line"/>
      <point x="202" y="671" type="line"/>
    </contour>
    <contour>
      <point x="330" y="275" type="line" smooth="yes"/>
      <point x="528" y="275"/>
      <point x="549" y="385"/>
      <point x="549" y="502" type="curve" smooth="yes"/>
      <point x="549" y="620"/>
      <point x="528" y="730"/>
      <point x="330" y="730" type="curve" smooth="yes"/>
      <point x="130" y="730" type="line"/>
      <point x="130" y="275" type="line"/>
    </contour>
    <contour>
      <point x="202" y="334" type="line"/>
      <point x="202" y="671" type="line"/>
      <point x="330" y="671" type="line" smooth="yes"/>
      <point x="463" y="671"/>
      <point x="477" y="597"/>
      <point x="477" y="502" type="curve" smooth="yes"/>
      <point x="477" y="408"/>
      <point x="463" y="334"/>
      <point x="330" y="334" type="curve" smooth="yes"/>
    </contour>
    <contour>
      <point x="70" y="0" type="line"/>
      <point x="282" y="0" type="line"/>
      <point x="282" y="50" type="line"/>
      <point x="70" y="50" type="line"/>
    </contour>
    <contour>
      <point x="70" y="680" type="line"/>
      <point x="130" y="680" type="line"/>
      <point x="130" y="730" type="line"/>
      <point x="70" y="730" type="line"/>
    </contour>
  </outline>
</glyph>
<glyph name="Q" format="1">
  <advance width="675"/>
  <unicode hex="0051"/>
  <outline>
    <contour>
      <point x="299" y="13" type="line"/>
      <point x="402" y="-192" type="line"/>
      <point x="477" y="-192" type="line"/>
      <point x="374" y="13" type="line"/>
    </contour>
    <contour>
      <point x="337" y="-14" type="curve" smooth="yes"/>
      <point x="587" y="-14"/>
      <point x="615" y="128"/>
      <point x="615" y="365" type="curve" smooth="yes"/>
      <point x="615" y="600"/>
      <point x="587" y="744"/>
      <point x="337" y="744" type="curve" smooth="yes"/>
      <point x="87" y="744"/>
      <point x="60" y="600"/>
      <point x="60" y="365" type="curve" smooth="yes"/>
      <point x="60" y="128"/>
      <point x="87" y="-14"/>
    </contour>
    <contour>
      <point x="337" y="46" type="curve" smooth="yes"/>
      <point x="152" y="46"/>
      <point x="132" y="168"/>
      <point x="132" y="365" type="curve" smooth="yes"/>
      <point x="132" y="562"/>
      <point x="152" y="684"/>
      <point x="337" y="684" type="curve" smooth="yes"/>
      <point x="522" y="684"/>
      <point x="543" y="562"/>
      <point x="543" y="365" type="curve" smooth="yes"/>
      <point x="543" y="168"/>
      <point x="522" y="46"/>
    </contour>
  </outline>
</glyph>
<glyph name="T" format="1">
  <advance width="538"/>
  <unicode hex="0054"/>
  <outline>
    <contour>
      <point x="10" y="671" type="line"/>
      <point x="528" y="671" type="line"/>
      <point x="528" y="730" type="line"/>
      <point x="10" y="730" type="line"/>
    </contour>
    <contour>
      <point x="233" y="700" type="line"/>
      <point x="233" y="0" type="line"/>
      <point x="305" y="0" type="line"/>
      <point x="305" y="700" type="line"/>
    </contour>
    <contour>
      <point x="153" y="0" type="line"/>
      <point x="385" y="0" type="line"/>
      <point x="385" y="50" type="line"/>
      <point x="153" y="50" type="line"/>
    </contour>
    <contour>
      <point x="66" y="572" type="line"/>
      <point x="66" y="730" type="line"/>
      <point x="10" y="730" type="line"/>
      <point x="10" y="572" type="line"/>
    </contour>
    <contour>
      <point x="528" y="572" type="line"/>
      <point x="528" y="730" type="line"/>
      <point x="472" y="730" type="line"/>
      <point x="472" y="572" type="line"/>
    </contour>
  </outline>
</glyph>
<glyph name="V" format="1">
  <advance width="647"/>
  <unicode hex="0056"/>
  <outline>
    <contour>
      <point x="344" y="0" type="line"/>
      <point x="124" y="730" type="line"/>
      <point x="50" y="730" type="line"/>
      <point x="275" y="0" type="line"/>
    </contour>
    <contour>
      <point x="372" y="0" type="line"/>
      <point x="597" y="730" type="line"/>
      <point x="523" y="730" type="line"/>
      <point x="303" y="0" type="line"/>
    </contour>
    <contour>
      <point x="445" y="680" type="line"/>
      <point x="627" y="680" type="line"/>
      <point x="627" y="730" type="line"/>
      <point x="445" y="730" type="line"/>
    </contour>
    <contour>
      <point x="20" y="680" type="line"/>
      <point x="202" y="680" type="line"/>
      <point x="202" y="730" type="line"/>
      <point x="20" y="730" type="line"/>
    </contour>
  </outline>
</glyph>
<glyph name="underscore" format="1">
  <advance width="580"/>
  <unicode hex="005F"/>
  <outline>
    <contour>
      <point x="70" y="-60" type="line"/>
      <point x="510" y="-60" type="line"/>
      <point x="510" y="0" type="line"/>
      <point x="70" y="0" type="line"/>
    </contour>
  </outline>
</glyph>
<glyph name="a" format="1">
  <advance width="612"/>
  <unicode hex="0061"/>
  <outline>
    <contour>
      <point x="233" y="-14" type="curve" smooth="yes"/>
      <point x="318" y="-14"/>
      <point x="386" y="28"/>
      <point x="427" y="65" type="curve"/>
      <point x="445" y="0" type="line"/>
      <point x="492" y="0" type="line"/>
      <point x="492" y="426" type="line" smooth="yes"/>
      <point x="492" y="550"/>
      <point x="405" y="586"/>
      <point x="294" y="586" type="curve" smooth="yes"/>
      <point x="130" y="586"/>
      <point x="97" y="514"/>
      <point x="89" y="410" type="curve"/>
      <point x="148" y="407" type="line"/>
      <point x="153" y="480"/>
      <point x="172" y="527"/>
      <point x="294" y="527" type="curve" smooth="yes"/>
      <point x="365" y="527"/>
      <point x="422" y="502"/>
      <point x="422" y="426" type="curve" smooth="yes"/>
      <point x="422" y="326" type="line"/>
      <point x="237" y="314" type="line" smooth="yes"/>
      <point x="97" y="305"/>
      <point x="64" y="255"/>
      <point x="64" y="145" type="curve" smooth="yes"/>
      <point x="64" y="46"/>
      <point x="102" y="-14"/>
    </contour>
    <contour>
      <point x="243" y="43" type="curve" smooth="yes"/>
      <point x="157" y="43"/>
      <point x="132" y="80"/>
      <point x="132" y="142" type="curve" smooth="yes"/>
      <point x="132" y="235"/>
      <point x="158" y="256"/>
      <point x="241" y="261" type="curve" smooth="yes"/>
      <point x="422" y="272" type="line"/>
      <point x="422" y="121" type="line"/>
      <point x="366" y="68"/>
      <point x="305" y="43"/>
    </contour>
    <contour>
      <point x="492" y="0" type="line"/>
      <point x="552" y="0" type="line"/>
      <point x="552" y="50" type="line"/>
      <point x="492" y="50" type="line"/>
    </contour>
  </outline>
</glyph>
<glyph name="c" format="1">
  <advance width="567"/>
  <unicode hex="0063"/>
  <outline>
    <contour>
      <point x="290" y="586" type="curve" smooth="yes"/>
      <point x="89" y="586"/>
      <point x="60" y="446"/>
      <point x="60" y="286" type="curve" smooth="yes"/>
      <point x="60" y="131"/>
      <point x="83" y="-14"/>
      <point x="295" y="-14" type="curve" smooth="yes"/>
      <point x="463" y="-14"/>
      <point x="496" y="58"/>
      <point x="504" y="162" type="curve"/>
      <point x="447" y="165" type="line"/>
      <point x="442" y="92"/>
      <point x="420" y="45"/>
      <point x="294" y="45" type="curve" smooth="yes"/>
      <point x="139" y="45"/>
      <point x="130" y="169"/>
      <point x="130" y="286" type="curve" smooth="yes"/>
      <point x="130" y="399"/>
      <point x="141" y="527"/>
      <point x="289" y="527" type="curve" smooth="yes"/>
      <point x="397" y="527"/>
      <point x="441" y="471"/>
      <point x="452" y="370" type="curve"/>
      <point x="485" y="370" type="line"/>
      <point x="484" y="494"/>
      <point x="425" y="586"/>
    </contour>
    <contour>
      <point x="447" y="572" type="line"/>
      <point x="452" y="370" type="line"/>
      <point x="498" y="370" type="line"/>
      <point x="498" y="572" type="line"/>
    </contour>
  </outline>
</glyph>
<glyph name="d" format="1">
  <advance width="636"/>
  <unicode hex="0064"/>
  <outline>
    <contour>
      <point x="275" y="-14" type="curve" smooth="yes"/>
      <point x="375" y="-14"/>
      <point x="458" y="52"/>
      <point x="492" y="100" type="curve"/>
      <point x="476" y="142" type="line"/>
      <point x="419" y="81"/>
      <point x="363" y="45"/>
      <point x="287" y="45" type="curve" smooth="yes"/>
      <point x="152" y="45"/>
      <point x="130" y="147"/>
      <point x="130" y="286" type="curve" smooth="yes"/>
      <point x="130" y="425"/>
      <point x="155" y="527"/>
      <point x="290" y="527" type="curve" smooth="yes"/>
      <point x="337" y="527"/>
      <point x="405" y="517"/>
      <point x="466" y="483" type="curve"/>
      <point x="488" y="529" type="line"/>
      <point x="432" y="561"/>
      <point x="355" y="586"/>
      <point x="280" y="586" type="curve" smooth="yes"/>
      <point x="82" y="586"/>
      <point x="60" y="441"/>
      <point x="60" y="286" type="curve" smooth="yes"/>
      <point x="60" y="131"/>
      <point x="82" y="-14"/>
    </contour>
    <contour>
      <point x="469" y="0" type="line"/>
      <point x="516" y="0" type="line"/>
      <point x="516" y="750" type="line"/>
      <point x="446" y="750" type="line"/>
      <point x="446" y="109" type="line"/>
      <point x="451" y="84" type="line"/>
    </contour>
    <contour>
      <point x="516" y="0" type="line"/>
      <point x="576" y="0" type="line"/>
      <point x="576" y="50" type="line"/>
      <point x="516" y="50" type="line"/>
    </contour>
    <contour>
      <point x="386" y="700" type="line"/>
      <point x="446" y="700" type="line"/>
      <point x="446" y="750" type="line"/>
      <point x="386" y="750" type="line"/>
    </contour>
  </outline>
</glyph>
<glyph name="f" format="1">
  <advance width="343"/>
  <unicode hex="0066"/>
  <outline>
    <contour>
      <point x="60" y="522" type="line"/>
      <point x="318" y="522" type="line"/>
      <point x="318" y="572" type="line"/>
      <point x="60" y="572" type="line"/>
    </contour>
    <contour>
      <point x="68" y="0" type="line"/>
      <point x="278" y="0" type="line"/>
      <point x="278" y="50" type="line"/>
      <point x="68" y="50" type="line"/>
    </contour>
    <contour>
      <point x="198" y="611" type="line" smooth="yes"/>
      <point x="198" y="671"/>
      <point x="208" y="695"/>
      <point x="267" y="700" type="curve" smooth="yes"/>
      <point x="328" y="705" type="line"/>
      <point x="328" y="755" type="line"/>
      <point x="267" y="755" type="line" smooth="yes"/>
      <point x="145" y="755"/>
      <point x="128" y="699"/>
      <point x="128" y="606" type="curve" smooth="yes"/>
      <point x="128" y="0" type="line"/>
      <point x="198" y="0" type="line"/>
    </contour>
  </outline>
</glyph>
<glyph name="h" format="1">
  <advance width="681"/>
  <unicode hex="0068"/>
  <outline>
    <contour>
      <point x="190" y="750" type="line"/>
      <point x="120" y="750" type="line"/>
      <point x="120" y="0" type="line"/>
      <point x="190" y="0" type="line"/>
    </contour>
    <contour>
      <point x="167" y="433" type="line"/>
      <point x="232" y="492"/>
      <point x="305" y="527"/>
      <point x="385" y="527" type="curve" smooth="yes"/>
      <point x="461" y="527"/>
      <point x="491" y="491"/>
      <point x="491" y="408" type="curve" smooth="yes"/>
      <point x="491" y="0" type="line"/>
      <point x="561" y="0" type="line"/>
      <point x="561" y="407" type="line" smooth="yes"/>
      <point x="561" y="528"/>
      <point x="515" y="586"/>
      <point x="396" y="586" type="curve" smooth="yes"/>
      <point x="296" y="586"/>
      <point x="202" y="530"/>
      <point x="153" y="482" type="curve"/>
    </contour>
    <contour>
      <point x="60" y="0" type="line"/>
      <point x="250" y="0" type="line"/>
      <point x="250" y="50" type="line"/>
      <point x="60" y="50" type="line"/>
    </contour>
    <contour>
      <point x="60" y="700" type="line"/>
      <point x="120" y="700" type="line"/>
      <point x="120" y="750" type="line"/>
      <point x="60" y="750" type="line"/>
    </contour>
    <contour>
      <point x="431" y="0" type="line"/>
      <point x="621" y="0" type="line"/>
      <point x="621" y="50" type="line"/>
      <point x="431" y="50" type="line"/>
    </contour>
  </outline>
</glyph>
<glyph name="j" format="1">
  <advance width="310"/>
  <unicode hex="006A"/>
  <outline>
    <contour>
      <point x="-10" y="-172" type="line"/>
      <point x="-10" y="-227" type="line"/>
      <point x="51" y="-227" type="line" smooth="yes"/>
      <point x="173" y="-227"/>
      <point x="190" y="-171"/>
      <point x="190" y="-78" type="curve" smooth="yes"/>
      <point x="190" y="572" type="line"/>
      <point x="120" y="572" type="line"/>
      <point x="120" y="-78" type="line" smooth="yes"/>
      <point x="120" y="-138"/>
      <point x="110" y="-162"/>
      <point x="51" y="-167" type="curve" smooth="yes"/>
    </contour>
    <contour>
      <point x="60" y="522" type="line"/>
      <point x="152" y="522" type="line"/>
      <point x="152" y="572" type="line"/>
      <point x="60" y="572" type="line"/>
    </contour>
    <contour>
      <point x="165" y="672" type="curve" smooth="yes"/>
      <point x="208" y="672"/>
      <point x="210" y="700"/>
      <point x="210" y="725" type="curve" smooth="yes"/>
      <point x="210" y="751"/>
      <point x="208" y="779"/>
      <point x="165" y="779" type="curve" smooth="yes"/>
      <point x="124" y="779"/>
      <point x="122" y="751"/>
      <point x="122" y="725" type="curve" smooth="yes"/>
      <point x="122" y="700"/>
      <point x="124" y="672"/>
    </contour>
  </outline>
</glyph>
<glyph name="l" format="1">
  <advance width="310"/>
  <unicode hex="006C"/>
  <outline>
    <contour>
      <point x="120" y="750" type="line"/>
      <point x="120" y="0" type="line"/>
      <point x="190" y="0" type="line"/>
      <point x="190" y="750" type="line"/>
    </contour>
    <contour>
      <point x="60" y="0" type="line"/>
      <point x="250" y="0" type="line"/>
      <point x="250" y="50" type="line"/>
      <point x="60" y="50" type="line"/>
    </contour>
    <contour>
      <point x="60" y="700" type="line"/>
      <point x="190" y="700" type="line"/>
      <point x="190" y="750" type="line"/>
      <point x="60" y="750" type="line"/>
    </contour>
  </outline>
</glyph>
<glyph name="m" format="1">
  <advance width="1022"/>
  <unicode hex="006D"/>
  <outline>
    <contour>
      <point x="177" y="433" type="line"/>
      <point x="239" y="498"/>
      <point x="300" y="527"/>
      <point x="374" y="527" type="curve" smooth="yes"/>
      <point x="452" y="527"/>
      <point x="481" y="483"/>
      <point x="481" y="408" type="curve" smooth="yes"/>
      <point x="481" y="0" type="line"/>
      <point x="551" y="0" type="line"/>
      <point x="551" y="408" type="line" smooth="yes"/>
      <point x="551" y="515"/>
      <point x="506" y="586"/>
      <point x="383" y="586" type="curve" smooth="yes"/>
      <point x="290" y="586"/>
      <point x="204" y="530"/>
      <point x="167" y="482" type="curve"/>
    </contour>
    <contour>
      <point x="528" y="433" type="line"/>
      <point x="590" y="498"/>
      <point x="651" y="527"/>
      <point x="725" y="527" type="curve" smooth="yes"/>
      <point x="803" y="527"/>
      <point x="832" y="483"/>
      <point x="832" y="408" type="curve" smooth="yes"/>
      <point x="832" y="0" type="line"/>
      <point x="902" y="0" type="line"/>
      <point x="902" y="408" type="line" smooth="yes"/>
      <point x="902" y="515"/>
      <point x="857" y="586"/>
      <point x="734" y="586" type="curve" smooth="yes"/>
      <point x="641" y="586"/>
      <point x="552" y="530"/>
      <point x="515" y="482" type="curve"/>
    </contour>
    <contour>
      <point x="177" y="572" type="line"/>
      <point x="130" y="572" type="line"/>
      <point x="130" y="0" type="line"/>
      <point x="200" y="0" type="line"/>
      <point x="200" y="487" type="line"/>
    </contour>
    <contour>
      <point x="70" y="0" type="line"/>
      <point x="260" y="0" type="line"/>
      <point x="260" y="50" type="line"/>
      <point x="70" y="50" type="line"/>
    </contour>
    <contour>
      <point x="70" y="522" type="line"/>
      <point x="130" y="522" type="line"/>
      <point x="130" y="572" type="line"/>
      <point x="70" y="572" type="line"/>
    </contour>
    <contour>
      <point x="772" y="0" type="line"/>
      <point x="962" y="0" type="line"/>
      <point x="962" y="50" type="line"/>
      <point x="772" y="50" type="line"/>
    </contour>
    <contour>
      <point x="421" y="0" type="line"/>
      <point x="611" y="0" type="line"/>
      <point x="611" y="50" type="line"/>
      <point x="421" y="50" type="line"/>
    </contour>
  </outline>
</glyph>
<glyph name="o" format="1">
  <advance width="608"/>
  <unicode hex="006F"/>
  <outline>
    <contour>
      <point x="304" y="45" type="curve" smooth="yes"/>
      <point x="139" y="45"/>
      <point x="130" y="167"/>
      <point x="130" y="286" type="curve" smooth="yes"/>
      <point x="130" y="405"/>
      <point x="139" y="527"/>
      <point x="304" y="527" type="curve" smooth="yes"/>
      <point x="469" y="527"/>
      <point x="478" y="405"/>
      <point x="478" y="286" type="curve" smooth="yes"/>
      <point x="478" y="167"/>
      <point x="469" y="45"/>
    </contour>
    <contour>
      <point x="304" y="-14" type="curve" smooth="yes"/>
      <point x="524" y="-14"/>
      <point x="548" y="131"/>
      <point x="548" y="286" type="curve" smooth="yes"/>
      <point x="548" y="441"/>
      <point x="524" y="586"/>
      <point x="304" y="586" type="curve" smooth="yes"/>
      <point x="84" y="586"/>
      <point x="60" y="441"/>
      <point x="60" y="286" type="curve" smooth="yes"/>
      <point x="60" y="131"/>
      <point x="84" y="-14"/>
    </contour>
  </outline>
</glyph>
<glyph name="r" format="1">
  <advance width="419"/>
  <unicode hex="0072"/>
  <outline>
    <contour>
      <point x="172" y="324" type="line"/>
      <point x="200" y="410"/>
      <point x="263" y="514"/>
      <point x="409" y="519" type="curve"/>
      <point x="409" y="586" type="line"/>
      <point x="243" y="580"/>
      <point x="192" y="459"/>
      <point x="157" y="375" type="curve"/>
    </contour>
    <contour>
      <point x="177" y="572" type="line"/>
      <point x="130" y="572" type="line"/>
      <point x="130" y="0" type="line"/>
      <point x="200" y="0" type="line"/>
      <point x="200" y="458" type="line"/>
    </contour>
    <contour>
      <point x="70" y="0" type="line"/>
      <point x="280" y="0" type="line"/>
      <point x="280" y="50" type="line"/>
      <point x="70" y="50" type="line"/>
    </contour>
    <contour>
      <point x="70" y="522" type="line"/>
      <point x="130" y="522" type="line"/>
      <point x="130" y="572" type="line"/>
      <point x="70" y="572" type="line"/>
    </contour>
  </outline>
</glyph>
<glyph name="s" format="1">
  <advance width="568"/>
  <unicode hex="0073"/>
  <outline>
    <contour>
      <point x="301" y="-14" type="curve" smooth="yes"/>
      <point x="446" y="-14"/>
      <point x="498" y="52"/>
      <point x="498" y="146" type="curve" smooth="yes"/>
      <point x="498" y="246"/>
      <point x="440" y="278"/>
      <point x="327" y="309" type="curve" smooth="yes"/>
      <point x="249" y="330" type="line" smooth="yes"/>
      <point x="173" y="350"/>
      <point x="143" y="373"/>
      <point x="143" y="429" type="curve" smooth="yes"/>
      <point x="143" y="482"/>
      <point x="174" y="527"/>
      <point x="261" y="527" type="curve" smooth="yes"/>
      <point x="372" y="527"/>
      <point x="418" y="506"/>
      <point x="430" y="370" type="curve"/>
      <point x="460" y="370" type="line"/>
      <point x="459" y="534"/>
      <point x="385" y="586"/>
      <point x="261" y="586" type="curve" smooth="yes"/>
      <point x="132" y="586"/>
      <point x="73" y="518"/>
      <point x="73" y="428" type="curve" smooth="yes"/>
      <point x="73" y="320"/>
      <point x="136" y="291"/>
      <point x="246" y="262" type="curve" smooth="yes"/>
      <point x="324" y="241" type="line" smooth="yes"/>
      <point x="403" y="220"/>
      <point x="428" y="193"/>
      <point x="428" y="146" type="curve" smooth="yes"/>
      <point x="428" y="79"/>
      <point x="384" y="45"/>
      <point x="292" y="45" type="curve" smooth="yes"/>
      <point x="188" y="45"/>
      <point x="132" y="101"/>
      <point x="121" y="202" type="curve"/>
      <point x="93" y="202" type="line"/>
      <point x="94" y="58"/>
      <point x="177" y="-14"/>
    </contour>
    <contour>
      <point x="126" y="0" type="line"/>
      <point x="121" y="202" type="line"/>
      <point x="75" y="202" type="line"/>
      <point x="75" y="0" type="line"/>
    </contour>
    <contour>
      <point x="425" y="572" type="line"/>
      <point x="431" y="370" type="line"/>
      <point x="476" y="370" type="line"/>
      <point x="476" y="572" type="line"/>
    </contour>
  </outline>
</glyph>
<glyph name="braceleft" format="1">
  <advance width="294"/>
  <unicode hex="007B"/>
  <outline>
    <contour>
      <point x="121" y="332" type="line"/>
      <point x="146" y="332"/>
      <point x="170" y="308"/>
      <point x="170" y="266" type="curve" smooth="yes"/>
      <point x="170" y="224"/>
      <point x="162" y="194"/>
      <point x="162" y="144" type="curve" smooth="yes"/>
      <point x="162" y="58"/>
      <point x="190" y="-4"/>
      <point x="289" y="-4" type="curve"/>
      <point x="289" y="-66" type="line"/>
      <point x="136" y="-66"/>
      <point x="88" y="24"/>
      <point x="88" y="137" type="curve" smooth="yes"/>
      <point x="88" y="183"/>
      <point x="96" y="221"/>
      <point x="96" y="261" type="curve" smooth="yes"/>
      <point x="96" y="301"/>
      <point x="49" y="310"/>
      <point x="21" y="310" type="curve"/>
      <point x="21" y="360" type="line"/>
      <point x="49" y="360"/>
      <point x="96" y="369"/>
      <point x="96" y="409" type="curve" smooth="yes"/>
      <point x="96" y="449"/>
      <point x="88" y="487"/>
      <point x="88" y="533" type="curve" smooth="yes"/>
      <point x="88" y="646"/>
      <point x="136" y="736"/>
      <point x="289" y="736" type="curve"/>
      <point x="289" y="674" type="line"/>
      <point x="190" y="674"/>
      <point x="162" y="612"/>
      <point x="162" y="526" type="curve" smooth="yes"/>
      <point x="162" y="476"/>
      <point x="170" y="446"/>
      <point x="170" y="404" type="curve" smooth="yes"/>
      <point x="170" y="362"/>
      <point x="146" y="338"/>
      <point x="121" y="338" type="curve"/>
    </contour>
  </outline>
</glyph>
<glyph name="bar" format="1">
  <advance width="321"/>
  <unicode hex="007C"/>
  <outline>
    <contour>
      <point x="120" y="-106" type="line"/>
      <point x="201" y="-106" type="line"/>
      <point x="201" y="775" type="line"/>
      <point x="120" y="775" type="line"/>
    </contour>
  </outline>
</glyph>
<glyph name="asciitilde" format="1">
  <advance width="580"/>
  <unicode hex="007E"/>
  <outline>
    <contour>
      <point x="94" y="288" type="line"/>
      <point x="121" y="272"/>
      <point x="148" y="266"/>
      <point x="176" y="266" type="curve" smooth="yes"/>
      <point x="251" y="266"/>
      <point x="328" y="309"/>
      <point x="404" y="309" type="curve" smooth="yes"/>
      <point x="432" y="309"/>
      <point x="459" y="303"/>
      <point x="486" y="288" type="curve"/>
      <point x="486" y="348" type="line"/>
      <point x="459" y="362"/>
      <point x="431" y="367"/>
      <point x="404" y="367" type="curve" smooth="yes"/>
      <point x="328" y="367"/>
      <point x="251" y="324"/>
      <point x="176" y="324" type="curve" smooth="yes"/>
      <point x="148" y="324"/>
      <point x="121" y="329"/>
      <point x="94" y="348" type="curve"/>
    </contour>
  </outline>
</glyph>
<glyph name="cent" format="1">
  <advance width="580"/>
  <unicode hex="00A2"/>
  <outline>
    <contour>
      <point x="313" y="35" type="curve" smooth="yes"/>
      <point x="477" y="35"/>
      <point x="518" y="107"/>
      <point x="526" y="211" type="curve"/>
      <point x="469" y="214" type="line"/>
      <point x="466" y="141"/>
      <point x="436" y="94"/>
      <point x="314" y="94" type="curve" smooth="yes"/>
      <point x="168" y="94"/>
      <point x="154" y="208"/>
      <point x="154" y="335" type="curve" smooth="yes"/>
      <point x="154" y="462"/>
      <point x="163" y="576"/>
      <point x="328" y="576" type="curve" smooth="yes"/>
      <point x="430" y="576"/>
      <point x="458" y="516"/>
      <point x="462" y="443" type="curve"/>
      <point x="519" y="446" type="line"/>
      <point x="511" y="550"/>
      <point x="473" y="635"/>
      <point x="328" y="635" type="curve" smooth="yes"/>
      <point x="108" y="635"/>
      <point x="84" y="490"/>
      <point x="84" y="335" type="curve" smooth="yes"/>
      <point x="84" y="180"/>
      <point x="111" y="35"/>
    </contour>
    <contour>
      <point x="293" y="-74" type="line"/>
      <point x="343" y="-74" type="line"/>
      <point x="343" y="744" type="line"/>
      <point x="293" y="744" type="line"/>
    </contour>
  </outline>
</glyph>
<glyph name="section" format="1">
  <advance width="576"/>
  <unicode hex="00A7"/>
  <outline>
    <contour>
      <point x="512" y="241" type="curve" smooth="yes"/>
      <point x="512" y="344"/>
      <point x="461" y="391"/>
      <point x="338" y="416" type="curve" smooth="yes"/>
      <point x="246" y="435" type="line" smooth="yes"/>
      <point x="177" y="449"/>
      <point x="153" y="490"/>
      <point x="153" y="549" type="curve" smooth="yes"/>
      <point x="153" y="634"/>
      <point x="183" y="685"/>
      <point x="293" y="685" type="curve" smooth="yes"/>
      <point x="403" y="685"/>
      <point x="440" y="637"/>
      <point x="440" y="547" type="curve"/>
      <point x="502" y="551" type="line"/>
      <point x="502" y="672"/>
      <point x="448" y="744"/>
      <point x="291" y="744" type="curve" smooth="yes"/>
      <point x="134" y="744"/>
      <point x="83" y="672"/>
      <point x="83" y="549" type="curve" smooth="yes"/>
      <point x="83" y="488"/>
      <point x="99" y="443"/>
      <point x="136" y="412" type="curve"/>
      <point x="97" y="378"/>
      <point x="83" y="327"/>
      <point x="83" y="261" type="curve" smooth="yes"/>
      <point x="83" y="158"/>
      <point x="129" y="110"/>
      <point x="246" y="86" type="curve" smooth="yes"/>
      <point x="338" y="67" type="line" smooth="yes"/>
      <point x="412" y="52"/>
      <point x="442" y="13"/>
      <point x="442" y="-47" type="curve" smooth="yes"/>
      <point x="442" y="-132"/>
      <point x="410" y="-183"/>
      <point x="292" y="-183" type="curve" smooth="yes"/>
      <point x="174" y="-183"/>
      <point x="135" y="-133"/>
      <point x="135" y="-43" type="curve"/>
      <point x="73" y="-47" type="line"/>
      <point x="73" y="-168"/>
      <point x="127" y="-242"/>
      <point x="292" y="-242" type="curve" smooth="yes"/>
      <point x="458" y="-242"/>
      <point x="512" y="-164"/>
      <point x="512" y="-47" type="curve" smooth="yes"/>
      <point x="512" y="14"/>
      <point x="494" y="59"/>
      <point x="454" y="90" type="curve"/>
      <point x="496" y="124"/>
      <point x="512" y="177"/>
    </contour>
    <contour>
      <point x="346" y="353" type="line" smooth="yes"/>
      <point x="414" y="339"/>
      <point x="439" y="299"/>
      <point x="439" y="239" type="curve" smooth="yes"/>
      <point x="439" y="185"/>
      <point x="427" y="139"/>
      <point x="389" y="117" type="curve"/>
      <point x="254" y="145" type="line" smooth="yes"/>
      <point x="178" y="161"/>
      <point x="153" y="201"/>
      <point x="153" y="261" type="curve" smooth="yes"/>
      <point x="153" y="315"/>
      <point x="165" y="361"/>
      <point x="203" y="383" type="curve"/>
    </contour>
  </outline>
</glyph>
<glyph name="dieresis" format="1">
  <advance width="308"/>
  <unicode hex="00A8"/>
  <outline>
    <contour>
      <point x="48" y="672" type="curve" smooth="yes"/>
      <point x="7" y="672"/>
      <point x="5" y="700"/>
      <point x="5" y="725" type="curve" smooth="yes"/>
      <point x="5" y="751"/>
      <point x="7" y="779"/>
      <point x="48" y="779" type="curve" smooth="yes"/>
      <point x="91" y="779"/>
      <point x="93" y="751"/>
      <point x="93" y="725" type="curve" smooth="yes"/>
      <point x="93" y="700"/>
      <point x="91" y="672"/>
    </contour>
    <contour>
      <point x="258" y="672" type="curve" smooth="yes"/>
      <point x="217" y="672"/>
      <point x="215" y="700"/>
      <point x="215" y="725" type="curve" smooth="yes"/>
      <point x="215" y="751"/>
      <point x="217" y="779"/>
      <point x="258" y="779" type="curve" smooth="yes"/>
      <point x="301" y="779"/>
      <point x="303" y="751"/>
      <point x="303" y="725" type="curve" smooth="yes"/>
      <point x="303" y="700"/>
      <point x="301" y="672"/>
    </contour>
  </outline>
</glyph>
<glyph name="macron" format="1">
  <advance width="354"/>
  <unicode hex="00AF"/>
  <outline>
    <contour>
      <point x="50" y="694" type="line"/>
      <point x="304" y="694" type="line"/>
      <point x="304" y="759" type="line"/>
      <point x="50" y="759" type="line"/>
    </contour>
  </outline>
</glyph>
<glyph name="degree" format="1">
  <advance width="425"/>
  <unicode hex="00B0"/>
  <outline>
    <contour>
      <point x="212" y="391" type="curve" smooth="yes"/>
      <point x="116" y="391"/>
      <point x="111" y="456"/>
      <point x="111" y="525" type="curve" smooth="yes"/>
      <point x="111" y="594"/>
      <point x="116" y="659"/>
      <point x="212" y="659" type="curve" smooth="yes"/>
      <point x="308" y="659"/>
      <point x="313" y="594"/>
      <point x="313" y="525" type="curve" smooth="yes"/>
      <point x="313" y="456"/>
      <point x="308" y="391"/>
    </contour>
    <contour>
      <point x="212" y="340" type="curve" smooth="yes"/>
      <point x="361" y="340"/>
      <point x="377" y="430"/>
      <point x="377" y="525" type="curve" smooth="yes"/>
      <point x="377" y="621"/>
      <point x="361" y="710"/>
      <point x="212" y="710" type="curve" smooth="yes"/>
      <point x="64" y="710"/>
      <point x="48" y="621"/>
      <point x="48" y="525" type="curve" smooth="yes"/>
      <point x="48" y="430"/>
      <point x="64" y="340"/>
    </contour>
  </outline>
</glyph>
<glyph name="cedilla" format="1">
  <advance width="299"/>
  <unicode hex="00B8"/>
  <outline>
    <contour>
      <point x="50" y="-146" type="line"/>
      <point x="50" y="-204"/>
      <point x="70" y="-241"/>
      <point x="149" y="-241" type="curve" smooth="yes"/>
      <point x="229" y="-241"/>
      <point x="249" y="-204"/>
      <point x="249" y="-145" type="curve" smooth="yes"/>
      <point x="249" y="-69"/>
      <point x="207" y="-55"/>
      <point x="141" y="-55" type="curve" smooth="yes"/>
      <point x="99" y="-55" type="line"/>
      <point x="93" y="-86" type="line"/>
      <point x="147" y="-96" type="line" smooth="yes"/>
      <point x="183" y="-103"/>
      <point x="194" y="-114"/>
      <point x="194" y="-146" type="curve" smooth="yes"/>
      <point x="194" y="-173"/>
      <point x="191" y="-191"/>
      <point x="152" y="-191" type="curve" smooth="yes"/>
      <point x="113" y="-191"/>
      <point x="110" y="-173"/>
      <point x="110" y="-146" type="curve"/>
    </contour>
    <contour>
      <point x="142" y="-86" type="line"/>
      <point x="157" y="0" type="line"/>
      <point x="108" y="0" type="line"/>
      <point x="93" y="-86" type="line"/>
    </contour>
  </outline>
</glyph>
<glyph name="Eth" format="1">
  <advance width="688"/>
  <unicode hex="00D0"/>
  <outline>
    <contour>
      <point x="130" y="730" type="line"/>
      <point x="130" y="0" type="line"/>
      <point x="202" y="0" type="line"/>
      <point x="202" y="730" type="line"/>
    </contour>
    <contour>
      <point x="202" y="730" type="line"/>
      <point x="202" y="668" type="line"/>
      <point x="345" y="668" type="line" smooth="yes"/>
      <point x="535" y="668"/>
      <point x="556" y="553"/>
      <point x="556" y="365" type="curve" smooth="yes"/>
      <point x="556" y="177"/>
      <point x="535" y="62"/>
      <point x="345" y="62" type="curve" smooth="yes"/>
      <point x="202" y="62" type="line"/>
      <point x="202" y="0" type="line"/>
      <point x="345" y="0" type="line" smooth="yes"/>
      <point x="600" y="0"/>
      <point x="628" y="137"/>
      <point x="628" y="365" type="curve" smooth="yes"/>
      <point x="628" y="591"/>
      <point x="600" y="730"/>
      <point x="345" y="730" type="curve" smooth="yes"/>
    </contour>
    <contour>
      <point x="70" y="674" type="line"/>
      <point x="170" y="674" type="line"/>
      <point x="170" y="730" type="line"/>
      <point x="70" y="730" type="line"/>
    </contour>
    <contour>
      <point x="70" y="0" type="line"/>
      <point x="170" y="0" type="line"/>
      <point x="170" y="56" type="line"/>
      <point x="70" y="56" type="line"/>
    </contour>
    <component base="hyphen" yOffset="47"/>
  </outline>
</glyph>
<glyph name="eth" format="1">
  <advance width="608"/>
  <unicode hex="00F0"/>
  <outline>
    <contour>
      <point x="304" y="45" type="curve" smooth="yes"/>
      <point x="139" y="45"/>
      <point x="130" y="147"/>
      <point x="130" y="246" type="curve" smooth="yes"/>
      <point x="130" y="345"/>
      <point x="139" y="447"/>
      <point x="304" y="447" type="curve" smooth="yes"/>
      <point x="469" y="447"/>
      <point x="478" y="345"/>
      <point x="478" y="246" type="curve" smooth="yes"/>
      <point x="478" y="147"/>
      <point x="469" y="45"/>
    </contour>
    <contour>
      <point x="304" y="-14" type="curve" smooth="yes"/>
      <point x="524" y="-14"/>
      <point x="548" y="111"/>
      <point x="548" y="246" type="curve" smooth="yes"/>
      <point x="548" y="296"/>
      <point x="545" y="343"/>
      <point x="530" y="384" type="curve" smooth="yes"/>
      <point x="527" y="393"/>
      <point x="503" y="383"/>
      <point x="498" y="391" type="curve" smooth="yes"/>
      <point x="467" y="448"/>
      <point x="425" y="506"/>
      <point x="304" y="506" type="curve" smooth="yes"/>
      <point x="84" y="506"/>
      <point x="60" y="381"/>
      <point x="60" y="246" type="curve" smooth="yes"/>
      <point x="60" y="111"/>
      <point x="84" y="-14"/>
    </contour>
    <contour>
      <point x="298" y="723" type="line"/>
      <point x="391" y="639"/>
      <point x="481" y="509"/>
      <point x="481" y="277" type="curve"/>
      <point x="548" y="267" type="line"/>
      <point x="548" y="565"/>
      <point x="414" y="694"/>
      <point x="333" y="764" type="curve"/>
    </contour>
    <component base="eslash" xOffset="246" yOffset="280"/>
  </outline>
</glyph>
<glyph name="divide" format="1">
  <advance width="580"/>
  <unicode hex="00F7"/>
  <outline>
    <contour>
      <point x="94" y="288" type="line"/>
      <point x="486" y="288" type="line"/>
      <point x="486" y="348" type="line"/>
      <point x="94" y="348" type="line"/>
    </contour>
    <contour>
      <point x="289" y="91" type="curve" smooth="yes"/>
      <point x="245" y="91"/>
      <point x="242" y="122"/>
      <point x="242" y="149" type="curve" smooth="yes"/>
      <point x="242" y="177"/>
      <point x="245" y="208"/>
      <point x="289" y="208" type="curve" smooth="yes"/>
      <point x="335" y="208"/>
      <point x="338" y="177"/>
      <point x="338" y="149" type="curve" smooth="yes"/>
      <point x="338" y="122"/>
      <point x="335" y="91"/>
    </contour>
    <contour>
      <point x="289" y="418" type="curve" smooth="yes"/>
      <point x="245" y="418"/>
      <point x="242" y="449"/>
      <point x="242" y="476" type="curve" smooth="yes"/>
      <point x="242" y="504"/>
      <point x="245" y="535"/>
      <point x="289" y="535" type="curve" smooth="yes"/>
      <point x="335" y="535"/>
      <point x="338" y="504"/>
      <point x="338" y="476" type="curve" smooth="yes"/>
      <point x="338" y="449"/>
      <point x="335" y="418"/>
    </contour>
  </outline>
</glyph>
<glyph name="thorn" format="1">
  <advance width="636"/>
  <unicode hex="00FE"/>
  <outline>
    <contour>
      <point x="170" y="750" type="line"/>
      <point x="100" y="750" type="line"/>
      <point x="100" y="-227" type="line"/>
      <point x="170" y="-227" type="line"/>
    </contour>
    <contour>
      <point x="40" y="-227" type="line"/>
      <point x="250" y="-227" type="line"/>
      <point x="250" y="-171" type="line"/>
      <point x="40" y="-171" type="line"/>
    </contour>
    <contour>
      <point x="40" y="694" type="line"/>
      <point x="132" y="694" type="line"/>
      <point x="132" y="750" type="line"/>
      <point x="40" y="750" type="line"/>
    </contour>
    <contour>
      <point x="337" y="522" type="curve" smooth="yes"/>
      <point x="472" y="522"/>
      <point x="487" y="403"/>
      <point x="487" y="286" type="curve" smooth="yes"/>
      <point x="487" y="152"/>
      <point x="472" y="50"/>
      <point x="337" y="50" type="curve" smooth="yes"/>
      <point x="290" y="50"/>
      <point x="221" y="55"/>
      <point x="151" y="92" type="curve"/>
      <point x="131" y="43" type="line"/>
      <point x="181" y="16"/>
      <point x="250" y="-14"/>
      <point x="337" y="-14" type="curve" smooth="yes"/>
      <point x="535" y="-14"/>
      <point x="557" y="131"/>
      <point x="557" y="286" type="curve" smooth="yes"/>
      <point x="557" y="441"/>
      <point x="535" y="586"/>
      <point x="337" y="586" type="curve" smooth="yes"/>
      <point x="252" y="586"/>
      <point x="169" y="530"/>
      <point x="135" y="482" type="curve"/>
      <point x="151" y="433" type="line"/>
      <point x="208" y="493"/>
      <point x="270" y="522"/>
    </contour>
  </outline>
</glyph>
<glyph name="dotlessi" format="1">
  <advance width="320"/>
  <unicode hex="0131"/>
  <outline>
    <contour>
      <point x="130" y="572" type="line"/>
      <point x="130" y="0" type="line"/>
      <point x="200" y="0" type="line"/>
      <point x="200" y="572" type="line"/>
    </contour>
    <contour>
      <point x="70" y="0" type="line"/>
      <point x="260" y="0" type="line"/>
      <point x="260" y="50" type="line"/>
      <point x="70" y="50" type="line"/>
    </contour>
    <contour>
      <point x="70" y="522" type="line"/>
      <point x="162" y="522" type="line"/>
      <point x="162" y="572" type="line"/>
      <point x="70" y="572" type="line"/>
    </contour>
  </outline>
</glyph>
<glyph name="Eng" format="1">
  <advance width="770"/>
  <unicode hex="014A"/>
  <outline>
    <contour>
      <point x="450" y="-172" type="line"/>
      <point x="450" y="-227" type="line"/>
      <point x="511" y="-227" type="line" smooth="yes"/>
      <point x="633" y="-227"/>
      <point x="650" y="-171"/>
      <point x="650" y="-78" type="curve" smooth="yes"/>
      <point x="650" y="0" type="line"/>
      <point x="580" y="0" type="line"/>
      <point x="580" y="-78" type="line" smooth="yes"/>
      <point x="580" y="-138"/>
      <point x="570" y="-162"/>
      <point x="511" y="-167" type="curve" smooth="yes"/>
    </contour>
    <contour>
      <point x="130" y="730" type="line"/>
      <point x="130" y="0" type="line"/>
      <point x="202" y="0" type="line"/>
      <point x="202" y="730" type="line"/>
    </contour>
    <contour>
      <point x="578" y="730" type="line"/>
      <point x="578" y="0" type="line"/>
      <point x="650" y="0" type="line"/>
      <point x="650" y="730" type="line"/>
    </contour>
    <contour>
      <point x="130" y="730" type="line"/>
      <point x="596" y="-44" type="line"/>
      <point x="650" y="0" type="line"/>
      <point x="210" y="730" type="line"/>
    </contour>
    <contour>
      <point x="70" y="0" type="line"/>
      <point x="262" y="0" type="line"/>
      <point x="262" y="50" type="line"/>
      <point x="70" y="50" type="line"/>
    </contour>
    <contour>
      <point x="70" y="680" type="line"/>
      <point x="170" y="680" type="line"/>
      <point x="170" y="730" type="line"/>
      <point x="70" y="730" type="line"/>
    </contour>
    <contour>
      <point x="518" y="680" type="line"/>
      <point x="710" y="680" type="line"/>
      <point x="710" y="730" type="line"/>
      <point x="518" y="730" type="line"/>
    </contour>
  </outline>
</glyph>
<glyph name="oe" format="1">
  <advance width="987"/>
  <unicode hex="0153"/>
  <outline>
    <contour>
      <point x="698" y="-14" type="curve" smooth="yes"/>
      <point x="875" y="-14"/>
      <point x="908" y="76"/>
      <point x="918" y="177" type="curve"/>
      <point x="860" y="180" type="line"/>
      <point x="853" y="103"/>
      <point x="827" y="45"/>
      <point x="696" y="45" type="curve" smooth="yes"/>
      <point x="558" y="45"/>
      <point x="530" y="117"/>
      <point x="529" y="270" type="curve"/>
      <point x="927" y="270" type="line"/>
      <point x="927" y="286" type="line" smooth="yes"/>
      <point x="927" y="441"/>
      <point x="904" y="586"/>
      <point x="694" y="586" type="curve" smooth="yes"/>
      <point x="594" y="586"/>
      <point x="536" y="553"/>
      <point x="503" y="503" type="curve"/>
      <point x="468" y="553"/>
      <point x="408" y="586"/>
      <point x="304" y="586" type="curve" smooth="yes"/>
      <point x="84" y="586"/>
      <point x="60" y="441"/>
      <point x="60" y="286" type="curve" smooth="yes"/>
      <point x="60" y="131"/>
      <point x="84" y="-14"/>
      <point x="304" y="-14" type="curve" smooth="yes"/>
      <point x="407" y="-14"/>
      <point x="467" y="17"/>
      <point x="501" y="67" type="curve"/>
      <point x="536" y="14"/>
      <point x="597" y="-14"/>
    </contour>
    <contour>
      <point x="304" y="45" type="curve" smooth="yes"/>
      <point x="139" y="45"/>
      <point x="130" y="167"/>
      <point x="130" y="286" type="curve" smooth="yes"/>
      <point x="130" y="405"/>
      <point x="139" y="527"/>
      <point x="304" y="527" type="curve" smooth="yes"/>
      <point x="410" y="527"/>
      <point x="461" y="476"/>
      <point x="468" y="409" type="curve"/>
      <point x="461" y="370"/>
      <point x="459" y="328"/>
      <point x="459" y="286" type="curve" smooth="yes"/>
      <point x="459" y="239"/>
      <point x="461" y="198"/>
      <point x="467" y="162" type="curve"/>
      <point x="461" y="95"/>
      <point x="409" y="45"/>
    </contour>
    <contour>
      <point x="693" y="527" type="curve" smooth="yes"/>
      <point x="834" y="527"/>
      <point x="854" y="436"/>
      <point x="856" y="325" type="curve"/>
      <point x="529" y="325" type="line"/>
      <point x="532" y="430"/>
      <point x="553" y="527"/>
    </contour>
  </outline>
</glyph>
<glyph name="florin" format="1">
  <advance width="580"/>
  <unicode hex="0192"/>
  <outline>
    <contour>
      <point x="114" y="291" type="line"/>
      <point x="461" y="291" type="line"/>
      <point x="461" y="341" type="line"/>
      <point x="114" y="341" type="line"/>
    </contour>
    <contour>
      <point x="514" y="655" type="line"/>
      <point x="484" y="673"/>
      <point x="444" y="684"/>
      <point x="402" y="684" type="curve" smooth="yes"/>
      <point x="285" y="684"/>
      <point x="230" y="619"/>
      <point x="230" y="479" type="curve" smooth="yes"/>
      <point x="230" y="-6" type="line" smooth="yes"/>
      <point x="230" y="-103"/>
      <point x="202" y="-138"/>
      <point x="122" y="-138" type="curve"/>
      <point x="126" y="-200" type="line"/>
      <point x="265" y="-200"/>
      <point x="302" y="-136"/>
      <point x="302" y="-6" type="curve" smooth="yes"/>
      <point x="302" y="479" type="line" smooth="yes"/>
      <point x="302" y="585"/>
      <point x="344" y="625"/>
      <point x="402" y="625" type="curve" smooth="yes"/>
      <point x="436" y="625"/>
      <point x="465" y="618"/>
      <point x="490" y="603" type="curve"/>
    </contour>
  </outline>
</glyph>
<glyph name="apostrophe" format="1">
  <advance width="307"/>
  <unicode hex="02BC"/>
  <outline>
    <contour>
      <point x="121" y="779" type="curve" smooth="yes"/>
      <point x="121" y="754"/>
      <point x="133" y="734"/>
      <point x="133" y="715" type="curve" smooth="yes"/>
      <point x="133" y="672"/>
      <point x="115" y="655"/>
      <point x="94" y="636" type="curve"/>
      <point x="117" y="609" type="line"/>
      <point x="142" y="630"/>
      <point x="217" y="684"/>
      <point x="217" y="779" type="curve" smooth="yes"/>
      <point x="217" y="807"/>
      <point x="214" y="838"/>
      <point x="168" y="838" type="curve" smooth="yes"/>
      <point x="124" y="838"/>
      <point x="121" y="807"/>
    </contour>
  </outline>
</glyph>
<glyph name="breve" format="1">
  <advance width="425"/>
  <unicode hex="02D8"/>
  <outline>
    <contour>
      <point x="338" y="779" type="line"/>
      <point x="338" y="710"/>
      <point x="325" y="644"/>
      <point x="212" y="644" type="curve" smooth="yes"/>
      <point x="100" y="644"/>
      <point x="87" y="710"/>
      <point x="87" y="779" type="curve"/>
      <point x="142" y="779" type="line"/>
      <point x="142" y="741"/>
      <point x="146" y="705"/>
      <point x="212" y="705" type="curve" smooth="yes"/>
      <point x="278" y="705"/>
      <point x="282" y="741"/>
      <point x="282" y="779" type="curve"/>
    </contour>
  </outline>
</glyph>
<glyph name="ring" format="1">
  <advance width="274"/>
  <unicode hex="02DA"/>
  <outline>
    <contour>
      <point x="144" y="671" type="curve" smooth="yes"/>
      <point x="104" y="671"/>
      <point x="102" y="700"/>
      <point x="102" y="725" type="curve" smooth="yes"/>
      <point x="102" y="751"/>
      <point x="104" y="780"/>
      <point x="144" y="780" type="curve" smooth="yes"/>
      <point x="186" y="780"/>
      <point x="188" y="751"/>
      <point x="188" y="725" type="curve" smooth="yes"/>
      <point x="188" y="700"/>
      <point x="186" y="671"/>
    </contour>
    <contour>
      <point x="144" y="628" type="curve" smooth="yes"/>
      <point x="235" y="628"/>
      <point x="240" y="679"/>
      <point x="240" y="725" type="curve" smooth="yes"/>
      <point x="240" y="771"/>
      <point x="235" y="823"/>
      <point x="144" y="823" type="curve" smooth="yes"/>
      <point x="55" y="823"/>
      <point x="50" y="771"/>
      <point x="50" y="725" type="curve" smooth="yes"/>
      <point x="50" y="679"/>
      <point x="55" y="628"/>
    </contour>
  </outline>
</glyph>
<glyph name="ogonek" format="1">
  <advance width="332"/>
  <unicode hex="02DB"/>
  <outline>
    <contour>
      <point x="240" y="-112" type="line"/>
      <point x="224" y="-149"/>
      <point x="191" y="-174"/>
      <point x="158" y="-174" type="curve" smooth="yes"/>
      <point x="125" y="-174"/>
      <point x="108" y="-154"/>
      <point x="108" y="-123" type="curve" smooth="yes"/>
      <point x="108" y="-95"/>
      <point x="115" y="-78"/>
      <point x="160" y="-51" type="curve" smooth="yes"/>
      <point x="243" y="0" type="line"/>
      <point x="225" y="32" type="line"/>
      <point x="132" y="-15" type="line" smooth="yes"/>
      <point x="69" y="-47"/>
      <point x="50" y="-82"/>
      <point x="50" y="-128" type="curve" smooth="yes"/>
      <point x="50" y="-193"/>
      <point x="85" y="-227"/>
      <point x="153" y="-227" type="curve" smooth="yes"/>
      <point x="207" y="-227"/>
      <point x="257" y="-191"/>
      <point x="282" y="-140" type="curve"/>
    </contour>
  </outline>
</glyph>
<glyph name="hungarumlaut" format="1">
  <advance width="547"/>
  <unicode hex="02DD"/>
  <outline>
    <contour>
      <point x="92" y="624" type="line"/>
      <point x="264" y="774" type="line"/>
      <point x="211" y="827" type="line"/>
      <point x="50" y="666" type="line"/>
    </contour>
    <contour>
      <point x="325" y="624" type="line"/>
      <point x="497" y="774" type="line"/>
      <point x="444" y="827" type="line"/>
      <point x="283" y="666" type="line"/>
    </contour>
  </outline>
</glyph>
<glyph name="uni03BC" format="1">
  <advance width="641"/>
  <unicode hex="03BC"/>
  <outline>
    <contour>
      <point x="158" y="164" type="line"/>
      <point x="203" y="116"/>
      <point x="283" y="45"/>
      <point x="392" y="45" type="curve" smooth="yes"/>
      <point x="477" y="45"/>
      <point x="506" y="79"/>
      <point x="506" y="164" type="curve" smooth="yes"/>
      <point x="506" y="572" type="line"/>
      <point x="576" y="572" type="line"/>
      <point x="576" y="163" type="line" smooth="yes"/>
      <point x="576" y="44"/>
      <point x="536" y="-14"/>
      <point x="407" y="-14" type="curve" smooth="yes"/>
      <point x="293" y="-14"/>
      <point x="190" y="62"/>
      <point x="148" y="110" type="curve"/>
    </contour>
    <contour>
      <point x="120" y="-227" type="line"/>
      <point x="120" y="572" type="line"/>
      <point x="190" y="572" type="line"/>
      <point x="190" y="-227" type="line"/>
    </contour>
  </outline>
</glyph>
<glyph name="adeva" format="1">
  <advance width="836"/>
  <unicode hex="0905"/>
  <outline>
    <contour>
      <point x="686" y="730" type="move" name="DVAnchor3"/>
    </contour>
    <contour>
      <point x="261" y="46" type="curve" smooth="yes"/>
      <point x="403" y="46"/>
      <point x="477" y="111"/>
      <point x="477" y="227" type="curve" smooth="yes"/>
      <point x="477" y="351"/>
      <point x="386" y="409"/>
      <point x="281" y="409" type="curve" smooth="yes"/>
      <point x="193" y="409" type="line"/>
      <point x="193" y="365" type="line"/>
      <point x="269" y="365" type="line" smooth="yes"/>
      <point x="371" y="365"/>
      <point x="407" y="304"/>
      <point x="407" y="226" type="curve" smooth="yes"/>
      <point x="407" y="150"/>
      <point x="362" y="105"/>
      <point x="261" y="104" type="curve" smooth="yes"/>
      <point x="160" y="105"/>
      <point x="106" y="149"/>
      <point x="97" y="256" type="curve"/>
      <point x="35" y="231" type="line"/>
      <point x="52" y="104"/>
      <point x="125" y="46"/>
    </contour>
    <contour>
      <point x="193" y="375" type="line"/>
      <point x="270" y="375" type="line" smooth="yes"/>
      <point x="375" y="375"/>
      <point x="468" y="443"/>
      <point x="468" y="550" type="curve" smooth="yes"/>
      <point x="468" y="668"/>
      <point x="413" y="744"/>
      <point x="251" y="744" type="curve" smooth="yes"/>
      <point x="104" y="744"/>
      <point x="49" y="668"/>
      <point x="49" y="550" type="curve"/>
      <point x="111" y="550" type="line"/>
      <point x="111" y="631"/>
      <point x="147" y="685"/>
      <point x="251" y="685" type="curve" smooth="yes"/>
      <point x="366" y="685"/>
      <point x="398" y="632"/>
      <point x="398" y="551" type="curve" smooth="yes"/>
      <point x="398" y="477"/>
      <point x="352" y="419"/>
      <point x="270" y="419" type="curve" smooth="yes"/>
      <point x="193" y="419" type="line"/>
    </contour>
    <contour>
      <point x="721" y="0" type="line"/>
      <point x="721" y="680" type="line"/>
      <point x="846" y="680" type="line"/>
      <point x="846" y="730" type="line"/>
      <point x="526" y="730" type="line"/>
      <point x="526" y="680" type="line"/>
      <point x="651" y="680" type="line"/>
      <point x="651" y="0" type="line"/>
    </contour>
    <contour>
      <point x="293" y="365" type="line"/>
      <point x="425" y="365"/>
      <point x="525" y="247"/>
      <point x="651" y="360" type="curve"/>
      <point x="651" y="399" type="line"/>
      <point x="525" y="296"/>
      <point x="425" y="409"/>
      <point x="293" y="409" type="curve"/>
    </contour>
  </outline>
</glyph>
<glyph name="iideva" format="1">
  <advance width="610"/>
  <unicode hex="0908"/>
  <outline>
    <contour>
      <point x="584" y="634" type="move" name="DVAnchor3"/>
    </contour>
    <component base="ideva"/>
    <component base="radeva_viramadeva" xOffset="602"/>
  </outline>
</glyph>
<glyph name="udeva" format="1">
  <advance width="591"/>
  <unicode hex="0909"/>
  <outline>
    <contour>
      <point x="350" y="730" type="move" name="DVAnchor3"/>
    </contour>
    <contour>
      <point x="292" y="680" type="line" smooth="yes"/>
      <point x="407" y="680"/>
      <point x="439" y="625"/>
      <point x="439" y="544" type="curve" smooth="yes"/>
      <point x="439" y="470"/>
      <point x="393" y="414"/>
      <point x="311" y="414" type="curve" smooth="yes"/>
      <point x="234" y="414" type="line"/>
      <point x="234" y="370" type="line"/>
      <point x="311" y="370" type="line" smooth="yes"/>
      <point x="416" y="370"/>
      <point x="509" y="438"/>
      <point x="509" y="545" type="curve" smooth="yes"/>
      <point x="509" y="649"/>
      <point x="454" y="718"/>
      <point x="292" y="718" type="curve"/>
    </contour>
    <contour>
      <point x="51" y="252" type="line"/>
      <point x="69" y="112"/>
      <point x="151" y="41"/>
      <point x="302" y="41" type="curve" smooth="yes"/>
      <point x="444" y="41"/>
      <point x="518" y="106"/>
      <point x="518" y="222" type="curve" smooth="yes"/>
      <point x="518" y="346"/>
      <point x="427" y="404"/>
      <point x="322" y="404" type="curve" smooth="yes"/>
      <point x="234" y="404" type="line"/>
      <point x="234" y="360" type="line"/>
      <point x="310" y="360" type="line" smooth="yes"/>
      <point x="405" y="360"/>
      <point x="448" y="299"/>
      <point x="448" y="221" type="curve" smooth="yes"/>
      <point x="448" y="145"/>
      <point x="403" y="99"/>
      <point x="302" y="99" type="curve" smooth="yes"/>
      <point x="193" y="99"/>
      <point x="129" y="155"/>
      <point x="119" y="276" type="curve"/>
    </contour>
    <contour>
      <point x="-10" y="680" type="line"/>
      <point x="601" y="680" type="line"/>
      <point x="601" y="730" type="line"/>
      <point x="-10" y="730" type="line"/>
    </contour>
  </outline>
</glyph>
<glyph name="rvocalicdeva" format="1">
  <advance width="973"/>
  <unicode hex="090B"/>
  <outline>
    <contour>
      <point x="554" y="730" type="move" name="DVAnchor3"/>
    </contour>
    <contour>
      <point x="554" y="30" type="move" name="DVAnchor0"/>
    </contour>
    <contour>
      <point x="519" y="680" type="line"/>
      <point x="519" y="0" type="line"/>
      <point x="589" y="0" type="line"/>
      <point x="589" y="680" type="line"/>
      <point x="983" y="680" type="line"/>
      <point x="983" y="730" type="line"/>
      <point x="-10" y="730" type="line"/>
      <point x="-10" y="680" type="line"/>
    </contour>
    <contour>
      <point x="121" y="428" type="line"/>
      <point x="148" y="482"/>
      <point x="197" y="513"/>
      <point x="264" y="513" type="curve" smooth="yes"/>
      <point x="350" y="513"/>
      <point x="396" y="468"/>
      <point x="464" y="394" type="curve" smooth="yes"/>
      <point x="529" y="324" type="line"/>
      <point x="529" y="402" type="line"/>
      <point x="503" y="430" type="line" smooth="yes"/>
      <point x="415" y="524"/>
      <point x="362" y="572"/>
      <point x="257" y="572" type="curve" smooth="yes"/>
      <point x="171" y="572"/>
      <point x="109" y="532"/>
      <point x="72" y="464" type="curve"/>
    </contour>
    <contour>
      <point x="519" y="364" type="line"/>
      <point x="143" y="148" type="line"/>
      <point x="174" y="89" type="line"/>
      <point x="519" y="304" type="line"/>
    </contour>
    <contour>
      <point x="558" y="328" type="line"/>
      <point x="590" y="308"/>
      <point x="639" y="298"/>
      <point x="707" y="298" type="curve" smooth="yes"/>
      <point x="769" y="298"/>
      <point x="881" y="319"/>
      <point x="917" y="357" type="curve"/>
      <point x="886" y="418" type="line"/>
      <point x="860" y="381"/>
      <point x="790" y="357"/>
      <point x="707" y="357" type="curve" smooth="yes"/>
      <point x="632" y="357"/>
      <point x="584" y="371"/>
      <point x="558" y="391" type="curve"/>
    </contour>
    <contour>
      <point x="896" y="337" type="curve"/>
      <point x="936" y="358"/>
      <point x="943" y="377"/>
      <point x="943" y="400" type="curve" smooth="yes"/>
      <point x="943" y="445"/>
      <point x="890" y="481"/>
      <point x="835" y="481" type="curve" smooth="yes"/>
      <point x="784" y="481"/>
      <point x="772" y="446"/>
      <point x="816" y="357" type="curve" smooth="yes"/>
      <point x="907" y="171"/>
      <point x="913" y="150"/>
      <point x="913" y="113" type="curve" smooth="yes"/>
      <point x="913" y="74"/>
      <point x="905" y="36"/>
      <point x="837" y="36" type="curve" smooth="yes"/>
      <point x="767" y="36"/>
      <point x="759" y="82"/>
      <point x="759" y="148" type="curve"/>
      <point x="692" y="148" type="line"/>
      <point x="692" y="64"/>
      <point x="705" y="-14"/>
      <point x="830" y="-14" type="curve" smooth="yes"/>
      <point x="965" y="-14"/>
      <point x="981" y="54"/>
      <point x="981" y="113" type="curve" smooth="yes"/>
      <point x="981" y="159"/>
      <point x="978" y="191"/>
    </contour>
  </outline>
</glyph>
<glyph name="chadeva" format="1">
  <advance width="754"/>
  <unicode hex="091B"/>
  <outline>
    <contour>
      <point x="555" y="730" type="move" name="DVAnchor3"/>
    </contour>
    <contour>
      <point x="308" y="90" type="move" name="DVAnchor0"/>
    </contour>
    <contour>
      <point x="523" y="531" type="line"/>
      <point x="593" y="531" type="line"/>
      <point x="593" y="680" type="line"/>
      <point x="523" y="680" type="line"/>
    </contour>
    <component base="chadeva_viramadeva"/>
  </outline>
</glyph>
<glyph name="ttadeva" format="1">
  <advance width="610"/>
  <unicode hex="091F"/>
  <outline>
    <contour>
      <point x="299" y="46" type="move" name="DVAnchor0"/>
    </contour>
    <contour>
      <point x="460" y="730" type="move" name="DVAnchor3"/>
    </contour>
    <contour>
      <point x="481" y="225" type="line"/>
      <point x="474" y="141"/>
      <point x="434" y="75"/>
      <point x="299" y="75" type="curve" smooth="yes"/>
      <point x="173" y="75"/>
      <point x="121" y="136"/>
      <point x="121" y="280" type="curve" smooth="yes"/>
      <point x="121" y="386"/>
      <point x="173" y="445"/>
      <point x="310" y="445" type="curve" smooth="yes"/>
      <point x="495" y="445" type="line"/>
      <point x="495" y="730" type="line"/>
      <point x="-10" y="730" type="line"/>
      <point x="-10" y="680" type="line"/>
      <point x="425" y="680" type="line"/>
      <point x="425" y="505" type="line"/>
      <point x="309" y="505" type="line" smooth="yes"/>
      <point x="123" y="505"/>
      <point x="51" y="419"/>
      <point x="51" y="280" type="curve" smooth="yes"/>
      <point x="51" y="98"/>
      <point x="129" y="16"/>
      <point x="299" y="16" type="curve" smooth="yes"/>
      <point x="483" y="16"/>
      <point x="531" y="101"/>
      <point x="543" y="225" type="curve"/>
    </contour>
    <contour>
      <point x="495" y="680" type="line"/>
      <point x="620" y="680" type="line"/>
      <point x="620" y="730" type="line"/>
      <point x="495" y="730" type="line"/>
    </contour>
  </outline>
</glyph>
<glyph name="tadeva" format="1">
  <advance width="680"/>
  <unicode hex="0924"/>
  <outline>
    <contour>
      <point x="530" y="730" type="move" name="DVAnchor3"/>
    </contour>
    <contour>
      <point x="565" y="680" type="line"/>
      <point x="690" y="680" type="line"/>
      <point x="690" y="730" type="line"/>
      <point x="565" y="730" type="line"/>
    </contour>
    <contour>
      <point x="565" y="730" type="line"/>
      <point x="-10" y="730" type="line"/>
      <point x="-10" y="680" type="line"/>
      <point x="495" y="680" type="line"/>
      <point x="495" y="0" type="line"/>
      <point x="565" y="0" type="line"/>
    </contour>
    <contour>
      <point x="495" y="504" type="line"/>
      <point x="275" y="504" type="line" smooth="yes"/>
      <point x="137" y="504"/>
      <point x="88" y="457"/>
      <point x="88" y="337" type="curve" smooth="yes"/>
      <point x="88" y="178"/>
      <point x="183" y="73"/>
      <point x="362" y="-14" type="curve"/>
      <point x="388" y="43" type="line"/>
      <point x="234" y="120"/>
      <point x="158" y="208"/>
      <point x="158" y="344" type="curve" smooth="yes"/>
      <point x="158" y="422"/>
      <point x="187" y="454"/>
      <point x="275" y="454" type="curve" smooth="yes"/>
      <point x="495" y="454" type="line"/>
    </contour>
  </outline>
</glyph>
<glyph name="thadeva" format="1">
  <advance width="700"/>
  <unicode hex="0925"/>
  <outline>
    <contour>
      <point x="550" y="730" type="move" name="DVAnchor3"/>
    </contour>
    <contour>
      <point x="49" y="334" type="line"/>
      <point x="86" y="334" type="line" smooth="yes"/>
      <point x="261" y="334"/>
      <point x="360" y="429"/>
      <point x="360" y="598" type="curve" smooth="yes"/>
      <point x="360" y="690"/>
      <point x="300" y="744"/>
      <point x="198" y="744" type="curve" smooth="yes"/>
      <point x="100" y="744"/>
      <point x="41" y="697"/>
      <point x="41" y="619" type="curve" smooth="yes"/>
      <point x="41" y="551"/>
      <point x="70" y="511"/>
      <point x="127" y="485" type="curve"/>
      <point x="161" y="529" type="line"/>
      <point x="124" y="548"/>
      <point x="109" y="574"/>
      <point x="109" y="618" type="curve" smooth="yes"/>
      <point x="109" y="666"/>
      <point x="142" y="694"/>
      <point x="198" y="694" type="curve" smooth="yes"/>
      <point x="258" y="694"/>
      <point x="292" y="659"/>
      <point x="292" y="598" type="curve" smooth="yes"/>
      <point x="292" y="477"/>
      <point x="250" y="384"/>
      <point x="86" y="384" type="curve" smooth="yes"/>
      <point x="30" y="384" type="line"/>
    </contour>
    <contour>
      <point x="301" y="109" type="curve" smooth="yes"/>
      <point x="411" y="109"/>
      <point x="493" y="156"/>
      <point x="550" y="230" type="curve"/>
      <point x="550" y="295" type="line"/>
      <point x="504" y="229"/>
      <point x="424" y="167"/>
      <point x="301" y="167" type="curve" smooth="yes"/>
      <point x="162" y="167"/>
      <point x="100" y="249"/>
      <point x="100" y="384" type="curve"/>
      <point x="30" y="384" type="line"/>
      <point x="30" y="207"/>
      <point x="124" y="109"/>
    </contour>
    <contour>
      <point x="515" y="0" type="line"/>
      <point x="585" y="0" type="line"/>
      <point x="585" y="680" type="line"/>
      <point x="515" y="680" type="line"/>
    </contour>
    <contour>
      <point x="410" y="680" type="line"/>
      <point x="710" y="680" type="line"/>
      <point x="710" y="730" type="line"/>
      <point x="410" y="730" type="line"/>
    </contour>
  </outline>
</glyph>
<glyph name="nadeva" format="1">
  <advance width="682"/>
  <unicode hex="0928"/>
  <outline>
    <contour>
      <point x="532" y="730" type="move" name="DVAnchor3"/>
    </contour>
    <contour>
      <point x="97" y="415" type="line" smooth="yes"/>
      <point x="66" y="415"/>
      <point x="54" y="406"/>
      <point x="54" y="377" type="curve" smooth="yes"/>
      <point x="54" y="312"/>
      <point x="142" y="271"/>
      <point x="172" y="271" type="curve" smooth="yes"/>
      <point x="184" y="271"/>
      <point x="195" y="274"/>
      <point x="195" y="292" type="curve" smooth="yes"/>
      <point x="195" y="365" type="line"/>
      <point x="497" y="365" type="line"/>
      <point x="497" y="0" type="line"/>
      <point x="567" y="0" type="line"/>
      <point x="567" y="680" type="line"/>
      <point x="692" y="680" type="line"/>
      <point x="692" y="730" type="line"/>
      <point x="-10" y="730" type="line"/>
      <point x="-10" y="680" type="line"/>
      <point x="497" y="680" type="line"/>
      <point x="497" y="415" type="line"/>
    </contour>
  </outline>
</glyph>
<glyph name="rradeva" format="1">
  <advance width="550"/>
  <unicode hex="0931"/>
  <outline>
    <contour>
      <point x="445" y="730" type="move" name="DVAnchor3"/>
    </contour>
    <component base="radeva"/>
    <component base="nuktadeva" xOffset="668" yOffset="81"/>
  </outline>
</glyph>
<glyph name="ladeva" format="1">
  <advance width="806"/>
  <unicode hex="0932"/>
  <outline>
    <contour>
      <point x="656" y="730" type="move" name="DVAnchor3"/>
    </contour>
    <contour>
      <point x="-10" y="680" type="line"/>
      <point x="816" y="680" type="line"/>
      <point x="816" y="730" type="line"/>
      <point x="-10" y="730" type="line"/>
    </contour>
    <contour>
      <point x="464" y="414" type="line"/>
      <point x="421" y="480"/>
      <point x="353" y="514"/>
      <point x="260" y="514" type="curve" smooth="yes"/>
      <point x="134" y="514"/>
      <point x="51" y="443"/>
      <point x="51" y="300" type="curve" smooth="yes"/>
      <point x="51" y="158"/>
      <point x="145" y="63"/>
      <point x="323" y="-15" type="curve"/>
      <point x="349" y="42" type="line"/>
      <point x="196" y="110"/>
      <point x="121" y="188"/>
      <point x="121" y="307" type="curve" smooth="yes"/>
      <point x="121" y="408"/>
      <point x="177" y="456"/>
      <point x="260" y="456" type="curve" smooth="yes"/>
      <point x="351" y="456"/>
      <point x="406" y="414"/>
      <point x="426" y="339" type="curve"/>
    </contour>
    <contour>
      <point x="631" y="514" type="line"/>
      <point x="469" y="514"/>
      <point x="384" y="417"/>
      <point x="384" y="246" type="curve"/>
      <point x="451" y="236" type="line"/>
      <point x="451" y="373"/>
      <point x="507" y="456"/>
      <point x="631" y="456" type="curve"/>
    </contour>
    <contour>
      <point x="621" y="0" type="line"/>
      <point x="691" y="0" type="line"/>
      <point x="691" y="680" type="line"/>
      <point x="621" y="680" type="line"/>
    </contour>
  </outline>
</glyph>
<glyph name="lladeva" format="1">
  <advance width="793"/>
  <unicode hex="0933"/>
  <outline>
    <contour>
      <point x="559" y="728" type="move" name="DVAnchor3"/>
    </contour>
    <contour>
      <point x="559" y="114" type="move" name="DVAnchor0"/>
    </contour>
    <contour>
      <point x="358" y="260" type="line"/>
      <point x="346" y="186"/>
      <point x="311" y="167"/>
      <point x="235" y="167" type="curve" smooth="yes"/>
      <point x="154" y="167"/>
      <point x="100" y="195"/>
      <point x="100" y="304" type="curve" smooth="yes"/>
      <point x="100" y="414"/>
      <point x="154" y="443"/>
      <point x="235" y="443" type="curve" smooth="yes"/>
      <point x="315" y="443"/>
      <point x="361" y="397"/>
      <point x="375" y="293" type="curve"/>
      <point x="407" y="334" type="line"/>
      <point x="389" y="449"/>
      <point x="342" y="501"/>
      <point x="236" y="501" type="curve" smooth="yes"/>
      <point x="118" y="501"/>
      <point x="30" y="461"/>
      <point x="30" y="305" type="curve" smooth="yes"/>
      <point x="30" y="149"/>
      <point x="108" y="109"/>
      <point x="230" y="109" type="curve" smooth="yes"/>
      <point x="356" y="109"/>
      <point x="391" y="154"/>
      <point x="409" y="271" type="curve" smooth="yes"/>
      <point x="419" y="340" type="line" smooth="yes"/>
      <point x="431" y="422"/>
      <point x="469" y="443"/>
      <point x="545" y="443" type="curve" smooth="yes"/>
      <point x="626" y="443"/>
      <point x="680" y="414"/>
      <point x="680" y="304" type="curve" smooth="yes"/>
      <point x="680" y="195"/>
      <point x="626" y="167"/>
      <point x="545" y="167" type="curve" smooth="yes"/>
      <point x="466" y="167"/>
      <point x="420" y="210"/>
      <point x="406" y="311" type="curve"/>
      <point x="372" y="276" type="line"/>
      <point x="392" y="161"/>
      <point x="437" y="109"/>
      <point x="544" y="109" type="curve" smooth="yes"/>
      <point x="662" y="109"/>
      <point x="750" y="149"/>
      <point x="750" y="305" type="curve" smooth="yes"/>
      <point x="750" y="461"/>
      <point x="672" y="501"/>
      <point x="550" y="501" type="curve" smooth="yes"/>
      <point x="425" y="501"/>
      <point x="392" y="457"/>
      <point x="371" y="339" type="curve" smooth="yes"/>
    </contour>
    <contour>
      <point x="-10" y="680" type="line"/>
      <point x="803" y="680" type="line"/>
      <point x="803" y="730" type="line"/>
      <point x="-10" y="730" type="line"/>
    </contour>
    <contour>
      <point x="524" y="471" type="line"/>
      <point x="594" y="471" type="line"/>
      <point x="594" y="680" type="line"/>
      <point x="524" y="680" type="line"/>
    </contour>
  </outline>
</glyph>
<glyph name="llladeva" format="1">
  <advance width="793"/>
  <unicode hex="0934"/>
  <outline>
    <contour>
      <point x="559" y="728" type="move" name="DVAnchor3"/>
    </contour>
    <contour>
      <point x="559" y="114" type="move" name="DVAnchor0"/>
    </contour>
    <component base="lladeva"/>
    <component base="nuktadeva" xOffset="977" yOffset="36"/>
  </outline>
</glyph>
<glyph name="vadeva" format="1">
  <advance width="615"/>
  <unicode hex="0935"/>
  <outline>
    <contour>
      <point x="465" y="730" type="move" name="DVAnchor3"/>
    </contour>
    <contour>
      <point x="389" y="550" type="line"/>
      <point x="354" y="564"/>
      <point x="318" y="572"/>
      <point x="274" y="572" type="curve" smooth="yes"/>
      <point x="104" y="572"/>
      <point x="66" y="467"/>
      <point x="66" y="368" type="curve" smooth="yes"/>
      <point x="66" y="266"/>
      <point x="103" y="160"/>
      <point x="271" y="160" type="curve" smooth="yes"/>
      <point x="358" y="160"/>
      <point x="421" y="180"/>
      <point x="465" y="215" type="curve"/>
      <point x="465" y="280" type="line"/>
      <point x="432" y="246"/>
      <point x="368" y="217"/>
      <point x="280" y="217" type="curve" smooth="yes"/>
      <point x="167" y="217"/>
      <point x="136" y="287"/>
      <point x="136" y="366" type="curve" smooth="yes"/>
      <point x="136" y="444"/>
      <point x="167" y="514"/>
      <point x="286" y="514" type="curve" smooth="yes"/>
      <point x="318" y="514"/>
      <point x="348" y="508"/>
      <point x="376" y="496" type="curve"/>
    </contour>
    <contour>
      <point x="-10" y="680" type="line"/>
      <point x="625" y="680" type="line"/>
      <point x="625" y="730" type="line"/>
      <point x="-10" y="730" type="line"/>
    </contour>
    <contour>
      <point x="430" y="0" type="line"/>
      <point x="500" y="0" type="line"/>
      <point x="500" y="680" type="line"/>
      <point x="430" y="680" type="line"/>
    </contour>
  </outline>
</glyph>
<glyph name="shadeva" format="1">
  <advance width="705"/>
  <unicode hex="0936"/>
  <outline>
    <contour>
      <point x="555" y="730" type="move" name="DVAnchor3"/>
    </contour>
    <contour>
      <point x="520" y="680" type="line"/>
      <point x="520" y="0" type="line"/>
      <point x="590" y="0" type="line"/>
      <point x="590" y="680" type="line"/>
      <point x="715" y="680" type="line"/>
      <point x="715" y="730" type="line"/>
      <point x="420" y="730" type="line"/>
      <point x="420" y="680" type="line"/>
    </contour>
    <component base="shadeva_viramadeva"/>
  </outline>
</glyph>
<glyph name="sadeva" format="1">
  <advance width="799"/>
  <unicode hex="0938"/>
  <outline>
    <contour>
      <point x="649" y="730" type="move" name="DVAnchor3"/>
    </contour>
    <contour>
      <point x="614" y="0" type="line"/>
      <point x="684" y="0" type="line"/>
      <point x="684" y="680" type="line"/>
      <point x="614" y="680" type="line"/>
    </contour>
    <contour>
      <point x="550" y="680" type="line"/>
      <point x="809" y="680" type="line"/>
      <point x="809" y="730" type="line"/>
      <point x="550" y="730" type="line"/>
    </contour>
    <contour>
      <point x="278" y="292" type="line"/>
      <point x="614" y="292" type="line"/>
      <point x="614" y="342" type="line"/>
      <point x="278" y="342" type="line"/>
    </contour>
    <contour>
      <point x="83" y="482" type="line"/>
      <point x="110" y="368"/>
      <point x="161" y="292"/>
      <point x="240" y="292" type="curve" smooth="yes"/>
      <point x="383" y="292"/>
      <point x="405" y="388"/>
      <point x="405" y="490" type="curve" smooth="yes"/>
      <point x="405" y="680" type="line"/>
      <point x="335" y="680" type="line"/>
      <point x="335" y="490" type="line" smooth="yes"/>
      <point x="335" y="421"/>
      <point x="328" y="351"/>
      <point x="241" y="351" type="curve" smooth="yes"/>
      <point x="191" y="351"/>
      <point x="166" y="405"/>
      <point x="153" y="482" type="curve"/>
    </contour>
    <contour>
      <point x="-10" y="680" type="line"/>
      <point x="560" y="680" type="line"/>
      <point x="560" y="730" type="line"/>
      <point x="-10" y="730" type="line"/>
    </contour>
    <contour>
      <point x="83" y="482" type="line"/>
      <point x="98" y="258"/>
      <point x="203" y="109"/>
      <point x="430" y="-14" type="curve"/>
      <point x="456" y="43" type="line"/>
      <point x="253" y="155"/>
      <point x="167" y="284"/>
      <point x="153" y="482" type="curve"/>
    </contour>
  </outline>
</glyph>
<glyph name="hadeva" format="1">
  <advance width="621"/>
  <unicode hex="0939"/>
  <outline>
    <contour>
      <point x="460" y="730" type="move" name="DVAnchor3"/>
    </contour>
    <contour>
      <point x="335" y="-70" type="move" name="DVAnchor0"/>
    </contour>
    <contour>
      <point x="451" y="30" type="line"/>
      <point x="537" y="77"/>
      <point x="581" y="133"/>
      <point x="581" y="206" type="curve" smooth="yes"/>
      <point x="581" y="326"/>
      <point x="497" y="377"/>
      <point x="369" y="377" type="curve" smooth="yes"/>
      <point x="190" y="377"/>
      <point x="73" y="318"/>
      <point x="73" y="176" type="curve" smooth="yes"/>
      <point x="73" y="55"/>
      <point x="186" y="-27"/>
      <point x="399" y="-94" type="curve"/>
      <point x="425" y="-38" type="line"/>
      <point x="236" y="18"/>
      <point x="143" y="83"/>
      <point x="143" y="183" type="curve" smooth="yes"/>
      <point x="143" y="277"/>
      <point x="234" y="320"/>
      <point x="369" y="320" type="curve" smooth="yes"/>
      <point x="454" y="320"/>
      <point x="511" y="286"/>
      <point x="511" y="212" type="curve" smooth="yes"/>
      <point x="511" y="156"/>
      <point x="479" y="112"/>
      <point x="410" y="75" type="curve"/>
    </contour>
    <contour>
      <point x="218" y="331" type="line"/>
      <point x="166" y="350"/>
      <point x="143" y="383"/>
      <point x="143" y="425" type="curve" smooth="yes"/>
      <point x="143" y="471"/>
      <point x="174" y="506"/>
      <point x="261" y="506" type="curve"/>
      <point x="261" y="566" type="line"/>
      <point x="132" y="566"/>
      <point x="73" y="504"/>
      <point x="73" y="422" type="curve" smooth="yes"/>
      <point x="73" y="345"/>
      <point x="112" y="308"/>
      <point x="175" y="283" type="curve"/>
    </contour>
    <contour>
      <point x="495" y="566" type="line"/>
      <point x="495" y="680" type="line"/>
      <point x="631" y="680" type="line"/>
      <point x="631" y="730" type="line"/>
      <point x="-10" y="730" type="line"/>
      <point x="-10" y="680" type="line"/>
      <point x="425" y="680" type="line"/>
      <point x="425" y="566" type="line"/>
    </contour>
    <contour>
      <point x="261" y="506" type="line"/>
      <point x="495" y="506" type="line"/>
      <point x="495" y="566" type="line"/>
      <point x="261" y="566" type="line"/>
    </contour>
  </outline>
</glyph>
<glyph name="eshortsigndeva" format="1">
  <advance width="0"/>
  <unicode hex="0946"/>
  <outline>
    <contour>
      <point x="-150" y="730" type="move" name="_DVAnchor3"/>
    </contour>
    <contour>
      <point x="-116" y="730" type="line"/>
      <point x="-113" y="961"/>
      <point x="-464" y="864"/>
      <point x="-464" y="1052" type="curve"/>
      <point x="-529" y="1052" type="line"/>
      <point x="-532" y="821"/>
      <point x="-184" y="918"/>
      <point x="-184" y="730" type="curve"/>
    </contour>
  </outline>
</glyph>
<glyph name="omdeva" format="1">
  <advance width="954"/>
  <unicode hex="0950"/>
  <outline>
    <contour>
      <point x="560" y="203" type="line"/>
      <point x="592" y="154"/>
      <point x="642" y="127"/>
      <point x="712" y="127" type="curve" smooth="yes"/>
      <point x="836" y="127"/>
      <point x="914" y="216"/>
      <point x="914" y="346" type="curve" smooth="yes"/>
      <point x="914" y="471"/>
      <point x="860" y="560"/>
      <point x="712" y="560" type="curve" smooth="yes"/>
      <point x="519" y="560"/>
      <point x="503" y="302"/>
      <point x="403" y="376" type="curve"/>
      <point x="396" y="340" type="line"/>
      <point x="550" y="228"/>
      <point x="559" y="499"/>
      <point x="712" y="499" type="curve" smooth="yes"/>
      <point x="798" y="499"/>
      <point x="844" y="449"/>
      <point x="844" y="346" type="curve" smooth="yes"/>
      <point x="844" y="238"/>
      <point x="781" y="185"/>
      <point x="712" y="185" type="curve" smooth="yes"/>
      <point x="668" y="185"/>
      <point x="637" y="204"/>
      <point x="617" y="237" type="curve"/>
    </contour>
    <contour>
      <point x="261" y="46" type="curve" smooth="yes"/>
      <point x="403" y="46"/>
      <point x="477" y="111"/>
      <point x="477" y="227" type="curve" smooth="yes"/>
      <point x="477" y="351"/>
      <point x="386" y="409"/>
      <point x="281" y="409" type="curve" smooth="yes"/>
      <point x="193" y="409" type="line"/>
      <point x="193" y="365" type="line"/>
      <point x="269" y="365" type="line" smooth="yes"/>
      <point x="371" y="365"/>
      <point x="407" y="304"/>
      <point x="407" y="226" type="curve" smooth="yes"/>
      <point x="407" y="150"/>
      <point x="362" y="104"/>
      <point x="261" y="104" type="curve" smooth="yes"/>
      <point x="160" y="104"/>
      <point x="106" y="149"/>
      <point x="97" y="256" type="curve"/>
      <point x="35" y="231" type="line"/>
      <point x="52" y="104"/>
      <point x="125" y="46"/>
    </contour>
    <contour>
      <point x="193" y="375" type="line"/>
      <point x="270" y="375" type="line" smooth="yes"/>
      <point x="375" y="375"/>
      <point x="468" y="443"/>
      <point x="468" y="550" type="curve" smooth="yes"/>
      <point x="468" y="668"/>
      <point x="413" y="744"/>
      <point x="251" y="744" type="curve" smooth="yes"/>
      <point x="104" y="744"/>
      <point x="49" y="668"/>
      <point x="49" y="550" type="curve"/>
      <point x="111" y="550" type="line"/>
      <point x="111" y="631"/>
      <point x="147" y="685"/>
      <point x="251" y="685" type="curve" smooth="yes"/>
      <point x="366" y="685"/>
      <point x="398" y="632"/>
      <point x="398" y="551" type="curve" smooth="yes"/>
      <point x="398" y="477"/>
      <point x="352" y="419"/>
      <point x="270" y="419" type="curve" smooth="yes"/>
      <point x="193" y="419" type="line"/>
    </contour>
    <contour>
      <point x="713" y="869" type="curve" smooth="yes"/>
      <point x="750" y="869"/>
      <point x="766" y="884"/>
      <point x="766" y="920" type="curve" smooth="yes"/>
      <point x="766" y="957"/>
      <point x="751" y="972"/>
      <point x="713" y="972" type="curve" smooth="yes"/>
      <point x="677" y="972"/>
      <point x="662" y="957"/>
      <point x="662" y="920" type="curve" smooth="yes"/>
      <point x="662" y="884"/>
      <point x="677" y="869"/>
    </contour>
    <contour>
      <point x="883" y="879" type="line"/>
      <point x="883" y="798"/>
      <point x="855" y="720"/>
      <point x="712" y="720" type="curve" smooth="yes"/>
      <point x="569" y="720"/>
      <point x="542" y="798"/>
      <point x="542" y="879" type="curve"/>
      <point x="601" y="879" type="line"/>
      <point x="601" y="827"/>
      <point x="616" y="780"/>
      <point x="712" y="780" type="curve" smooth="yes"/>
      <point x="807" y="780"/>
      <point x="822" y="827"/>
      <point x="822" y="879" type="curve"/>
    </contour>
  </outline>
</glyph>
<glyph name="khhadeva" format="1">
  <advance width="1051"/>
  <unicode hex="0959"/>
  <outline>
    <contour>
      <point x="901" y="730" type="move" name="DVAnchor3"/>
    </contour>
    <component base="khadeva"/>
    <component base="nuktadeva" xOffset="639" yOffset="81"/>
  </outline>
</glyph>
<glyph name="ghhadeva" format="1">
  <advance width="635"/>
  <unicode hex="095A"/>
  <outline>
    <contour>
      <point x="465" y="730" type="move" name="DVAnchor3"/>
    </contour>
    <component base="gadeva"/>
    <component base="nuktadeva" xOffset="746" yOffset="81"/>
  </outline>
</glyph>
<glyph name="zadeva" format="1">
  <advance width="802"/>
  <unicode hex="095B"/>
  <outline>
    <contour>
      <point x="652" y="730" type="move" name="DVAnchor3"/>
    </contour>
    <component base="jadeva"/>
    <component base="nuktadeva" xOffset="877" yOffset="81"/>
  </outline>
</glyph>
<glyph name="dddhadeva" format="1">
  <advance width="610"/>
  <unicode hex="095C"/>
  <outline>
    <contour>
      <point x="318" y="30" type="move" name="DVAnchor0"/>
    </contour>
    <contour>
      <point x="460" y="730" type="move" name="DVAnchor3"/>
    </contour>
    <component base="ddadeva" xOffset="1"/>
    <component base="nuktadeva" xOffset="894" yOffset="-75"/>
  </outline>
</glyph>
<glyph name="fadeva" format="1">
  <advance width="890"/>
  <unicode hex="095E"/>
  <outline>
    <contour>
      <point x="465" y="30" type="move" name="DVAnchor0"/>
    </contour>
    <contour>
      <point x="465" y="730" type="move" name="DVAnchor3"/>
    </contour>
    <component base="phadeva"/>
    <component base="nuktadeva" xOffset="706" yOffset="81"/>
  </outline>
</glyph>
<glyph name="lvocalicsigndeva" format="1">
  <advance width="24"/>
  <unicode hex="0962"/>
  <outline>
    <contour>
      <point x="-147" y="30" type="move" name="_DVAnchor0"/>
    </contour>
    <contour>
      <point x="-131" y="-88" type="line"/>
      <point x="-154" y="-52"/>
      <point x="-192" y="-32"/>
      <point x="-246" y="-32" type="curve" smooth="yes"/>
      <point x="-315" y="-32"/>
      <point x="-368" y="-68"/>
      <point x="-368" y="-157" type="curve" smooth="yes"/>
      <point x="-368" y="-234"/>
      <point x="-319" y="-286"/>
      <point x="-220" y="-328" type="curve"/>
      <point x="-201" y="-286" type="line"/>
      <point x="-277" y="-251"/>
      <point x="-314" y="-212"/>
      <point x="-314" y="-152" type="curve" smooth="yes"/>
      <point x="-314" y="-99"/>
      <point x="-286" y="-76"/>
      <point x="-246" y="-76" type="curve" smooth="yes"/>
      <point x="-199" y="-76"/>
      <point x="-172" y="-98"/>
      <point x="-162" y="-138" type="curve"/>
    </contour>
    <contour>
      <point x="78" y="-156" type="curve" smooth="yes"/>
      <point x="78" y="-68"/>
      <point x="25" y="-32"/>
      <point x="-44" y="-32" type="curve" smooth="yes"/>
      <point x="-140" y="-32"/>
      <point x="-185" y="-92"/>
      <point x="-185" y="-184" type="curve"/>
      <point x="-132" y="-190" type="line"/>
      <point x="-132" y="-119"/>
      <point x="-107" y="-76"/>
      <point x="-44" y="-76" type="curve" smooth="yes"/>
      <point x="-5" y="-76"/>
      <point x="24" y="-99"/>
      <point x="24" y="-152" type="curve" smooth="yes"/>
      <point x="24" y="-253"/>
      <point x="-138" y="-254"/>
      <point x="-138" y="-369" type="curve" smooth="yes"/>
      <point x="-138" y="-424"/>
      <point x="-99" y="-453"/>
      <point x="-44" y="-453" type="curve" smooth="yes"/>
      <point x="-12" y="-453"/>
      <point x="20" y="-443"/>
      <point x="47" y="-430" type="curve"/>
      <point x="34" y="-395" type="line"/>
      <point x="11" y="-407"/>
      <point x="-11" y="-416"/>
      <point x="-34" y="-416" type="curve" smooth="yes"/>
      <point x="-69" y="-416"/>
      <point x="-84" y="-397"/>
      <point x="-84" y="-368" type="curve" smooth="yes"/>
      <point x="-84" y="-291"/>
      <point x="78" y="-289"/>
    </contour>
  </outline>
</glyph>
<glyph name="llvocalicsigndeva" format="1">
  <advance width="37"/>
  <unicode hex="0963"/>
  <outline>
    <contour>
      <point x="-147" y="30" type="move" name="_DVAnchor0"/>
    </contour>
    <contour>
      <point x="-131" y="-88" type="line"/>
      <point x="-154" y="-52"/>
      <point x="-192" y="-32"/>
      <point x="-246" y="-32" type="curve" smooth="yes"/>
      <point x="-315" y="-32"/>
      <point x="-368" y="-68"/>
      <point x="-368" y="-157" type="curve" smooth="yes"/>
      <point x="-368" y="-234"/>
      <point x="-319" y="-286"/>
      <point x="-220" y="-328" type="curve"/>
      <point x="-201" y="-286" type="line"/>
      <point x="-277" y="-251"/>
      <point x="-314" y="-212"/>
      <point x="-314" y="-152" type="curve" smooth="yes"/>
      <point x="-314" y="-99"/>
      <point x="-286" y="-76"/>
      <point x="-246" y="-76" type="curve" smooth="yes"/>
      <point x="-199" y="-76"/>
      <point x="-172" y="-98"/>
      <point x="-162" y="-138" type="curve"/>
    </contour>
    <contour>
      <point x="-84" y="-355" type="curve" smooth="yes"/>
      <point x="-84" y="-297"/>
      <point x="78" y="-286"/>
      <point x="78" y="-156" type="curve" smooth="yes"/>
      <point x="78" y="-68"/>
      <point x="25" y="-32"/>
      <point x="-44" y="-32" type="curve" smooth="yes"/>
      <point x="-140" y="-32"/>
      <point x="-185" y="-92"/>
      <point x="-185" y="-184" type="curve"/>
      <point x="-132" y="-190" type="line"/>
      <point x="-132" y="-119"/>
      <point x="-107" y="-76"/>
      <point x="-44" y="-76" type="curve" smooth="yes"/>
      <point x="-5" y="-76"/>
      <point x="24" y="-99"/>
      <point x="24" y="-152" type="curve" smooth="yes"/>
      <point x="24" y="-254"/>
      <point x="-138" y="-255"/>
      <point x="-138" y="-353" type="curve" smooth="yes"/>
      <point x="-138" y="-397"/>
      <point x="-101" y="-417"/>
      <point x="-33" y="-414" type="curve"/>
      <point x="-33" y="-392" type="line"/>
      <point x="-63" y="-392"/>
      <point x="-84" y="-384"/>
    </contour>
    <contour>
      <point x="-1" y="-468" type="line"/>
      <point x="-18" y="-473"/>
      <point x="-34" y="-475"/>
      <point x="-49" y="-475" type="curve" smooth="yes"/>
      <point x="-74" y="-475"/>
      <point x="-93" y="-468"/>
      <point x="-93" y="-449" type="curve" smooth="yes"/>
      <point x="-93" y="-427"/>
      <point x="-72" y="-418"/>
      <point x="-33" y="-418" type="curve"/>
      <point x="-33" y="-395" type="line"/>
      <point x="-96" y="-395"/>
      <point x="-136" y="-414"/>
      <point x="-136" y="-453" type="curve" smooth="yes"/>
      <point x="-136" y="-495"/>
      <point x="-99" y="-509"/>
      <point x="-57" y="-509" type="curve" smooth="yes"/>
      <point x="-31" y="-509"/>
      <point x="-13" y="-506"/>
      <point x="5" y="-501" type="curve"/>
    </contour>
  </outline>
</glyph>
<glyph name="zerodeva" format="1">
  <advance width="589"/>
  <unicode hex="0966"/>
  <outline>
    <contour>
      <point x="294" y="84" type="curve" smooth="yes"/>
      <point x="462" y="84"/>
      <point x="524" y="212"/>
      <point x="524" y="335" type="curve" smooth="yes"/>
      <point x="524" y="457"/>
      <point x="462" y="587"/>
      <point x="294" y="587" type="curve" smooth="yes"/>
      <point x="127" y="587"/>
      <point x="65" y="457"/>
      <point x="65" y="335" type="curve" smooth="yes"/>
      <point x="65" y="212"/>
      <point x="127" y="84"/>
    </contour>
    <contour>
      <point x="294" y="141" type="curve" smooth="yes"/>
      <point x="179" y="141"/>
      <point x="135" y="230"/>
      <point x="135" y="335" type="curve" smooth="yes"/>
      <point x="135" y="440"/>
      <point x="179" y="529"/>
      <point x="294" y="529" type="curve" smooth="yes"/>
      <point x="410" y="529"/>
      <point x="454" y="440"/>
      <point x="454" y="335" type="curve" smooth="yes"/>
      <point x="454" y="230"/>
      <point x="410" y="141"/>
    </contour>
  </outline>
</glyph>
<glyph name="sevendeva" format="1">
  <advance width="684"/>
  <unicode hex="096D"/>
  <outline>
    <contour>
      <point x="272" y="738" type="line"/>
      <point x="187" y="640"/>
      <point x="160" y="529"/>
      <point x="160" y="416" type="curve" smooth="yes"/>
      <point x="160" y="191"/>
      <point x="225" y="78"/>
      <point x="359" y="78" type="curve" smooth="yes"/>
      <point x="470" y="78"/>
      <point x="560" y="201"/>
      <point x="560" y="369" type="curve" smooth="yes"/>
      <point x="560" y="473"/>
      <point x="542" y="558"/>
      <point x="450" y="558" type="curve" smooth="yes"/>
      <point x="382" y="558"/>
      <point x="365" y="515"/>
      <point x="365" y="463" type="curve" smooth="yes"/>
      <point x="365" y="387"/>
      <point x="385" y="306"/>
      <point x="506" y="277" type="curve"/>
      <point x="487" y="227" type="line"/>
      <point x="336" y="265"/>
      <point x="301" y="362"/>
      <point x="301" y="463" type="curve" smooth="yes"/>
      <point x="301" y="543"/>
      <point x="337" y="610"/>
      <point x="448" y="610" type="curve" smooth="yes"/>
      <point x="576" y="610"/>
      <point x="624" y="510"/>
      <point x="624" y="370" type="curve" smooth="yes"/>
      <point x="624" y="171"/>
      <point x="509" y="20"/>
      <point x="360" y="20" type="curve" smooth="yes"/>
      <point x="195" y="20"/>
      <point x="90" y="140"/>
      <point x="90" y="417" type="curve" smooth="yes"/>
      <point x="90" y="537"/>
      <point x="118" y="679"/>
      <point x="216" y="775" type="curve"/>
    </contour>
  </outline>
</glyph>
<glyph name="eightdeva" format="1">
  <advance width="604"/>
  <unicode hex="096E"/>
  <outline>
    <contour>
      <point x="291" y="-14" type="curve" smooth="yes"/>
      <point x="110" y="-14"/>
      <point x="70" y="90"/>
      <point x="70" y="185" type="curve" smooth="yes"/>
      <point x="70" y="265"/>
      <point x="105" y="333"/>
      <point x="142" y="391" type="curve" smooth="yes"/>
      <point x="377" y="763" type="line"/>
      <point x="434" y="728" type="line"/>
      <point x="188" y="333" type="line" smooth="yes"/>
      <point x="159" y="287"/>
      <point x="140" y="240"/>
      <point x="140" y="185" type="curve" smooth="yes"/>
      <point x="140" y="121"/>
      <point x="158" y="42"/>
      <point x="288" y="42" type="curve" smooth="yes"/>
      <point x="390" y="42"/>
      <point x="458" y="113"/>
      <point x="498" y="191" type="curve"/>
      <point x="554" y="153" type="line"/>
      <point x="504" y="69"/>
      <point x="418" y="-14"/>
    </contour>
  </outline>
</glyph>
<glyph name="ninedeva" format="1">
  <advance width="603"/>
  <unicode hex="096F"/>
  <outline>
    <contour>
      <point x="260" y="372" type="curve" smooth="yes"/>
      <point x="410" y="372"/>
      <point x="465" y="474"/>
      <point x="465" y="573" type="curve" smooth="yes"/>
      <point x="465" y="672"/>
      <point x="410" y="775"/>
      <point x="260" y="775" type="curve" smooth="yes"/>
      <point x="110" y="775"/>
      <point x="55" y="672"/>
      <point x="55" y="573" type="curve" smooth="yes"/>
      <point x="55" y="474"/>
      <point x="110" y="372"/>
    </contour>
    <contour>
      <point x="260" y="428" type="curve" smooth="yes"/>
      <point x="172" y="428"/>
      <point x="126" y="485"/>
      <point x="126" y="573" type="curve" smooth="yes"/>
      <point x="126" y="661"/>
      <point x="172" y="718"/>
      <point x="260" y="718" type="curve" smooth="yes"/>
      <point x="348" y="718"/>
      <point x="395" y="661"/>
      <point x="395" y="573" type="curve" smooth="yes"/>
      <point x="395" y="485"/>
      <point x="348" y="428"/>
    </contour>
    <contour>
      <point x="402" y="-130" type="line"/>
      <point x="437" y="-173" type="line"/>
      <point x="484" y="-134" type="line" smooth="yes"/>
      <point x="532" y="-94"/>
      <point x="548" y="-61"/>
      <point x="548" y="-32" type="curve" smooth="yes"/>
      <point x="548" y="4"/>
      <point x="525" y="35"/>
      <point x="496" y="70" type="curve" smooth="yes"/>
      <point x="216" y="406" type="line"/>
      <point x="99" y="438" type="line"/>
      <point x="442" y="25" type="line" smooth="yes"/>
      <point x="462" y="1"/>
      <point x="474" y="-17"/>
      <point x="474" y="-38" type="curve" smooth="yes"/>
      <point x="474" y="-52"/>
      <point x="466" y="-68"/>
      <point x="446" y="-88" type="curve" smooth="yes"/>
    </contour>
  </outline>
</glyph>
<glyph name="oedeva" format="1">
  <advance width="836"/>
  <unicode hex="0973"/>
  <outline>
    <contour>
      <point x="686" y="730" type="move" name="DVAnchor3"/>
    </contour>
    <component base="adeva"/>
    <component base="oesigndeva" xOffset="836"/>
  </outline>
</glyph>
<glyph name="yaheavydeva" format="1">
  <advance width="670"/>
  <unicode hex="097A"/>
  <outline>
    <contour>
      <point x="520" y="730" type="move" name="DVAnchor3"/>
    </contour>
    <contour>
      <point x="520" y="30" type="move" name="DVAnchor0"/>
    </contour>
    <contour>
      <point x="494" y="245" type="line"/>
      <point x="517" y="287" type="line"/>
      <point x="263" y="536" type="line"/>
      <point x="220" y="511" type="line"/>
    </contour>
    <component base="yadeva"/>
  </outline>
</glyph>
<glyph name="emdash" format="1">
  <advance width="913"/>
  <unicode hex="2014"/>
  <outline>
    <contour>
      <point x="70" y="288" type="line"/>
      <point x="843" y="288" type="line"/>
      <point x="843" y="348" type="line"/>
      <point x="70" y="348" type="line"/>
    </contour>
  </outline>
</glyph>
<glyph name="quoteleft" format="1">
  <advance width="283"/>
  <unicode hex="2018"/>
  <outline>
    <contour>
      <point x="176" y="613" type="curve" smooth="yes"/>
      <point x="176" y="585"/>
      <point x="173" y="555"/>
      <point x="129" y="555" type="curve" smooth="yes"/>
      <point x="83" y="555"/>
      <point x="80" y="585"/>
      <point x="80" y="613" type="curve" smooth="yes"/>
      <point x="80" y="714"/>
      <point x="180" y="783"/>
      <point x="180" y="783" type="curve"/>
      <point x="203" y="756" type="line"/>
      <point x="182" y="737"/>
      <point x="165" y="720"/>
      <point x="165" y="677" type="curve" smooth="yes"/>
      <point x="165" y="658"/>
      <point x="176" y="638"/>
    </contour>
  </outline>
</glyph>
<glyph name="quoteright" format="1">
  <advance width="283"/>
  <unicode hex="2019"/>
  <outline>
    <contour>
      <point x="107" y="725" type="curve" smooth="yes"/>
      <point x="107" y="753"/>
      <point x="110" y="783"/>
      <point x="154" y="783" type="curve" smooth="yes"/>
      <point x="200" y="783"/>
      <point x="203" y="753"/>
      <point x="203" y="725" type="curve" smooth="yes"/>
      <point x="203" y="624"/>
      <point x="103" y="555"/>
      <point x="103" y="555" type="curve"/>
      <point x="80" y="582" type="line"/>
      <point x="101" y="601"/>
      <point x="118" y="618"/>
      <point x="118" y="661" type="curve" smooth="yes"/>
      <point x="118" y="680"/>
      <point x="107" y="700"/>
    </contour>
  </outline>
</glyph>
<glyph name="guilsinglleft" format="1">
  <advance width="305"/>
  <unicode hex="2039"/>
  <outline>
    <contour>
      <point x="121" y="315" type="line"/>
      <point x="245" y="158" type="line"/>
      <point x="198" y="112" type="line"/>
      <point x="30" y="299" type="line"/>
      <point x="30" y="331" type="line"/>
      <point x="198" y="518" type="line"/>
      <point x="245" y="472" type="line"/>
    </contour>
  </outline>
</glyph>
<glyph name="fraction" format="1">
  <advance width="267"/>
  <unicode hex="2044"/>
  <outline>
    <contour>
      <point x="0" y="-66" type="line"/>
      <point x="52" y="-66" type="line"/>
      <point x="267" y="735" type="line"/>
      <point x="214" y="735" type="line"/>
    </contour>
  </outline>
</glyph>
<glyph name="oneinferior" format="1">
  <advance width="413"/>
  <unicode hex="2081"/>
  <outline>
    <contour>
      <point x="107" y="-107" type="line"/>
      <point x="329" y="-107" type="line"/>
      <point x="329" y="-62" type="line"/>
      <point x="107" y="-62" type="line"/>
    </contour>
    <contour>
      <point x="246" y="-89" type="line"/>
      <point x="246" y="298" type="line"/>
      <point x="204" y="298" type="line"/>
      <point x="190" y="260" type="line"/>
      <point x="190" y="-89" type="line"/>
    </contour>
    <contour>
      <point x="108" y="234" type="line"/>
      <point x="202" y="234" type="line"/>
      <point x="204" y="298" type="line"/>
      <point x="183" y="283"/>
      <point x="149" y="272"/>
      <point x="108" y="268" type="curve"/>
    </contour>
  </outline>
</glyph>
<glyph name="twoinferior" format="1">
  <advance width="414"/>
  <unicode hex="2082"/>
  <outline>
    <contour>
      <point x="148" y="-62" type="line"/>
      <point x="267" y="67" type="line" smooth="yes"/>
      <point x="303" y="106"/>
      <point x="335" y="147"/>
      <point x="335" y="197" type="curve" smooth="yes"/>
      <point x="335" y="262"/>
      <point x="303" y="307"/>
      <point x="208" y="307" type="curve" smooth="yes"/>
      <point x="111" y="307"/>
      <point x="80" y="261"/>
      <point x="80" y="185" type="curve"/>
      <point x="128" y="185" type="line"/>
      <point x="128" y="232"/>
      <point x="142" y="262"/>
      <point x="206" y="262" type="curve" smooth="yes"/>
      <point x="263" y="262"/>
      <point x="281" y="235"/>
      <point x="281" y="197" type="curve" smooth="yes"/>
      <point x="281" y="161"/>
      <point x="257" y="135"/>
      <point x="227" y="102" type="curve" smooth="yes"/>
      <point x="73" y="-65" type="line"/>
      <point x="73" y="-107" type="line"/>
      <point x="340" y="-107" type="line"/>
      <point x="340" y="-62" type="line"/>
    </contour>
  </outline>
</glyph>
<glyph name="Euro" format="1">
  <advance width="580"/>
  <unicode hex="20AC"/>
  <outline>
    <contour>
      <point x="343" y="45" type="curve" smooth="yes"/>
      <point x="188" y="45"/>
      <point x="180" y="147"/>
      <point x="180" y="335" type="curve" smooth="yes"/>
      <point x="180" y="522"/>
      <point x="188" y="625"/>
      <point x="343" y="625" type="curve" smooth="yes"/>
      <point x="427" y="625"/>
      <point x="481" y="587"/>
      <point x="481" y="517" type="curve"/>
      <point x="543" y="521" type="line"/>
      <point x="540" y="625"/>
      <point x="481" y="684"/>
      <point x="343" y="684" type="curve" smooth="yes"/>
      <point x="123" y="684"/>
      <point x="110" y="545"/>
      <point x="110" y="335" type="curve" smooth="yes"/>
      <point x="110" y="124"/>
      <point x="123" y="-14"/>
      <point x="343" y="-14" type="curve" smooth="yes"/>
      <point x="482" y="-14"/>
      <point x="541" y="45"/>
      <point x="543" y="151" type="curve"/>
      <point x="482" y="155" type="line"/>
      <point x="482" y="83"/>
      <point x="428" y="45"/>
    </contour>
    <contour>
      <point x="47" y="245" type="line"/>
      <point x="405" y="245" type="line"/>
      <point x="405" y="295" type="line"/>
      <point x="47" y="295" type="line"/>
    </contour>
    <contour>
      <point x="47" y="375" type="line"/>
      <point x="405" y="375" type="line"/>
      <point x="405" y="425" type="line"/>
      <point x="47" y="425" type="line"/>
    </contour>
  </outline>
</glyph>
<glyph name="inr_currency" format="1">
  <advance width="595"/>
  <unicode hex="20B9"/>
  <outline>
    <contour>
      <point x="350" y="488" type="curve" smooth="yes"/>
      <point x="351" y="494"/>
      <point x="351" y="499"/>
      <point x="351" y="502" type="curve"/>
      <point x="58" y="502" type="line"/>
      <point x="83" y="563" type="line"/>
      <point x="338" y="563" type="line"/>
      <point x="334" y="571"/>
      <point x="329" y="578"/>
      <point x="323" y="585" type="curve" smooth="yes"/>
      <point x="290" y="621"/>
      <point x="236" y="639"/>
      <point x="161" y="639" type="curve" smooth="yes"/>
      <point x="58" y="639" type="line"/>
      <point x="83" y="700" type="line"/>
      <point x="569" y="700" type="line"/>
      <point x="544" y="639" type="line"/>
      <point x="358" y="639" type="line"/>
      <point x="384" y="624"/>
      <point x="401" y="599"/>
      <point x="410" y="563" type="curve"/>
      <point x="569" y="563" type="line"/>
      <point x="544" y="502" type="line"/>
      <point x="419" y="502" type="line"/>
      <point x="419" y="401"/>
      <point x="335" y="345"/>
      <point x="167" y="332" type="curve"/>
      <point x="495" y="0" type="line"/>
      <point x="397" y="0" type="line"/>
      <point x="68" y="329" type="line"/>
      <point x="68" y="387" type="line"/>
      <point x="248" y="386"/>
      <point x="342" y="419"/>
    </contour>
  </outline>
</glyph>
<glyph name="uni2113" format="1">
  <advance width="313"/>
  <unicode hex="2113"/>
  <outline>
    <contour>
      <point x="279" y="49" type="line"/>
      <point x="257" y="44"/>
      <point x="239" y="41"/>
      <point x="224" y="41" type="curve" smooth="yes"/>
      <point x="185" y="41"/>
      <point x="170" y="63"/>
      <point x="170" y="125" type="curve" smooth="yes"/>
      <point x="170" y="714" type="line"/>
      <point x="100" y="700" type="line"/>
      <point x="100" y="125" type="line" smooth="yes"/>
      <point x="100" y="55"/>
      <point x="108" y="-14"/>
      <point x="202" y="-14" type="curve" smooth="yes"/>
      <point x="225" y="-14"/>
      <point x="252" y="-10"/>
      <point x="288" y="0" type="curve"/>
    </contour>
  </outline>
</glyph>
<glyph name="Delta" format="1">
  <advance width="572"/>
  <unicode hex="2206"/>
  <outline>
    <contour>
      <point x="257" y="670" type="line"/>
      <point x="501" y="0" type="line"/>
      <point x="572" y="0" type="line"/>
      <point x="324" y="670" type="line"/>
    </contour>
    <contour>
      <point x="248" y="670" type="line"/>
      <point x="0" y="0" type="line"/>
      <point x="71" y="0" type="line"/>
      <point x="315" y="670" type="line"/>
    </contour>
    <contour>
      <point x="30" y="0" type="line"/>
      <point x="542" y="0" type="line"/>
      <point x="542" y="50" type="line"/>
      <point x="30" y="50" type="line"/>
    </contour>
  </outline>
</glyph>
<glyph name="summation" format="1">
  <advance width="555"/>
  <unicode hex="2211"/>
  <outline>
    <contour>
      <point x="50" y="620" type="line"/>
      <point x="515" y="620" type="line"/>
      <point x="515" y="670" type="line"/>
      <point x="50" y="670" type="line"/>
    </contour>
    <contour>
      <point x="50" y="-177" type="line"/>
      <point x="515" y="-177" type="line"/>
      <point x="515" y="-127" type="line"/>
      <point x="50" y="-127" type="line"/>
    </contour>
    <contour>
      <point x="128" y="-127" type="line"/>
      <point x="364" y="249" type="line"/>
      <point x="289" y="249" type="line"/>
      <point x="50" y="-127" type="line"/>
    </contour>
    <contour>
      <point x="50" y="620" type="line"/>
      <point x="289" y="249" type="line"/>
      <point x="364" y="249" type="line"/>
      <point x="126" y="620" type="line"/>
    </contour>
  </outline>
</glyph>
<glyph name="integral" format="1">
  <advance width="451"/>
  <unicode hex="222B"/>
  <outline>
    <contour>
      <point x="188" y="-35" type="line" smooth="yes"/>
      <point x="188" y="-141"/>
      <point x="146" y="-181"/>
      <point x="88" y="-181" type="curve" smooth="yes"/>
      <point x="54" y="-181"/>
      <point x="25" y="-174"/>
      <point x="0" y="-159" type="curve"/>
      <point x="-24" y="-211" type="line"/>
      <point x="6" y="-229"/>
      <point x="46" y="-240"/>
      <point x="88" y="-240" type="curve" smooth="yes"/>
      <point x="205" y="-240"/>
      <point x="260" y="-175"/>
      <point x="260" y="-35" type="curve" smooth="yes"/>
      <point x="260" y="479" type="line" smooth="yes"/>
      <point x="260" y="585"/>
      <point x="302" y="625"/>
      <point x="360" y="625" type="curve" smooth="yes"/>
      <point x="394" y="625"/>
      <point x="423" y="618"/>
      <point x="448" y="603" type="curve"/>
      <point x="472" y="655" type="line"/>
      <point x="442" y="673"/>
      <point x="402" y="684"/>
      <point x="360" y="684" type="curve" smooth="yes"/>
      <point x="243" y="684"/>
      <point x="188" y="619"/>
      <point x="188" y="479" type="curve" smooth="yes"/>
    </contour>
  </outline>
</glyph>
<glyph name="dottedcircle" format="1">
  <advance width="1006"/>
  <unicode hex="25CC"/>
  <outline>
    <contour>
      <point x="450" y="706" type="curve" smooth="yes"/>
      <point x="450" y="678"/>
      <point x="474" y="655"/>
      <point x="503" y="655" type="curve" smooth="yes"/>
      <point x="533" y="655"/>
      <point x="556" y="678"/>
      <point x="556" y="706" type="curve" smooth="yes"/>
      <point x="556" y="736"/>
      <point x="533" y="759"/>
      <point x="503" y="759" type="curve" smooth="yes"/>
      <point x="474" y="759"/>
      <point x="450" y="736"/>
    </contour>
    <contour>
      <point x="281" y="660" type="curve" smooth="yes"/>
      <point x="281" y="632"/>
      <point x="305" y="609"/>
      <point x="334" y="609" type="curve" smooth="yes"/>
      <point x="364" y="609"/>
      <point x="387" y="632"/>
      <point x="387" y="660" type="curve" smooth="yes"/>
      <point x="387" y="690"/>
      <point x="364" y="713"/>
      <point x="334" y="713" type="curve" smooth="yes"/>
      <point x="305" y="713"/>
      <point x="281" y="690"/>
    </contour>
    <contour>
      <point x="155" y="535" type="curve" smooth="yes"/>
      <point x="155" y="507"/>
      <point x="179" y="484"/>
      <point x="208" y="484" type="curve" smooth="yes"/>
      <point x="238" y="484"/>
      <point x="261" y="507"/>
      <point x="261" y="535" type="curve" smooth="yes"/>
      <point x="261" y="565"/>
      <point x="238" y="588"/>
      <point x="208" y="588" type="curve" smooth="yes"/>
      <point x="179" y="588"/>
      <point x="155" y="565"/>
    </contour>
    <contour>
      <point x="110" y="364" type="curve" smooth="yes"/>
      <point x="110" y="336"/>
      <point x="134" y="313"/>
      <point x="163" y="313" type="curve" smooth="yes"/>
      <point x="193" y="313"/>
      <point x="216" y="336"/>
      <point x="216" y="364" type="curve" smooth="yes"/>
      <point x="216" y="394"/>
      <point x="193" y="417"/>
      <point x="163" y="417" type="curve" smooth="yes"/>
      <point x="134" y="417"/>
      <point x="110" y="394"/>
    </contour>
    <contour>
      <point x="281" y="68" type="curve" smooth="yes"/>
      <point x="281" y="38"/>
      <point x="305" y="15"/>
      <point x="334" y="15" type="curve" smooth="yes"/>
      <point x="364" y="15"/>
      <point x="387" y="38"/>
      <point x="387" y="68" type="curve" smooth="yes"/>
      <point x="387" y="96"/>
      <point x="364" y="119"/>
      <point x="334" y="119" type="curve" smooth="yes"/>
      <point x="305" y="119"/>
      <point x="281" y="96"/>
    </contour>
    <contour>
      <point x="155" y="193" type="curve" smooth="yes"/>
      <point x="155" y="163"/>
      <point x="179" y="140"/>
      <point x="208" y="140" type="curve" smooth="yes"/>
      <point x="238" y="140"/>
      <point x="261" y="163"/>
      <point x="261" y="193" type="curve" smooth="yes"/>
      <point x="261" y="221"/>
      <point x="238" y="244"/>
      <point x="208" y="244" type="curve" smooth="yes"/>
      <point x="179" y="244"/>
      <point x="155" y="221"/>
    </contour>
    <contour>
      <point x="450" y="22" type="curve" smooth="yes"/>
      <point x="450" y="-8"/>
      <point x="474" y="-31"/>
      <point x="503" y="-31" type="curve" smooth="yes"/>
      <point x="533" y="-31"/>
      <point x="556" y="-8"/>
      <point x="556" y="22" type="curve" smooth="yes"/>
      <point x="556" y="50"/>
      <point x="533" y="73"/>
      <point x="503" y="73" type="curve" smooth="yes"/>
      <point x="474" y="73"/>
      <point x="450" y="50"/>
    </contour>
    <contour>
      <point x="725" y="660" type="curve"/>
      <point x="725" y="690"/>
      <point x="701" y="713"/>
      <point x="672" y="713" type="curve" smooth="yes"/>
      <point x="642" y="713"/>
      <point x="619" y="690"/>
      <point x="619" y="660" type="curve" smooth="yes"/>
      <point x="619" y="632"/>
      <point x="642" y="609"/>
      <point x="672" y="609" type="curve" smooth="yes"/>
      <point x="701" y="609"/>
      <point x="725" y="632"/>
    </contour>
    <contour>
      <point x="851" y="535" type="curve" smooth="yes"/>
      <point x="851" y="565"/>
      <point x="827" y="588"/>
      <point x="798" y="588" type="curve" smooth="yes"/>
      <point x="768" y="588"/>
      <point x="745" y="565"/>
      <point x="745" y="535" type="curve" smooth="yes"/>
      <point x="745" y="507"/>
      <point x="768" y="484"/>
      <point x="798" y="484" type="curve" smooth="yes"/>
      <point x="827" y="484"/>
      <point x="851" y="507"/>
    </contour>
    <contour>
      <point x="896" y="364" type="curve" smooth="yes"/>
      <point x="896" y="394"/>
      <point x="872" y="417"/>
      <point x="843" y="417" type="curve" smooth="yes"/>
      <point x="813" y="417"/>
      <point x="790" y="394"/>
      <point x="790" y="364" type="curve" smooth="yes"/>
      <point x="790" y="336"/>
      <point x="813" y="313"/>
      <point x="843" y="313" type="curve" smooth="yes"/>
      <point x="872" y="313"/>
      <point x="896" y="336"/>
    </contour>
    <contour>
      <point x="725" y="68" type="curve" smooth="yes"/>
      <point x="725" y="96"/>
      <point x="701" y="119"/>
      <point x="672" y="119" type="curve" smooth="yes"/>
      <point x="642" y="119"/>
      <point x="619" y="96"/>
      <point x="619" y="68" type="curve" smooth="yes"/>
      <point x="619" y="38"/>
      <point x="642" y="15"/>
      <point x="672" y="15" type="curve" smooth="yes"/>
      <point x="701" y="15"/>
      <point x="725" y="38"/>
    </contour>
    <contour>
      <point x="851" y="193" type="curve" smooth="yes"/>
      <point x="851" y="221"/>
      <point x="827" y="244"/>
      <point x="798" y="244" type="curve" smooth="yes"/>
      <point x="768" y="244"/>
      <point x="745" y="221"/>
      <point x="745" y="193" type="curve" smooth="yes"/>
      <point x="745" y="163"/>
      <point x="768" y="140"/>
      <point x="798" y="140" type="curve" smooth="yes"/>
      <point x="827" y="140"/>
      <point x="851" y="163"/>
    </contour>
  </outline>
</glyph>
<glyph name="ucombiningletterdeva" format="1">
  <advance width="271"/>
  <unicode hex="A8EB"/>
  <outline>
    <contour>
      <point x="-150" y="730" type="move" name="_DVAnchor3"/>
    </contour>
    <contour>
      <point x="-154" y="1096" type="line"/>
      <point x="-113" y="1096"/>
      <point x="-99" y="1076"/>
      <point x="-99" y="1046" type="curve" smooth="yes"/>
      <point x="-99" y="1018"/>
      <point x="-114" y="996"/>
      <point x="-154" y="996" type="curve" smooth="yes"/>
      <point x="-183" y="996" type="line"/>
      <point x="-183" y="968" type="line"/>
      <point x="-150" y="968" type="line" smooth="yes"/>
      <point x="-98" y="968"/>
      <point x="-50" y="995"/>
      <point x="-50" y="1047" type="curve" smooth="yes"/>
      <point x="-50" y="1090"/>
      <point x="-77" y="1120"/>
      <point x="-154" y="1120" type="curve"/>
    </contour>
    <contour>
      <point x="-265" y="903" type="line"/>
      <point x="-251" y="848"/>
      <point x="-210" y="818"/>
      <point x="-149" y="818" type="curve" smooth="yes"/>
      <point x="-77" y="818"/>
      <point x="-46" y="854"/>
      <point x="-46" y="906" type="curve" smooth="yes"/>
      <point x="-46" y="963"/>
      <point x="-87" y="988"/>
      <point x="-145" y="988" type="curve" smooth="yes"/>
      <point x="-183" y="988" type="line"/>
      <point x="-183" y="960" type="line"/>
      <point x="-154" y="960" type="line" smooth="yes"/>
      <point x="-120" y="960"/>
      <point x="-95" y="942"/>
      <point x="-95" y="907" type="curve" smooth="yes"/>
      <point x="-95" y="876"/>
      <point x="-110" y="858"/>
      <point x="-151" y="858" type="curve" smooth="yes"/>
      <point x="-185" y="858"/>
      <point x="-210" y="875"/>
      <point x="-220" y="915" type="curve"/>
    </contour>
    <contour>
      <point x="-293" y="1096" type="line"/>
      <point x="-12" y="1096" type="line"/>
      <point x="-12" y="1129" type="line"/>
      <point x="-293" y="1129" type="line"/>
    </contour>
  </outline>
</glyph>
<glyph name="pacombiningletterdeva" format="1">
  <advance width="289"/>
  <unicode hex="A8EE"/>
  <outline>
    <contour>
      <point x="-151" y="730" type="move" name="_DVAnchor3"/>
    </contour>
    <contour>
      <point x="-151" y="1096" type="line"/>
      <point x="-151" y="1003" type="line" smooth="yes"/>
      <point x="-151" y="970"/>
      <point x="-155" y="943"/>
      <point x="-204" y="943" type="curve" smooth="yes"/>
      <point x="-254" y="943"/>
      <point x="-257" y="970"/>
      <point x="-257" y="1003" type="curve" smooth="yes"/>
      <point x="-257" y="1096" type="line"/>
      <point x="-306" y="1096" type="line"/>
      <point x="-306" y="1003" type="line" smooth="yes"/>
      <point x="-306" y="952"/>
      <point x="-297" y="904"/>
      <point x="-218" y="904" type="curve" smooth="yes"/>
      <point x="-134" y="904"/>
      <point x="-127" y="952"/>
      <point x="-127" y="1003" type="curve" smooth="yes"/>
      <point x="-127" y="1096" type="line"/>
    </contour>
    <contour>
      <point x="-349" y="1096" type="line"/>
      <point x="-50" y="1096" type="line"/>
      <point x="-50" y="1129" type="line"/>
      <point x="-349" y="1129" type="line"/>
    </contour>
    <contour>
      <point x="-151" y="800" type="line"/>
      <point x="-102" y="800" type="line"/>
      <point x="-102" y="1096" type="line"/>
      <point x="-151" y="1096" type="line"/>
    </contour>
  </outline>
</glyph>
<glyph name="avagrahacombiningsigndeva" format="1">
  <advance width="0"/>
  <unicode hex="A8F1"/>
  <outline>
    <contour>
      <point x="-150" y="730" type="move" name="_DVAnchor3"/>
    </contour>
    <contour>
      <point x="-46" y="894" type="curve" smooth="yes"/>
      <point x="-46" y="825"/>
      <point x="-90" y="803"/>
      <point x="-147" y="803" type="curve" smooth="yes"/>
      <point x="-224" y="803"/>
      <point x="-257" y="858"/>
      <point x="-257" y="939" type="curve"/>
      <point x="-209" y="945" type="line"/>
      <point x="-209" y="881"/>
      <point x="-190" y="842"/>
      <point x="-147" y="842" type="curve" smooth="yes"/>
      <point x="-116" y="842"/>
      <point x="-95" y="858"/>
      <point x="-95" y="894" type="curve" smooth="yes"/>
      <point x="-95" y="970"/>
      <point x="-239" y="970"/>
      <point x="-239" y="1058" type="curve" smooth="yes"/>
      <point x="-239" y="1105"/>
      <point x="-205" y="1129"/>
      <point x="-160" y="1129" type="curve" smooth="yes"/>
      <point x="-83" y="1129" type="line"/>
      <point x="-83" y="1096" type="line"/>
      <point x="-150" y="1096" type="line" smooth="yes"/>
      <point x="-178" y="1096"/>
      <point x="-190" y="1080"/>
      <point x="-190" y="1058" type="curve" smooth="yes"/>
      <point x="-190" y="1001"/>
      <point x="-46" y="999"/>
    </contour>
  </outline>
</glyph>
<glyph name="candrabindudigittwodeva" format="1">
  <advance width="539"/>
  <unicode hex="A8F5"/>
  <outline>
    <contour>
      <point x="207" y="20" type="line"/>
      <point x="218" y="18"/>
      <point x="231" y="18"/>
      <point x="242" y="18" type="curve" smooth="yes"/>
      <point x="364" y="18"/>
      <point x="437" y="92"/>
      <point x="437" y="196" type="curve" smooth="yes"/>
      <point x="437" y="293"/>
      <point x="383" y="363"/>
      <point x="247" y="363" type="curve" smooth="yes"/>
      <point x="197" y="363"/>
      <point x="149" y="348"/>
      <point x="108" y="321" type="curve"/>
      <point x="131" y="282" type="line"/>
      <point x="164" y="302"/>
      <point x="204" y="315"/>
      <point x="243" y="315" type="curve" smooth="yes"/>
      <point x="334" y="315"/>
      <point x="383" y="276"/>
      <point x="383" y="196" type="curve" smooth="yes"/>
      <point x="383" y="110"/>
      <point x="316" y="65"/>
      <point x="238" y="65" type="curve" smooth="yes"/>
      <point x="221" y="65"/>
      <point x="206" y="65"/>
      <point x="192" y="69" type="curve"/>
    </contour>
    <contour>
      <point x="365" y="-84" type="line"/>
      <point x="251" y="-13"/>
      <point x="200" y="73"/>
      <point x="194" y="167" type="curve"/>
      <point x="94" y="184"/>
      <point x="88" y="52"/>
      <point x="185" y="23" type="curve"/>
      <point x="220" y="-28"/>
      <point x="268" y="-77"/>
      <point x="337" y="-123" type="curve"/>
    </contour>
    <component base="spacingcandrabindudeva"/>
  </outline>
</glyph>
<glyph name="apple" format="1">
  <advance width="923"/>
  <unicode hex="F8FF"/>
  <outline>
    <contour>
      <point x="556" y="-89" type="curve" smooth="yes"/>
      <point x="559" y="-88"/>
      <point x="563" y="-88"/>
      <point x="566" y="-88" type="curve" smooth="yes"/>
      <point x="574" y="-88"/>
      <point x="581" y="-89"/>
      <point x="589" y="-89" type="curve" smooth="yes"/>
      <point x="615" y="-89"/>
      <point x="617" y="-70"/>
      <point x="634" y="-60" type="curve" smooth="yes"/>
      <point x="649" y="-52"/>
      <point x="670" y="-51"/>
      <point x="683" y="-42" type="curve" smooth="yes"/>
      <point x="696" y="-33"/>
      <point x="701" y="-11"/>
      <point x="713" y="1" type="curve" smooth="yes"/>
      <point x="723" y="11"/>
      <point x="739" y="12"/>
      <point x="748" y="23" type="curve" smooth="yes"/>
      <point x="759" y="36"/>
      <point x="758" y="60"/>
      <point x="766" y="74" type="curve" smooth="yes"/>
      <point x="776" y="91"/>
      <point x="800" y="92"/>
      <point x="800" y="120" type="curve" smooth="yes"/>
      <point x="800" y="130"/>
      <point x="798" y="141"/>
      <point x="798" y="152" type="curve" smooth="yes"/>
      <point x="798" y="177"/>
      <point x="820" y="180"/>
      <point x="823" y="200" type="curve"/>
      <point x="823" y="214"/>
      <point x="812" y="229"/>
      <point x="812" y="244" type="curve" smooth="yes"/>
      <point x="812" y="257"/>
      <point x="823" y="269"/>
      <point x="823" y="283" type="curve" smooth="yes"/>
      <point x="823" y="305"/>
      <point x="799" y="319"/>
      <point x="799" y="344" type="curve" smooth="yes"/>
      <point x="799" y="352"/>
      <point x="800" y="360"/>
      <point x="800" y="369" type="curve" smooth="yes"/>
      <point x="800" y="397"/>
      <point x="775" y="400"/>
      <point x="764" y="418" type="curve" smooth="yes"/>
      <point x="758" y="428"/>
      <point x="763" y="450"/>
      <point x="757" y="460" type="curve" smooth="yes"/>
      <point x="746" y="479"/>
      <point x="720" y="483"/>
      <point x="706" y="496" type="curve" smooth="yes"/>
      <point x="694" y="508"/>
      <point x="696" y="526"/>
      <point x="683" y="535" type="curve" smooth="yes"/>
      <point x="669" y="545"/>
      <point x="653" y="542"/>
      <point x="638" y="550" type="curve" smooth="yes"/>
      <point x="619" y="560"/>
      <point x="617" y="586"/>
      <point x="590" y="586" type="curve" smooth="yes"/>
      <point x="580" y="586"/>
      <point x="570" y="583"/>
      <point x="562" y="583" type="curve" smooth="yes"/>
      <point x="538" y="583"/>
      <point x="531" y="608"/>
      <point x="505" y="608" type="curve" smooth="yes"/>
      <point x="491" y="608"/>
      <point x="474" y="596"/>
      <point x="460" y="596" type="curve" smooth="yes"/>
      <point x="447" y="596"/>
      <point x="429" y="608"/>
      <point x="416" y="608" type="curve" smooth="yes"/>
      <point x="394" y="608"/>
      <point x="386" y="585"/>
      <point x="361" y="585" type="curve" smooth="yes"/>
      <point x="352" y="585"/>
      <point x="343" y="587"/>
      <point x="335" y="587" type="curve" smooth="yes"/>
      <point x="310" y="586"/>
      <point x="303" y="558"/>
      <point x="286" y="549" type="curve" smooth="yes"/>
      <point x="270" y="541"/>
      <point x="248" y="543"/>
      <point x="235" y="532" type="curve" smooth="yes"/>
      <point x="224" y="522"/>
      <point x="220" y="501"/>
      <point x="210" y="491" type="curve" smooth="yes"/>
      <point x="199" y="480"/>
      <point x="178" y="480"/>
      <point x="170" y="467" type="curve" smooth="yes"/>
      <point x="163" y="456"/>
      <point x="166" y="435"/>
      <point x="159" y="424" type="curve" smooth="yes"/>
      <point x="149" y="407"/>
      <point x="124" y="401"/>
      <point x="124" y="376" type="curve" smooth="yes"/>
      <point x="124" y="368"/>
      <point x="125" y="359"/>
      <point x="125" y="351" type="curve" smooth="yes"/>
      <point x="125" y="332"/>
      <point x="100" y="311"/>
      <point x="100" y="290" type="curve" smooth="yes"/>
      <point x="100" y="275"/>
      <point x="112" y="265"/>
      <point x="112" y="248" type="curve" smooth="yes"/>
      <point x="112" y="233"/>
      <point x="100" y="218"/>
      <point x="100" y="204" type="curve" smooth="yes"/>
      <point x="100" y="183"/>
      <point x="125" y="168"/>
      <point x="125" y="149" type="curve" smooth="yes"/>
      <point x="125" y="141"/>
      <point x="122" y="133"/>
      <point x="122" y="124" type="curve" smooth="yes"/>
      <point x="122" y="98"/>
      <point x="148" y="87"/>
      <point x="156" y="75" type="curve" smooth="yes"/>
      <point x="167" y="57"/>
      <point x="160" y="46"/>
      <point x="171" y="28" type="curve" smooth="yes"/>
      <point x="181" y="12"/>
      <point x="197" y="15"/>
      <point x="210" y="4" type="curve" smooth="yes"/>
      <point x="223" y="-7"/>
      <point x="222" y="-31"/>
      <point x="240" y="-42" type="curve" smooth="yes"/>
      <point x="256" y="-52"/>
      <point x="263" y="-43"/>
      <point x="286" y="-55" type="curve" smooth="yes"/>
      <point x="299" y="-62"/>
      <point x="311" y="-91"/>
      <point x="337" y="-91" type="curve" smooth="yes"/>
      <point x="344" y="-91"/>
      <point x="353" y="-89"/>
      <point x="361" y="-89" type="curve" smooth="yes"/>
      <point x="385" y="-89"/>
      <point x="396" y="-114"/>
      <point x="416" y="-114" type="curve" smooth="yes"/>
      <point x="431" y="-114"/>
      <point x="446" y="-102"/>
      <point x="462" y="-102" type="curve" smooth="yes"/>
      <point x="477" y="-102"/>
      <point x="493" y="-112"/>
      <point x="508" y="-112" type="curve" smooth="yes"/>
      <point x="525" y="-112"/>
      <point x="538" y="-94"/>
    </contour>
    <contour>
      <point x="530" y="3" type="curve" smooth="yes"/>
      <point x="517" y="0"/>
      <point x="507" y="-13"/>
      <point x="495" y="-13" type="curve" smooth="yes"/>
      <point x="484" y="-13"/>
      <point x="473" y="-6"/>
      <point x="462" y="-6" type="curve" smooth="yes"/>
      <point x="450" y="-6"/>
      <point x="438" y="-15"/>
      <point x="426" y="-15" type="curve"/>
      <point x="412" y="-13"/>
      <point x="405" y="3"/>
      <point x="386" y="3" type="curve" smooth="yes"/>
      <point x="381" y="3"/>
      <point x="376" y="2"/>
      <point x="371" y="2" type="curve" smooth="yes"/>
      <point x="352" y="2"/>
      <point x="345" y="23"/>
      <point x="334" y="28" type="curve" smooth="yes"/>
      <point x="317" y="37"/>
      <point x="312" y="29"/>
      <point x="301" y="37" type="curve" smooth="yes"/>
      <point x="288" y="45"/>
      <point x="289" y="63"/>
      <point x="279" y="71" type="curve" smooth="yes"/>
      <point x="270" y="79"/>
      <point x="258" y="77"/>
      <point x="251" y="88" type="curve" smooth="yes"/>
      <point x="243" y="101"/>
      <point x="248" y="110"/>
      <point x="240" y="123" type="curve" smooth="yes"/>
      <point x="235" y="132"/>
      <point x="215" y="139"/>
      <point x="215" y="158" type="curve" smooth="yes"/>
      <point x="215" y="163"/>
      <point x="217" y="169"/>
      <point x="217" y="174" type="curve" smooth="yes"/>
      <point x="217" y="189"/>
      <point x="200" y="200"/>
      <point x="200" y="215" type="curve" smooth="yes"/>
      <point x="200" y="226"/>
      <point x="208" y="237"/>
      <point x="208" y="248" type="curve" smooth="yes"/>
      <point x="208" y="260"/>
      <point x="200" y="267"/>
      <point x="200" y="278" type="curve" smooth="yes"/>
      <point x="200" y="294"/>
      <point x="217" y="308"/>
      <point x="217" y="324" type="curve" smooth="yes"/>
      <point x="217" y="329"/>
      <point x="216" y="335"/>
      <point x="216" y="340" type="curve" smooth="yes"/>
      <point x="216" y="359"/>
      <point x="235" y="363"/>
      <point x="242" y="376" type="curve" smooth="yes"/>
      <point x="247" y="384"/>
      <point x="245" y="399"/>
      <point x="250" y="407" type="curve" smooth="yes"/>
      <point x="257" y="416"/>
      <point x="271" y="416"/>
      <point x="279" y="424" type="curve" smooth="yes"/>
      <point x="287" y="432"/>
      <point x="289" y="447"/>
      <point x="298" y="454" type="curve" smooth="yes"/>
      <point x="307" y="462"/>
      <point x="323" y="460"/>
      <point x="334" y="466" type="curve" smooth="yes"/>
      <point x="347" y="472"/>
      <point x="351" y="493"/>
      <point x="370" y="493" type="curve" smooth="yes"/>
      <point x="376" y="493"/>
      <point x="381" y="492"/>
      <point x="387" y="492" type="curve" smooth="yes"/>
      <point x="406" y="492"/>
      <point x="413" y="509"/>
      <point x="429" y="509" type="curve" smooth="yes"/>
      <point x="439" y="509"/>
      <point x="451" y="500"/>
      <point x="461" y="500" type="curve" smooth="yes"/>
      <point x="471" y="500"/>
      <point x="483" y="509"/>
      <point x="494" y="509" type="curve" smooth="yes"/>
      <point x="513" y="509"/>
      <point x="516" y="491"/>
      <point x="535" y="491" type="curve" smooth="yes"/>
      <point x="541" y="491"/>
      <point x="548" y="493"/>
      <point x="555" y="493" type="curve" smooth="yes"/>
      <point x="575" y="493"/>
      <point x="576" y="474"/>
      <point x="589" y="467" type="curve" smooth="yes"/>
      <point x="601" y="460"/>
      <point x="612" y="464"/>
      <point x="622" y="456" type="curve" smooth="yes"/>
      <point x="632" y="449"/>
      <point x="630" y="436"/>
      <point x="639" y="428" type="curve" smooth="yes"/>
      <point x="649" y="418"/>
      <point x="668" y="415"/>
      <point x="676" y="402" type="curve" smooth="yes"/>
      <point x="680" y="394"/>
      <point x="677" y="379"/>
      <point x="681" y="371" type="curve" smooth="yes"/>
      <point x="689" y="357"/>
      <point x="707" y="356"/>
      <point x="707" y="335" type="curve" smooth="yes"/>
      <point x="707" y="329"/>
      <point x="706" y="323"/>
      <point x="706" y="318" type="curve" smooth="yes"/>
      <point x="706" y="300"/>
      <point x="724" y="289"/>
      <point x="724" y="273" type="curve" smooth="yes"/>
      <point x="724" y="264"/>
      <point x="716" y="254"/>
      <point x="716" y="245" type="curve" smooth="yes"/>
      <point x="716" y="234"/>
      <point x="724" y="223"/>
      <point x="724" y="213" type="curve"/>
      <point x="721" y="199"/>
      <point x="706" y="196"/>
      <point x="706" y="177" type="curve" smooth="yes"/>
      <point x="706" y="171"/>
      <point x="707" y="164"/>
      <point x="707" y="157" type="curve" smooth="yes"/>
      <point x="707" y="133"/>
      <point x="691" y="136"/>
      <point x="683" y="122" type="curve" smooth="yes"/>
      <point x="677" y="111"/>
      <point x="677" y="94"/>
      <point x="670" y="84" type="curve" smooth="yes"/>
      <point x="663" y="76"/>
      <point x="651" y="76"/>
      <point x="644" y="68" type="curve" smooth="yes"/>
      <point x="636" y="60"/>
      <point x="632" y="45"/>
      <point x="622" y="38" type="curve" smooth="yes"/>
      <point x="613" y="31"/>
      <point x="597" y="30"/>
      <point x="587" y="24" type="curve"/>
      <point x="575" y="19"/>
      <point x="574" y="3"/>
      <point x="554" y="3" type="curve" smooth="yes"/>
      <point x="549" y="3"/>
      <point x="544" y="4"/>
      <point x="539" y="4" type="curve" smooth="yes"/>
      <point x="536" y="4"/>
      <point x="533" y="4"/>
    </contour>
    <contour>
      <point x="462" y="417" type="curve" smooth="yes"/>
      <point x="368" y="417"/>
      <point x="292" y="341"/>
      <point x="292" y="247" type="curve" smooth="yes"/>
      <point x="292" y="153"/>
      <point x="368" y="77"/>
      <point x="462" y="77" type="curve" smooth="yes"/>
      <point x="556" y="77"/>
      <point x="632" y="153"/>
      <point x="632" y="247" type="curve" smooth="yes"/>
      <point x="632" y="341"/>
      <point x="556" y="417"/>
    </contour>
    <contour>
      <point x="505" y="292" type="line"/>
      <point x="505" y="117" type="line"/>
      <point x="420" y="117" type="line"/>
      <point x="420" y="292" type="line"/>
      <point x="366" y="292" type="line"/>
      <point x="366" y="360" type="line"/>
      <point x="557" y="360" type="line"/>
      <point x="557" y="292" type="line"/>
    </contour>
  </outline>
</glyph>
<glyph name="barra" format="1">
  <advance width="382"/>
  <outline>
    <contour>
      <point x="382" y="317" type="line"/>
      <point x="382" y="367" type="line"/>
      <point x="0" y="367" type="line"/>
      <point x="0" y="317" type="line"/>
    </contour>
  </outline>
</glyph>
<glyph name="bhadeva_viramadeva" format="1">
  <advance width="444"/>
  <outline>
    <contour>
      <point x="569" y="730" type="line"/>
      <point x="439" y="730" type="line"/>
      <point x="439" y="680" type="line"/>
      <point x="569" y="680" type="line"/>
    </contour>
    <contour>
      <point x="594" y="385" type="line"/>
      <point x="319" y="385" type="line"/>
      <point x="319" y="582" type="line"/>
      <point x="252" y="582" type="line"/>
      <point x="252" y="385" type="line"/>
      <point x="206" y="385" type="line" smooth="yes"/>
      <point x="184" y="385"/>
      <point x="178" y="376"/>
      <point x="178" y="347" type="curve" smooth="yes"/>
      <point x="178" y="292"/>
      <point x="266" y="241"/>
      <point x="296" y="241" type="curve" smooth="yes"/>
      <point x="308" y="241"/>
      <point x="319" y="244"/>
      <point x="319" y="262" type="curve" smooth="yes"/>
      <point x="319" y="335" type="line"/>
      <point x="594" y="335" type="line"/>
    </contour>
    <contour>
      <point x="319" y="582" type="line"/>
      <point x="319" y="674"/>
      <point x="289" y="744"/>
      <point x="174" y="744" type="curve" smooth="yes"/>
      <point x="49" y="744"/>
      <point x="30" y="664"/>
      <point x="30" y="603" type="curve" smooth="yes"/>
      <point x="30" y="545"/>
      <point x="56" y="492"/>
      <point x="116" y="469" type="curve"/>
      <point x="146" y="511" type="line"/>
      <point x="118" y="526"/>
      <point x="98" y="555"/>
      <point x="98" y="602" type="curve" smooth="yes"/>
      <point x="98" y="656"/>
      <point x="116" y="694"/>
      <point x="174" y="694" type="curve" smooth="yes"/>
      <point x="234" y="694"/>
      <point x="252" y="648"/>
      <point x="252" y="582" type="curve"/>
    </contour>
  </outline>
</glyph>
<glyph name="cadeva_viramadeva_cadeva" format="1">
  <advance width="681"/>
  <outline>
    <contour>
      <point x="531" y="394" type="line"/>
      <point x="488" y="338"/>
      <point x="403" y="298"/>
      <point x="308" y="298" type="curve" smooth="yes"/>
      <point x="211" y="298"/>
      <point x="177" y="335"/>
      <point x="177" y="384" type="curve" smooth="yes"/>
      <point x="177" y="434"/>
      <point x="220" y="487"/>
      <point x="344" y="487" type="curve"/>
      <point x="339" y="517" type="line"/>
      <point x="171" y="517"/>
      <point x="109" y="447"/>
      <point x="109" y="378" type="curve" smooth="yes"/>
      <point x="109" y="306"/>
      <point x="165" y="252"/>
      <point x="300" y="252" type="curve" smooth="yes"/>
      <point x="417" y="252"/>
      <point x="494" y="295"/>
      <point x="531" y="340" type="curve"/>
    </contour>
    <contour>
      <point x="375" y="536" type="line"/>
      <point x="13" y="536" type="line"/>
      <point x="13" y="487" type="line"/>
      <point x="375" y="487" type="line"/>
    </contour>
    <contour>
      <point x="531" y="156" type="line"/>
      <point x="488" y="100"/>
      <point x="403" y="60"/>
      <point x="308" y="60" type="curve" smooth="yes"/>
      <point x="211" y="60"/>
      <point x="177" y="97"/>
      <point x="177" y="146" type="curve" smooth="yes"/>
      <point x="177" y="198"/>
      <point x="220" y="255"/>
      <point x="343" y="255" type="curve"/>
      <point x="339" y="279" type="line"/>
      <point x="171" y="279"/>
      <point x="109" y="208"/>
      <point x="109" y="140" type="curve" smooth="yes"/>
      <point x="109" y="68"/>
      <point x="165" y="13"/>
      <point x="300" y="13" type="curve" smooth="yes"/>
      <point x="417" y="13"/>
      <point x="494" y="57"/>
      <point x="531" y="102" type="curve"/>
    </contour>
    <contour>
      <point x="252" y="298" type="line"/>
      <point x="13" y="298" type="line"/>
      <point x="13" y="249" type="line"/>
      <point x="252" y="249" type="line"/>
    </contour>
    <contour>
      <point x="496" y="679" type="line"/>
      <point x="496" y="-1" type="line"/>
      <point x="566" y="-1" type="line"/>
      <point x="566" y="679" type="line"/>
      <point x="691" y="679" type="line"/>
      <point x="691" y="729" type="line"/>
      <point x="-10" y="729" type="line"/>
      <point x="-10" y="679" type="line"/>
    </contour>
  </outline>
</glyph>
<glyph name="chadeva_viramadeva" format="1">
  <advance width="754"/>
  <outline>
    <contour>
      <point x="272" y="720" type="line"/>
      <point x="97" y="720"/>
      <point x="38" y="654"/>
      <point x="38" y="559" type="curve" smooth="yes"/>
      <point x="38" y="465"/>
      <point x="137" y="394"/>
      <point x="250" y="394" type="curve" smooth="yes"/>
      <point x="314" y="394" type="line"/>
      <point x="314" y="436" type="line"/>
      <point x="249" y="436" type="line" smooth="yes"/>
      <point x="160" y="436"/>
      <point x="108" y="491"/>
      <point x="108" y="556" type="curve" smooth="yes"/>
      <point x="108" y="630"/>
      <point x="143" y="680"/>
      <point x="272" y="680" type="curve"/>
    </contour>
    <contour>
      <point x="764" y="730" type="line"/>
      <point x="-10" y="730" type="line"/>
      <point x="-10" y="680" type="line"/>
      <point x="764" y="680" type="line"/>
    </contour>
    <contour>
      <point x="727" y="364" type="curve" smooth="yes"/>
      <point x="727" y="464"/>
      <point x="711" y="557"/>
      <point x="560" y="557" type="curve" smooth="yes"/>
      <point x="409" y="557"/>
      <point x="393" y="464"/>
      <point x="393" y="364" type="curve" smooth="yes"/>
      <point x="393" y="270"/>
      <point x="410" y="189"/>
      <point x="554" y="151" type="curve"/>
      <point x="579" y="197" type="line"/>
      <point x="464" y="227"/>
      <point x="456" y="295"/>
      <point x="456" y="364" type="curve" smooth="yes"/>
      <point x="456" y="437"/>
      <point x="462" y="506"/>
      <point x="559" y="506" type="curve" smooth="yes"/>
      <point x="658" y="506"/>
      <point x="663" y="437"/>
      <point x="663" y="364" type="curve" smooth="yes"/>
      <point x="663" y="213"/>
      <point x="466" y="103"/>
      <point x="271" y="103" type="curve" smooth="yes"/>
      <point x="159" y="103"/>
      <point x="108" y="152"/>
      <point x="108" y="233" type="curve" smooth="yes"/>
      <point x="108" y="315"/>
      <point x="152" y="386"/>
      <point x="259" y="386" type="curve" smooth="yes"/>
      <point x="314" y="386" type="line"/>
      <point x="314" y="429" type="line"/>
      <point x="248" y="429" type="line" smooth="yes"/>
      <point x="137" y="429"/>
      <point x="38" y="367"/>
      <point x="38" y="235" type="curve" smooth="yes"/>
      <point x="38" y="112"/>
      <point x="120" y="45"/>
      <point x="271" y="45" type="curve" smooth="yes"/>
      <point x="476" y="45"/>
      <point x="727" y="183"/>
    </contour>
  </outline>
</glyph>
<glyph name="commaaccent" format="1">
  <advance width="300"/>
  <outline>
    <contour>
      <point x="107" y="-82" type="curve" smooth="yes"/>
      <point x="107" y="-112"/>
      <point x="118" y="-132"/>
      <point x="118" y="-159" type="curve" smooth="yes"/>
      <point x="118" y="-190"/>
      <point x="106" y="-208"/>
      <point x="91" y="-226" type="curve"/>
      <point x="113" y="-249" type="line"/>
      <point x="147" y="-221"/>
      <point x="194" y="-161"/>
      <point x="194" y="-87" type="curve" smooth="yes"/>
      <point x="194" y="-62"/>
      <point x="188" y="-35"/>
      <point x="150" y="-35" type="curve" smooth="yes"/>
      <point x="113" y="-35"/>
      <point x="107" y="-62"/>
    </contour>
  </outline>
</glyph>
<glyph name="dadeva_viramadeva_bhadeva" format="1">
  <advance width="800"/>
  <outline>
    <contour>
      <point x="700" y="10" type="move" name="DVAnchor0"/>
    </contour>
    <contour>
      <point x="238" y="164" type="line"/>
      <point x="221" y="202"/>
      <point x="194" y="239"/>
      <point x="147" y="239" type="curve" smooth="yes"/>
      <point x="85" y="239"/>
      <point x="18" y="205"/>
      <point x="18" y="132" type="curve" smooth="yes"/>
      <point x="18" y="67"/>
      <point x="72" y="30"/>
      <point x="128" y="25" type="curve"/>
      <point x="140" y="76" type="line"/>
      <point x="107" y="81"/>
      <point x="82" y="111"/>
      <point x="82" y="143" type="curve" smooth="yes"/>
      <point x="82" y="171"/>
      <point x="111" y="187"/>
      <point x="133" y="187" type="curve" smooth="yes"/>
      <point x="159" y="187"/>
      <point x="171" y="170"/>
      <point x="185" y="140" type="curve"/>
    </contour>
    <contour>
      <point x="314" y="-2" type="line"/>
      <point x="238" y="164" type="line"/>
      <point x="185" y="140" type="line"/>
      <point x="261" y="-26" type="line"/>
    </contour>
    <contour>
      <point x="656" y="155" type="line"/>
      <point x="696" y="176"/>
      <point x="703" y="195"/>
      <point x="703" y="218" type="curve" smooth="yes"/>
      <point x="703" y="263"/>
      <point x="650" y="299"/>
      <point x="595" y="299" type="curve" smooth="yes"/>
      <point x="544" y="299"/>
      <point x="532" y="264"/>
      <point x="576" y="175" type="curve" smooth="yes"/>
      <point x="682" y="-39" type="line"/>
      <point x="744" y="-9" type="line"/>
    </contour>
    <contour>
      <point x="685" y="680" type="line"/>
      <point x="810" y="680" type="line"/>
      <point x="810" y="730" type="line"/>
      <point x="685" y="730" type="line"/>
    </contour>
    <contour>
      <point x="646" y="236" type="line"/>
      <point x="623" y="199"/>
      <point x="579" y="175"/>
      <point x="505" y="175" type="curve" smooth="yes"/>
      <point x="396" y="175"/>
      <point x="351" y="223"/>
      <point x="351" y="336" type="curve" smooth="yes"/>
      <point x="351" y="442"/>
      <point x="397" y="485"/>
      <point x="520" y="485" type="curve" smooth="yes"/>
      <point x="685" y="485" type="line"/>
      <point x="685" y="730" type="line"/>
      <point x="-10" y="730" type="line"/>
      <point x="-10" y="680" type="line"/>
      <point x="615" y="680" type="line"/>
      <point x="615" y="535" type="line"/>
      <point x="511" y="535" type="line" smooth="yes"/>
      <point x="345" y="535"/>
      <point x="281" y="465"/>
      <point x="281" y="336" type="curve" smooth="yes"/>
      <point x="281" y="194"/>
      <point x="349" y="116"/>
      <point x="499" y="116" type="curve" smooth="yes"/>
      <point x="558" y="116"/>
      <point x="642" y="137"/>
      <point x="677" y="175" type="curve"/>
    </contour>
    <contour>
      <point x="619" y="195" type="line"/>
      <point x="200" y="0" type="line" smooth="yes"/>
      <point x="181" y="-9"/>
      <point x="175" y="-17"/>
      <point x="175" y="-31" type="curve" smooth="yes"/>
      <point x="175" y="-84"/>
      <point x="247" y="-104"/>
      <point x="292" y="-104" type="curve" smooth="yes"/>
      <point x="310" y="-104"/>
      <point x="359" y="-101"/>
      <point x="344" y="-68" type="curve" smooth="yes"/>
      <point x="314" y="-2" type="line"/>
      <point x="619" y="140" type="line"/>
    </contour>
  </outline>
</glyph>
<glyph name="dadeva_viramadeva_dadeva" format="1">
  <advance width="621"/>
  <outline>
    <contour>
      <point x="542" y="-64" type="move" name="DVAnchor0"/>
    </contour>
    <contour>
      <point x="243" y="325" type="line"/>
      <point x="174" y="345"/>
      <point x="143" y="380"/>
      <point x="143" y="425" type="curve" smooth="yes"/>
      <point x="143" y="471"/>
      <point x="174" y="506"/>
      <point x="261" y="506" type="curve"/>
      <point x="261" y="566" type="line"/>
      <point x="132" y="566"/>
      <point x="73" y="504"/>
      <point x="73" y="422" type="curve" smooth="yes"/>
      <point x="73" y="342"/>
      <point x="122" y="303"/>
      <point x="200" y="277" type="curve"/>
    </contour>
    <contour>
      <point x="495" y="566" type="line"/>
      <point x="495" y="680" type="line"/>
      <point x="631" y="680" type="line"/>
      <point x="631" y="730" type="line"/>
      <point x="-10" y="730" type="line"/>
      <point x="-10" y="680" type="line"/>
      <point x="425" y="680" type="line"/>
      <point x="425" y="566" type="line"/>
    </contour>
    <contour>
      <point x="261" y="506" type="line"/>
      <point x="495" y="506" type="line"/>
      <point x="495" y="566" type="line"/>
      <point x="261" y="566" type="line"/>
    </contour>
    <contour>
      <point x="543" y="136" type="curve" smooth="yes"/>
      <point x="543" y="182"/>
      <point x="490" y="217"/>
      <point x="438" y="217" type="curve" smooth="yes"/>
      <point x="408" y="217"/>
      <point x="393" y="200"/>
      <point x="393" y="176" type="curve" smooth="yes"/>
      <point x="393" y="155"/>
      <point x="400" y="130"/>
      <point x="419" y="85" type="curve"/>
      <point x="384" y="63"/>
      <point x="339" y="50"/>
      <point x="297" y="50" type="curve" smooth="yes"/>
      <point x="217" y="50"/>
      <point x="171" y="97"/>
      <point x="171" y="171" type="curve" smooth="yes"/>
      <point x="171" y="240"/>
      <point x="222" y="296"/>
      <point x="359" y="296" type="curve"/>
      <point x="359" y="346" type="line"/>
      <point x="183" y="346"/>
      <point x="101" y="274"/>
      <point x="101" y="171" type="curve" smooth="yes"/>
      <point x="101" y="67"/>
      <point x="161" y="-8"/>
      <point x="292" y="-8" type="curve" smooth="yes"/>
      <point x="388" y="-8"/>
      <point x="543" y="43"/>
    </contour>
    <contour>
      <point x="430" y="63" type="line"/>
      <point x="510" y="-96" type="line"/>
      <point x="572" y="-66" type="line"/>
      <point x="498" y="70" type="line"/>
    </contour>
  </outline>
</glyph>
<glyph name="dadeva_viramadeva_ghadeva" format="1">
  <advance width="710"/>
  <outline>
    <contour>
      <point x="610" y="10" type="move" name="DVAnchor0"/>
    </contour>
    <contour>
      <point x="267" y="174" type="line"/>
      <point x="230" y="157"/>
      <point x="207" y="124"/>
      <point x="207" y="73" type="curve" smooth="yes"/>
      <point x="207" y="-5"/>
      <point x="256" y="-56"/>
      <point x="366" y="-56" type="curve" smooth="yes"/>
      <point x="451" y="-56"/>
      <point x="539" y="-15"/>
      <point x="598" y="63" type="curve"/>
      <point x="570" y="102" type="line"/>
      <point x="530" y="45"/>
      <point x="449" y="0"/>
      <point x="368" y="0" type="curve" smooth="yes"/>
      <point x="303" y="0"/>
      <point x="278" y="29"/>
      <point x="278" y="75" type="curve" smooth="yes"/>
      <point x="278" y="111"/>
      <point x="296" y="136"/>
      <point x="325" y="146" type="curve"/>
    </contour>
    <contour>
      <point x="566" y="155" type="line"/>
      <point x="606" y="176"/>
      <point x="613" y="195"/>
      <point x="613" y="218" type="curve" smooth="yes"/>
      <point x="613" y="263"/>
      <point x="560" y="299"/>
      <point x="505" y="299" type="curve" smooth="yes"/>
      <point x="454" y="299"/>
      <point x="442" y="264"/>
      <point x="486" y="175" type="curve" smooth="yes"/>
      <point x="592" y="-39" type="line"/>
      <point x="654" y="-9" type="line"/>
    </contour>
    <contour>
      <point x="556" y="236" type="line"/>
      <point x="530" y="199"/>
      <point x="480" y="175"/>
      <point x="396" y="175" type="curve" smooth="yes"/>
      <point x="272" y="175"/>
      <point x="221" y="223"/>
      <point x="221" y="336" type="curve" smooth="yes"/>
      <point x="221" y="442"/>
      <point x="273" y="485"/>
      <point x="410" y="485" type="curve" smooth="yes"/>
      <point x="567" y="485" type="line"/>
      <point x="567" y="730" type="line"/>
      <point x="-13" y="730" type="line"/>
      <point x="-13" y="680" type="line"/>
      <point x="497" y="680" type="line"/>
      <point x="497" y="535" type="line"/>
      <point x="409" y="535" type="line" smooth="yes"/>
      <point x="223" y="535"/>
      <point x="151" y="475"/>
      <point x="151" y="336" type="curve" smooth="yes"/>
      <point x="151" y="184"/>
      <point x="226" y="116"/>
      <point x="391" y="116" type="curve" smooth="yes"/>
      <point x="456" y="116"/>
      <point x="549" y="137"/>
      <point x="587" y="175" type="curve"/>
    </contour>
    <contour>
      <point x="567" y="680" type="line"/>
      <point x="720" y="680" type="line"/>
      <point x="720" y="730" type="line"/>
      <point x="567" y="730" type="line"/>
    </contour>
    <contour>
      <point x="274" y="180" type="line"/>
      <point x="244" y="162"/>
      <point x="207" y="150"/>
      <point x="166" y="150" type="curve" smooth="yes"/>
      <point x="100" y="150"/>
      <point x="69" y="186"/>
      <point x="69" y="235" type="curve" smooth="yes"/>
      <point x="69" y="277"/>
      <point x="100" y="311"/>
      <point x="167" y="311" type="curve" smooth="yes"/>
      <point x="173" y="311"/>
      <point x="179" y="311"/>
      <point x="185" y="310" type="curve"/>
      <point x="182" y="364" type="line"/>
      <point x="173" y="365"/>
      <point x="164" y="365"/>
      <point x="154" y="365" type="curve" smooth="yes"/>
      <point x="46" y="365"/>
      <point x="-1" y="307"/>
      <point x="-1" y="235" type="curve" smooth="yes"/>
      <point x="-1" y="158"/>
      <point x="42" y="96"/>
      <point x="155" y="96" type="curve" smooth="yes"/>
      <point x="230" y="96"/>
      <point x="292" y="124"/>
      <point x="330" y="164" type="curve"/>
    </contour>
  </outline>
</glyph>
<glyph name="dadeva_viramadeva_vadeva" format="1">
  <advance width="610"/>
  <outline>
    <contour>
      <point x="510" y="10" type="move" name="DVAnchor0"/>
    </contour>
    <contour>
      <point x="167" y="174" type="line"/>
      <point x="130" y="157"/>
      <point x="107" y="124"/>
      <point x="107" y="73" type="curve" smooth="yes"/>
      <point x="107" y="-5"/>
      <point x="156" y="-56"/>
      <point x="266" y="-56" type="curve" smooth="yes"/>
      <point x="351" y="-56"/>
      <point x="439" y="-15"/>
      <point x="498" y="63" type="curve"/>
      <point x="470" y="102" type="line"/>
      <point x="430" y="45"/>
      <point x="349" y="0"/>
      <point x="268" y="0" type="curve" smooth="yes"/>
      <point x="203" y="0"/>
      <point x="178" y="29"/>
      <point x="178" y="75" type="curve" smooth="yes"/>
      <point x="178" y="111"/>
      <point x="196" y="136"/>
      <point x="225" y="146" type="curve"/>
    </contour>
    <contour>
      <point x="466" y="155" type="line"/>
      <point x="506" y="176"/>
      <point x="513" y="195"/>
      <point x="513" y="218" type="curve" smooth="yes"/>
      <point x="513" y="263"/>
      <point x="460" y="299"/>
      <point x="405" y="299" type="curve" smooth="yes"/>
      <point x="354" y="299"/>
      <point x="342" y="264"/>
      <point x="386" y="175" type="curve" smooth="yes"/>
      <point x="492" y="-39" type="line"/>
      <point x="554" y="-9" type="line"/>
    </contour>
    <contour>
      <point x="456" y="236" type="line"/>
      <point x="430" y="199"/>
      <point x="380" y="175"/>
      <point x="296" y="175" type="curve" smooth="yes"/>
      <point x="172" y="175"/>
      <point x="121" y="223"/>
      <point x="121" y="336" type="curve" smooth="yes"/>
      <point x="121" y="442"/>
      <point x="173" y="485"/>
      <point x="310" y="485" type="curve" smooth="yes"/>
      <point x="495" y="485" type="line"/>
      <point x="495" y="730" type="line"/>
      <point x="-10" y="730" type="line"/>
      <point x="-10" y="680" type="line"/>
      <point x="425" y="680" type="line"/>
      <point x="425" y="535" type="line"/>
      <point x="309" y="535" type="line" smooth="yes"/>
      <point x="123" y="535"/>
      <point x="51" y="475"/>
      <point x="51" y="336" type="curve" smooth="yes"/>
      <point x="51" y="184"/>
      <point x="126" y="116"/>
      <point x="291" y="116" type="curve" smooth="yes"/>
      <point x="356" y="116"/>
      <point x="449" y="137"/>
      <point x="487" y="175" type="curve"/>
    </contour>
    <contour>
      <point x="495" y="680" type="line"/>
      <point x="620" y="680" type="line"/>
      <point x="620" y="730" type="line"/>
      <point x="495" y="730" type="line"/>
    </contour>
  </outline>
</glyph>
<glyph name="ddadeva_viramadeva_ddhadeva" format="1">
  <advance width="699"/>
  <outline>
    <contour>
      <point x="359" y="-185" type="move" name="DVAnchor0"/>
    </contour>
    <contour>
      <point x="71" y="254" type="line"/>
      <point x="110" y="178"/>
      <point x="201" y="140"/>
      <point x="367" y="140" type="curve" smooth="yes"/>
      <point x="563" y="140"/>
      <point x="642" y="205"/>
      <point x="642" y="296" type="curve" smooth="yes"/>
      <point x="642" y="378"/>
      <point x="563" y="436"/>
      <point x="367" y="436" type="curve" smooth="yes"/>
      <point x="314" y="436"/>
      <point x="289" y="433"/>
      <point x="226" y="420" type="curve"/>
      <point x="176" y="430"/>
      <point x="156" y="451"/>
      <point x="156" y="476" type="curve" smooth="yes"/>
      <point x="156" y="509"/>
      <point x="186" y="533"/>
      <point x="272" y="533" type="curve"/>
      <point x="272" y="583" type="line"/>
      <point x="145" y="583"/>
      <point x="86" y="535"/>
      <point x="86" y="474" type="curve" smooth="yes"/>
      <point x="86" y="406"/>
      <point x="136" y="376"/>
      <point x="214" y="362" type="curve"/>
      <point x="257" y="375"/>
      <point x="310" y="382"/>
      <point x="359" y="382" type="curve" smooth="yes"/>
      <point x="496" y="382"/>
      <point x="573" y="352"/>
      <point x="573" y="296" type="curve" smooth="yes"/>
      <point x="573" y="230"/>
      <point x="497" y="197"/>
      <point x="367" y="197" type="curve" smooth="yes"/>
      <point x="243" y="197"/>
      <point x="165" y="223"/>
      <point x="132" y="274" type="curve"/>
    </contour>
    <contour>
      <point x="565" y="583" type="line"/>
      <point x="565" y="680" type="line"/>
      <point x="711" y="680" type="line"/>
      <point x="711" y="730" type="line"/>
      <point x="-12" y="730" type="line"/>
      <point x="-12" y="680" type="line"/>
      <point x="495" y="680" type="line"/>
      <point x="495" y="583" type="line"/>
    </contour>
    <contour>
      <point x="272" y="533" type="line"/>
      <point x="565" y="533" type="line"/>
      <point x="565" y="583" type="line"/>
      <point x="272" y="583" type="line"/>
    </contour>
    <contour>
      <point x="608" y="-67" type="curve" smooth="yes"/>
      <point x="608" y="-7"/>
      <point x="568" y="48"/>
      <point x="465" y="48" type="curve" smooth="yes"/>
      <point x="361" y="48"/>
      <point x="322" y="-7"/>
      <point x="322" y="-67" type="curve" smooth="yes"/>
      <point x="322" y="-118"/>
      <point x="345" y="-176"/>
      <point x="458" y="-183" type="curve"/>
      <point x="517" y="-149" type="line"/>
      <point x="406" y="-144"/>
      <point x="386" y="-106"/>
      <point x="386" y="-67" type="curve" smooth="yes"/>
      <point x="386" y="-33"/>
      <point x="403" y="0"/>
      <point x="464" y="0" type="curve" smooth="yes"/>
      <point x="525" y="0"/>
      <point x="543" y="-33"/>
      <point x="543" y="-67" type="curve" smooth="yes"/>
      <point x="543" y="-122"/>
      <point x="496" y="-162"/>
      <point x="359" y="-162" type="curve" smooth="yes"/>
      <point x="233" y="-162"/>
      <point x="181" y="-116"/>
      <point x="181" y="-17" type="curve" smooth="yes"/>
      <point x="181" y="102"/>
      <point x="252" y="140"/>
      <point x="367" y="140" type="curve"/>
      <point x="366" y="179" type="line"/>
      <point x="202" y="179"/>
      <point x="111" y="123"/>
      <point x="111" y="-17" type="curve" smooth="yes"/>
      <point x="111" y="-153"/>
      <point x="189" y="-215"/>
      <point x="359" y="-215" type="curve" smooth="yes"/>
      <point x="538" y="-215"/>
      <point x="608" y="-151"/>
    </contour>
  </outline>
</glyph>
<glyph name="ddadeva_viramadeva_yadeva" format="1">
  <advance width="1280"/>
  <outline>
    <contour>
      <point x="1130" y="30" type="move" name="DVAnchor0"/>
    </contour>
    <contour>
      <point x="495" y="526" type="line"/>
      <point x="724" y="526" type="line" smooth="yes"/>
      <point x="796" y="526"/>
      <point x="822" y="481"/>
      <point x="822" y="430" type="curve" smooth="yes"/>
      <point x="822" y="382"/>
      <point x="796" y="334"/>
      <point x="694" y="334" type="curve" smooth="yes"/>
      <point x="638" y="334" type="line"/>
      <point x="657" y="286" type="line"/>
      <point x="694" y="286" type="line" smooth="yes"/>
      <point x="827" y="286"/>
      <point x="892" y="344"/>
      <point x="892" y="433" type="curve" smooth="yes"/>
      <point x="892" y="500"/>
      <point x="858" y="586"/>
      <point x="738" y="586" type="curve" smooth="yes"/>
      <point x="495" y="586" type="line"/>
    </contour>
    <contour>
      <point x="891" y="98" type="curve" smooth="yes"/>
      <point x="997" y="98"/>
      <point x="1075" y="136"/>
      <point x="1130" y="202" type="curve"/>
      <point x="1130" y="265" type="line"/>
      <point x="1086" y="207"/>
      <point x="1009" y="156"/>
      <point x="891" y="156" type="curve" smooth="yes"/>
      <point x="764" y="156"/>
      <point x="708" y="223"/>
      <point x="708" y="334" type="curve"/>
      <point x="638" y="334" type="line"/>
      <point x="638" y="186"/>
      <point x="725" y="98"/>
    </contour>
    <contour>
      <point x="600" y="680" type="line"/>
      <point x="1290" y="680" type="line"/>
      <point x="1290" y="730" type="line"/>
      <point x="600" y="730" type="line"/>
    </contour>
    <contour>
      <point x="1095" y="0" type="line"/>
      <point x="1165" y="0" type="line"/>
      <point x="1165" y="680" type="line"/>
      <point x="1095" y="680" type="line"/>
    </contour>
    <contour>
      <point x="59" y="136" type="line"/>
      <point x="94" y="40"/>
      <point x="177" y="-15"/>
      <point x="318" y="-15" type="curve" smooth="yes"/>
      <point x="492" y="-15"/>
      <point x="560" y="67"/>
      <point x="560" y="183" type="curve" smooth="yes"/>
      <point x="560" y="294"/>
      <point x="492" y="372"/>
      <point x="323" y="372" type="curve" smooth="yes"/>
      <point x="279" y="372"/>
      <point x="238" y="361"/>
      <point x="202" y="346" type="curve"/>
      <point x="161" y="364"/>
      <point x="143" y="396"/>
      <point x="143" y="434" type="curve" smooth="yes"/>
      <point x="143" y="486"/>
      <point x="174" y="526"/>
      <point x="261" y="526" type="curve"/>
      <point x="261" y="586" type="line"/>
      <point x="132" y="586"/>
      <point x="73" y="520"/>
      <point x="73" y="433" type="curve" smooth="yes"/>
      <point x="73" y="344"/>
      <point x="118" y="315"/>
      <point x="188" y="288" type="curve"/>
      <point x="225" y="306"/>
      <point x="270" y="317"/>
      <point x="312" y="317" type="curve" smooth="yes"/>
      <point x="427" y="317"/>
      <point x="491" y="270"/>
      <point x="491" y="183" type="curve" smooth="yes"/>
      <point x="491" y="90"/>
      <point x="428" y="43"/>
      <point x="318" y="43" type="curve" smooth="yes"/>
      <point x="214" y="43"/>
      <point x="148" y="79"/>
      <point x="120" y="156" type="curve"/>
    </contour>
    <contour>
      <point x="495" y="586" type="line"/>
      <point x="495" y="680" type="line"/>
      <point x="735" y="680" type="line"/>
      <point x="735" y="730" type="line"/>
      <point x="-10" y="730" type="line"/>
      <point x="-10" y="680" type="line"/>
      <point x="425" y="680" type="line"/>
      <point x="425" y="586" type="line"/>
    </contour>
    <contour>
      <point x="261" y="526" type="line"/>
      <point x="495" y="526" type="line"/>
      <point x="495" y="586" type="line"/>
      <point x="261" y="586" type="line"/>
    </contour>
  </outline>
</glyph>
<glyph name="ddhadeva_viramadeva_yadeva" format="1">
  <advance width="1313"/>
  <outline>
    <contour>
      <point x="528" y="455" type="line"/>
      <point x="612" y="495"/>
      <point x="679" y="515"/>
      <point x="757" y="515" type="curve" smooth="yes"/>
      <point x="829" y="515"/>
      <point x="855" y="475"/>
      <point x="855" y="430" type="curve" smooth="yes"/>
      <point x="855" y="382"/>
      <point x="829" y="334"/>
      <point x="727" y="334" type="curve" smooth="yes"/>
      <point x="671" y="334" type="line"/>
      <point x="690" y="286" type="line"/>
      <point x="727" y="286" type="line" smooth="yes"/>
      <point x="860" y="286"/>
      <point x="925" y="344"/>
      <point x="925" y="433" type="curve" smooth="yes"/>
      <point x="925" y="494"/>
      <point x="891" y="572"/>
      <point x="771" y="572" type="curve" smooth="yes"/>
      <point x="698" y="572"/>
      <point x="628" y="559"/>
      <point x="528" y="509" type="curve"/>
    </contour>
    <contour>
      <point x="924" y="98" type="curve" smooth="yes"/>
      <point x="1030" y="98"/>
      <point x="1108" y="136"/>
      <point x="1163" y="202" type="curve"/>
      <point x="1163" y="265" type="line"/>
      <point x="1119" y="207"/>
      <point x="1042" y="156"/>
      <point x="924" y="156" type="curve" smooth="yes"/>
      <point x="797" y="156"/>
      <point x="741" y="223"/>
      <point x="741" y="334" type="curve"/>
      <point x="671" y="334" type="line"/>
      <point x="671" y="186"/>
      <point x="758" y="98"/>
    </contour>
    <contour>
      <point x="633" y="680" type="line"/>
      <point x="1323" y="680" type="line"/>
      <point x="1323" y="730" type="line"/>
      <point x="633" y="730" type="line"/>
    </contour>
    <contour>
      <point x="1128" y="0" type="line"/>
      <point x="1198" y="0" type="line"/>
      <point x="1198" y="680" type="line"/>
      <point x="1128" y="680" type="line"/>
    </contour>
    <contour>
      <point x="528" y="680" type="line"/>
      <point x="663" y="680" type="line"/>
      <point x="663" y="730" type="line"/>
      <point x="528" y="730" type="line"/>
    </contour>
    <contour>
      <point x="585" y="225" type="curve" smooth="yes"/>
      <point x="585" y="299"/>
      <point x="570" y="366"/>
      <point x="432" y="366" type="curve" smooth="yes"/>
      <point x="294" y="366"/>
      <point x="280" y="299"/>
      <point x="280" y="225" type="curve" smooth="yes"/>
      <point x="280" y="146"/>
      <point x="295" y="77"/>
      <point x="424" y="46" type="curve"/>
      <point x="449" y="92" type="line"/>
      <point x="349" y="115"/>
      <point x="343" y="168"/>
      <point x="343" y="225" type="curve" smooth="yes"/>
      <point x="343" y="273"/>
      <point x="347" y="316"/>
      <point x="431" y="316" type="curve" smooth="yes"/>
      <point x="516" y="316"/>
      <point x="521" y="273"/>
      <point x="521" y="225" type="curve" smooth="yes"/>
      <point x="521" y="141"/>
      <point x="469" y="75"/>
      <point x="320" y="75" type="curve" smooth="yes"/>
      <point x="183" y="75"/>
      <point x="126" y="141"/>
      <point x="126" y="296" type="curve" smooth="yes"/>
      <point x="126" y="419"/>
      <point x="183" y="455"/>
      <point x="332" y="455" type="curve" smooth="yes"/>
      <point x="528" y="455" type="line"/>
      <point x="528" y="730" type="line"/>
      <point x="-10" y="730" type="line"/>
      <point x="-10" y="680" type="line"/>
      <point x="459" y="680" type="line"/>
      <point x="459" y="514" type="line"/>
      <point x="331" y="514" type="line" smooth="yes"/>
      <point x="133" y="514"/>
      <point x="56" y="452"/>
      <point x="56" y="296" type="curve" smooth="yes"/>
      <point x="56" y="103"/>
      <point x="139" y="16"/>
      <point x="320" y="16" type="curve" smooth="yes"/>
      <point x="519" y="16"/>
      <point x="585" y="110"/>
    </contour>
  </outline>
</glyph>
<glyph name="eightdeva.np" format="1">
  <advance width="604"/>
  <outline>
    <contour>
      <point x="351" y="595" type="line"/>
      <point x="188" y="333" type="line" smooth="yes"/>
      <point x="159" y="287"/>
      <point x="140" y="240"/>
      <point x="140" y="185" type="curve" smooth="yes"/>
      <point x="140" y="121"/>
      <point x="158" y="42"/>
      <point x="288" y="42" type="curve" smooth="yes"/>
      <point x="390" y="42"/>
      <point x="458" y="113"/>
      <point x="498" y="191" type="curve"/>
      <point x="554" y="153" type="line"/>
      <point x="504" y="69"/>
      <point x="418" y="-14"/>
      <point x="291" y="-14" type="curve" smooth="yes"/>
      <point x="110" y="-14"/>
      <point x="70" y="90"/>
      <point x="70" y="185" type="curve" smooth="yes"/>
      <point x="70" y="265"/>
      <point x="105" y="333"/>
      <point x="142" y="391" type="curve" smooth="yes"/>
      <point x="271" y="595" type="line"/>
    </contour>
    <contour>
      <point x="554" y="573" type="line"/>
      <point x="70" y="573" type="line"/>
      <point x="70" y="623" type="line"/>
      <point x="554" y="623" type="line"/>
    </contour>
  </outline>
</glyph>
<glyph name="fivedeva.np" format="1">
  <advance width="505"/>
  <outline>
    <contour>
      <point x="344" y="4" type="line"/>
      <point x="414" y="37"/>
      <point x="445" y="74"/>
      <point x="445" y="126" type="curve" smooth="yes"/>
      <point x="445" y="148"/>
      <point x="440" y="171"/>
      <point x="430" y="199" type="curve" smooth="yes"/>
      <point x="389" y="313" type="line"/>
      <point x="425" y="329"/>
      <point x="440" y="350"/>
      <point x="440" y="382" type="curve" smooth="yes"/>
      <point x="440" y="423"/>
      <point x="396" y="457"/>
      <point x="343" y="457" type="curve" smooth="yes"/>
      <point x="308" y="457"/>
      <point x="291" y="441"/>
      <point x="291" y="407" type="curve" smooth="yes"/>
      <point x="291" y="388"/>
      <point x="296" y="363"/>
      <point x="307" y="333" type="curve" smooth="yes"/>
      <point x="363" y="168" type="line" smooth="yes"/>
      <point x="369" y="153"/>
      <point x="372" y="138"/>
      <point x="372" y="125" type="curve" smooth="yes"/>
      <point x="372" y="96"/>
      <point x="357" y="74"/>
      <point x="326" y="57" type="curve" smooth="yes"/>
    </contour>
    <contour>
      <point x="302" y="297" type="curve" smooth="yes"/>
      <point x="323" y="297"/>
      <point x="335" y="298"/>
      <point x="345" y="300" type="curve"/>
      <point x="366" y="362" type="line"/>
      <point x="352" y="357"/>
      <point x="338" y="356"/>
      <point x="307" y="356" type="curve" smooth="yes"/>
      <point x="201" y="356"/>
      <point x="120" y="434"/>
      <point x="120" y="537" type="curve" smooth="yes"/>
      <point x="120" y="620"/>
      <point x="154" y="690"/>
      <point x="219" y="738" type="curve"/>
      <point x="165" y="775" type="line"/>
      <point x="94" y="719"/>
      <point x="50" y="631"/>
      <point x="50" y="543" type="curve" smooth="yes"/>
      <point x="50" y="402"/>
      <point x="157" y="297"/>
    </contour>
    <contour>
      <point x="441" y="-151" type="line"/>
      <point x="320" y="107" type="line" smooth="yes"/>
      <point x="311" y="126"/>
      <point x="303" y="132"/>
      <point x="289" y="132" type="curve" smooth="yes"/>
      <point x="236" y="132"/>
      <point x="216" y="60"/>
      <point x="216" y="15" type="curve" smooth="yes"/>
      <point x="216" y="-3"/>
      <point x="219" y="-52"/>
      <point x="252" y="-37" type="curve" smooth="yes"/>
      <point x="318" y="-7" type="line"/>
      <point x="386" y="-151" type="line"/>
    </contour>
  </outline>
</glyph>
<glyph name="gapfillerdeva" format="1">
  <advance width="789"/>
  <outline>
    <contour>
      <point x="593" y="730" type="move" name="DVAnchor3"/>
    </contour>
    <contour>
      <point x="308" y="90" type="move" name="DVAnchor0"/>
    </contour>
    <contour>
      <point x="762" y="364" type="curve" smooth="yes"/>
      <point x="762" y="464"/>
      <point x="746" y="557"/>
      <point x="595" y="557" type="curve" smooth="yes"/>
      <point x="444" y="557"/>
      <point x="428" y="464"/>
      <point x="428" y="364" type="curve" smooth="yes"/>
      <point x="428" y="270"/>
      <point x="445" y="189"/>
      <point x="589" y="151" type="curve"/>
      <point x="614" y="197" type="line"/>
      <point x="499" y="227"/>
      <point x="491" y="295"/>
      <point x="491" y="364" type="curve" smooth="yes"/>
      <point x="491" y="437"/>
      <point x="497" y="506"/>
      <point x="594" y="506" type="curve" smooth="yes"/>
      <point x="693" y="506"/>
      <point x="698" y="437"/>
      <point x="698" y="364" type="curve" smooth="yes"/>
      <point x="698" y="213"/>
      <point x="501" y="103"/>
      <point x="306" y="103" type="curve" smooth="yes"/>
      <point x="194" y="103"/>
      <point x="143" y="156"/>
      <point x="143" y="243" type="curve" smooth="yes"/>
      <point x="143" y="320"/>
      <point x="187" y="386"/>
      <point x="294" y="386" type="curve" smooth="yes"/>
      <point x="349" y="386" type="line"/>
      <point x="349" y="436" type="line"/>
      <point x="283" y="436" type="line" smooth="yes"/>
      <point x="172" y="436"/>
      <point x="73" y="375"/>
      <point x="73" y="245" type="curve" smooth="yes"/>
      <point x="73" y="116"/>
      <point x="155" y="45"/>
      <point x="306" y="45" type="curve" smooth="yes"/>
      <point x="511" y="45"/>
      <point x="762" y="183"/>
    </contour>
  </outline>
</glyph>
<glyph name="glyph244" format="1">
  <advance width="0"/>
  <outline>
    <contour>
      <point x="-185" y="-394" type="line"/>
      <point x="-115" y="-394" type="line"/>
      <point x="-115" y="98" type="line"/>
      <point x="-185" y="98" type="line"/>
    </contour>
    <contour>
      <point x="-232" y="-45" type="line"/>
      <point x="-264" y="-35"/>
      <point x="-298" y="-29"/>
      <point x="-338" y="-29" type="curve" smooth="yes"/>
      <point x="-510" y="-29"/>
      <point x="-529" y="-102"/>
      <point x="-529" y="-181" type="curve" smooth="yes"/>
      <point x="-529" y="-268"/>
      <point x="-510" y="-346"/>
      <point x="-339" y="-346" type="curve" smooth="yes"/>
      <point x="-260" y="-346"/>
      <point x="-201" y="-331"/>
      <point x="-160" y="-302" type="curve"/>
      <point x="-160" y="-241" type="line"/>
      <point x="-190" y="-269"/>
      <point x="-250" y="-291"/>
      <point x="-330" y="-291" type="curve" smooth="yes"/>
      <point x="-448" y="-291"/>
      <point x="-459" y="-242"/>
      <point x="-459" y="-182" type="curve" smooth="yes"/>
      <point x="-459" y="-130"/>
      <point x="-448" y="-85"/>
      <point x="-325" y="-85" type="curve" smooth="yes"/>
      <point x="-297" y="-85"/>
      <point x="-270" y="-89"/>
      <point x="-245" y="-97" type="curve"/>
    </contour>
  </outline>
</glyph>
<glyph name="grave.case" format="1">
  <advance width="314"/>
  <outline>
    <contour>
      <point x="222" y="782" type="line"/>
      <point x="50" y="932" type="line"/>
      <point x="103" y="985" type="line"/>
      <point x="264" y="824" type="line"/>
    </contour>
  </outline>
</glyph>
<glyph name="h.alt" format="1">
  <advance width="681"/>
  <outline>
    <contour>
      <point x="190" y="750" type="line"/>
      <point x="120" y="750" type="line"/>
      <point x="120" y="0" type="line"/>
      <point x="190" y="0" type="line"/>
    </contour>
    <contour>
      <point x="167" y="383" type="line"/>
      <point x="232" y="442"/>
      <point x="305" y="477"/>
      <point x="385" y="477" type="curve" smooth="yes"/>
      <point x="461" y="477"/>
      <point x="491" y="441"/>
      <point x="491" y="358" type="curve" smooth="yes"/>
      <point x="491" y="0" type="line"/>
      <point x="561" y="0" type="line"/>
      <point x="561" y="357" type="line" smooth="yes"/>
      <point x="561" y="478"/>
      <point x="515" y="536"/>
      <point x="396" y="536" type="curve" smooth="yes"/>
      <point x="296" y="536"/>
      <point x="202" y="480"/>
      <point x="153" y="432" type="curve"/>
    </contour>
    <contour>
      <point x="60" y="0" type="line"/>
      <point x="250" y="0" type="line"/>
      <point x="250" y="50" type="line"/>
      <point x="60" y="50" type="line"/>
    </contour>
    <contour>
      <point x="431" y="0" type="line"/>
      <point x="621" y="0" type="line"/>
      <point x="621" y="50" type="line"/>
      <point x="431" y="50" type="line"/>
    </contour>
  </outline>
</glyph>
<glyph name="hadeva_viramadeva_ladeva" format="1">
  <advance width="621"/>
  <outline>
    <contour>
      <point x="460" y="730" type="move" name="DVAnchor3"/>
    </contour>
    <contour>
      <point x="601" y="30" type="move" name="DVAnchor0"/>
    </contour>
    <contour>
      <point x="143" y="146" type="curve" smooth="yes"/>
      <point x="143" y="266"/>
      <point x="228" y="343"/>
      <point x="374" y="343" type="curve" smooth="yes"/>
      <point x="489" y="343"/>
      <point x="566" y="288"/>
      <point x="566" y="212" type="curve" smooth="yes"/>
      <point x="566" y="0" type="line"/>
      <point x="636" y="0" type="line"/>
      <point x="636" y="206" type="line" smooth="yes"/>
      <point x="636" y="326"/>
      <point x="532" y="397"/>
      <point x="374" y="397" type="curve" smooth="yes"/>
      <point x="192" y="397"/>
      <point x="73" y="306"/>
      <point x="73" y="136" type="curve" smooth="yes"/>
      <point x="73" y="-23"/>
      <point x="163" y="-108"/>
      <point x="334" y="-176" type="curve"/>
      <point x="360" y="-118" type="line"/>
      <point x="215" y="-60"/>
      <point x="143" y="7"/>
    </contour>
    <contour>
      <point x="218" y="331" type="line"/>
      <point x="166" y="350"/>
      <point x="143" y="383"/>
      <point x="143" y="425" type="curve" smooth="yes"/>
      <point x="143" y="471"/>
      <point x="174" y="506"/>
      <point x="261" y="506" type="curve"/>
      <point x="261" y="566" type="line"/>
      <point x="132" y="566"/>
      <point x="73" y="504"/>
      <point x="73" y="422" type="curve" smooth="yes"/>
      <point x="73" y="345"/>
      <point x="112" y="308"/>
      <point x="175" y="283" type="curve"/>
    </contour>
    <contour>
      <point x="495" y="566" type="line"/>
      <point x="495" y="680" type="line"/>
      <point x="686" y="680" type="line"/>
      <point x="686" y="730" type="line"/>
      <point x="-10" y="730" type="line"/>
      <point x="-10" y="680" type="line"/>
      <point x="425" y="680" type="line"/>
      <point x="425" y="566" type="line"/>
    </contour>
    <contour>
      <point x="261" y="506" type="line"/>
      <point x="495" y="506" type="line"/>
      <point x="495" y="566" type="line"/>
      <point x="261" y="566" type="line"/>
    </contour>
    <contour>
      <point x="572" y="252" type="line"/>
      <point x="472" y="252"/>
      <point x="425" y="192"/>
      <point x="425" y="100" type="curve"/>
      <point x="478" y="94" type="line"/>
      <point x="478" y="165"/>
      <point x="505" y="208"/>
      <point x="572" y="208" type="curve"/>
    </contour>
    <contour>
      <point x="479" y="196" type="line"/>
      <point x="455" y="232"/>
      <point x="415" y="252"/>
      <point x="359" y="252" type="curve" smooth="yes"/>
      <point x="288" y="252"/>
      <point x="233" y="217"/>
      <point x="233" y="131" type="curve" smooth="yes"/>
      <point x="233" y="52"/>
      <point x="285" y="-1"/>
      <point x="390" y="-44" type="curve"/>
      <point x="409" y="-2" type="line"/>
      <point x="327" y="34"/>
      <point x="287" y="74"/>
      <point x="287" y="136" type="curve" smooth="yes"/>
      <point x="287" y="186"/>
      <point x="317" y="208"/>
      <point x="359" y="208" type="curve" smooth="yes"/>
      <point x="409" y="208"/>
      <point x="437" y="186"/>
      <point x="448" y="146" type="curve"/>
    </contour>
  </outline>
</glyph>
